<svg xmlns="http://www.w3.org/2000/svg" width="1000" height="244.186"><path d="M373.917 54.61H318.58a7.689 7.689 0 00-7.598 6.49L288.601 203c-.446 2.8 1.723 5.324 4.563 5.324h26.419a7.689 7.689 0 007.598-6.497l6.036-38.273a7.68 7.68 0 017.59-6.497h17.518c36.452 0 57.49-17.64 62.984-52.595 2.476-15.293.105-27.31-7.056-35.724-7.865-9.24-21.814-14.128-40.336-14.128zm6.384 51.826c-3.026 19.857-18.197 19.857-32.867 19.857h-8.35l5.857-37.084a4.61 4.61 0 014.556-3.892h3.827c9.993 0 19.42 0 24.291 5.697 2.905 3.398 3.795 8.447 2.686 15.422zm159.031-.639h-26.5a4.616 4.616 0 00-4.555 3.892l-1.173 7.412-1.853-2.687c-5.737-8.326-18.53-11.11-31.298-11.11-29.284 0-54.294 22.18-59.166 53.291-2.532 15.52 1.069 30.36 9.872 40.709 8.075 9.515 19.63 13.48 33.378 13.48 23.594 0 36.678-15.171 36.678-15.171l-1.18 7.363c-.446 2.816 1.723 5.34 4.547 5.34h23.87a7.687 7.687 0 007.597-6.497l14.322-90.698c.454-2.792-1.707-5.324-4.539-5.324zm-36.938 51.575c-2.557 15.14-14.573 25.302-29.898 25.302-7.695 0-13.844-2.468-17.793-7.145-3.916-4.644-5.405-11.255-4.16-18.618 2.388-15.01 14.606-25.505 29.697-25.505 7.525 0 13.642 2.5 17.672 7.218 4.037 4.766 5.64 11.417 4.482 18.748zm178.07-51.575h-26.629a7.716 7.716 0 00-6.368 3.374l-36.727 54.1-15.568-51.988a7.713 7.713 0 00-7.38-5.486h-26.168c-3.18 0-5.389 3.107-4.377 6.1l29.332 86.078-27.576 38.929c-2.169 3.066.016 7.282 3.762 7.282h26.597a7.675 7.675 0 006.32-3.301l88.57-127.846c2.12-3.059-.057-7.242-3.788-7.242z" fill="#253b80"/><path d="M768.63 54.61h-55.346c-3.78 0-7 2.75-7.59 6.49L683.313 203c-.445 2.8 1.723 5.324 4.547 5.324h28.401a5.38 5.38 0 005.308-4.547l6.352-40.223a7.68 7.68 0 017.59-6.497h17.51c36.46 0 57.49-17.64 62.993-52.595 2.484-15.293.097-27.31-7.064-35.724-7.857-9.24-21.799-14.128-40.32-14.128zm6.384 51.826c-3.018 19.857-18.19 19.857-32.868 19.857h-8.342l5.866-37.084a4.595 4.595 0 014.548-3.892h3.827c9.985 0 19.42 0 24.29 5.697 2.905 3.398 3.787 8.447 2.679 15.422zm159.022-.639h-26.483a4.59 4.59 0 00-4.548 3.892l-1.173 7.412-1.86-2.687c-5.738-8.326-18.522-11.11-31.29-11.11-29.284 0-54.287 22.18-59.158 53.291-2.524 15.52 1.06 30.36 9.864 40.709 8.091 9.515 19.63 13.48 33.377 13.48 23.595 0 36.68-15.171 36.68-15.171l-1.182 7.363a4.613 4.613 0 004.563 5.34h23.862c3.779 0 7-2.75 7.59-6.497l14.33-90.698c.437-2.792-1.731-5.324-4.572-5.324zM897.1 157.372c-2.541 15.14-14.573 25.302-29.898 25.302-7.68 0-13.845-2.468-17.794-7.145-3.916-4.644-5.389-11.255-4.159-18.618 2.403-15.01 14.605-25.505 29.696-25.505 7.525 0 13.642 2.5 17.672 7.218 4.054 4.766 5.656 11.417 4.483 18.748zm68.178-98.87L942.565 203c-.445 2.8 1.723 5.324 4.547 5.324h22.835a7.676 7.676 0 007.598-6.497l22.397-141.893c.445-2.8-1.724-5.332-4.548-5.332h-25.569a4.622 4.622 0 00-4.547 3.9z" fill="#179bd7"/><path d="M58.793 235.9l4.232-26.88-9.427-.218H8.585L39.867 10.454a2.62 2.62 0 01.874-1.553 2.554 2.554 0 011.667-.615h75.898c25.197 0 42.586 5.243 51.664 15.592 4.257 4.855 6.967 9.928 8.278 15.512 1.376 5.858 1.4 12.857.057 21.394l-.097.623v5.47l4.256 2.41c3.584 1.902 6.432 4.079 8.617 6.571 3.641 4.151 5.996 9.427 6.991 15.681 1.028 6.433.688 14.088-.995 22.754-1.942 9.969-5.082 18.65-9.321 25.755-3.9 6.546-8.869 11.976-14.768 16.183-5.631 3.997-12.323 7.032-19.888 8.974-7.331 1.91-15.69 2.872-24.858 2.872h-5.906a17.91 17.91 0 00-11.547 4.248c-3.229 2.784-5.365 6.587-6.02 10.746l-.445 2.42-7.477 47.375-.34 1.74c-.089.55-.242.825-.469 1.011-.202.17-.493.283-.777.283H58.793z" fill="#253b80"/><path d="M186.493 62.038a129.647 129.647 0 01-.777 4.45c-10.009 51.39-44.252 69.142-87.987 69.142H75.461c-5.348 0-9.855 3.884-10.688 9.16l-11.401 72.306-3.229 20.495c-.542 3.464 2.128 6.587 5.624 6.587H95.26a9.504 9.504 0 009.387-8.01l.388-2.007 7.436-47.19.477-2.59a9.498 9.498 0 019.387-8.026h5.906c38.265 0 68.22-15.536 76.975-60.492 3.657-18.78 1.764-34.462-7.913-45.49-2.93-3.327-6.563-6.086-10.81-8.335z" fill="#179bd7"/><path d="M176.023 57.863a78.951 78.951 0 00-4.726-1.214 90.195 90.195 0 00-5.008-.947c-6.004-.97-12.583-1.432-19.63-1.432h-59.49a9.485 9.485 0 00-9.378 8.027L65.138 142.45l-.364 2.339c.833-5.276 5.34-9.16 10.688-9.16H97.73c43.735 0 77.978-17.76 87.987-69.142.3-1.521.55-3.002.777-4.45-2.532-1.343-5.275-2.492-8.229-3.471a73.182 73.182 0 00-2.241-.704z" fill="#222d65"/><path d="M77.792 62.297a9.457 9.457 0 015.275-7.088 9.472 9.472 0 014.103-.931h59.489c7.047 0 13.626.461 19.63 1.432 1.715.275 3.382.59 5.008.947 1.619.364 3.197.769 4.726 1.214.76.226 1.513.46 2.25.696 2.953.979 5.696 2.136 8.228 3.47 2.978-18.99-.024-31.92-10.292-43.629C164.889 5.518 144.458 0 118.314 0H42.416c-5.34 0-9.896 3.884-10.722 9.168L.081 209.554c-.623 3.965 2.435 7.542 6.433 7.542h46.858l11.765-74.645 12.655-80.154z" fill="#253b80"/></svg>