<svg version="1.1" id="Layer_1" xmlns="http://www.w3.org/2000/svg" x="0" y="0" viewBox="0 0 732.6 467" xml:space="preserve"><style>.st1{fill:#fff}.st2{fill:#054798}</style><g id="UPT"><g id="Icons" transform="translate(-176 -284)"><g id="logo" transform="translate(176 284)"><g id="Upt_logo" transform="translate(1 1)"><path id="Shape" d="M56 3.5h615.1c24.3 0 44 19.6 44 43.9v368.3c0 24.2-19.7 43.8-44 43.8H56c-24.3 0-44-19.6-44-43.8V47.4C11.9 23.1 31.6 3.5 56 3.5z" fill="#eb5b1d"/><path id="Shape_1_" class="st1" d="M79.6 106.3c33.9-38.2 82.6-64.7 124.6-70.9h-12.4c-6.6.3-13.2 1-19.6 2.1-30.4 5-65.2 24.3-89.6 51.8-6.1 6.8-11.5 14.3-16.1 22.3-1.8 3.3-4 7.7-5.6 11-3 6.7-5.6 13.6-7.6 20.6-.4 1.6-.8 2.9-1.1 4.2 6.9-15 16.1-28.9 27.4-41.1z"/><path id="Shape_2_" class="st2" d="M102.3 139.3s45.4-51.8 112-68.8c17.6-5.2 36.2-6.8 54.5-4.7 7.8.6 15.6 1.8 23.2 3.5-4.2-3.5-7.8-5.9-15.5-11.1-2.9-1.8-7.1-4-10-5.7-2.9-1.4-5.8-2.6-8.9-3.6-45.9-15.4-120.5 13.7-168.8 65.4-1.2-2.9-2.3-5.8-3.1-8.8C72 127.9 63 152.9 59.3 178.8c17.3-13.7 40.3-22.9 51.4-27.4l-1.8-2.6c-2.4-3.2-4.4-6.4-6.6-9.5z"/><path id="Shape_3_" class="st1" d="M337.5 134.4v-.6c-2.7-6.5-6.5-15-9.7-21.3-6.8-11.8-18-20.5-31.1-24.4-50.5-17-133.4 16.4-185.1 74.5-41.1 46.1-50.2 94.2-26.7 120.6 3.6 4 8.9 9 12.8 12.7 3.6 2.9 6 5 8.3 6.7-5.9-14.2-7.4-29.9-4.3-45 3.5-16.2 10.2-31.4 19.7-45 34-50.7 96.1-87.5 146.3-94.1-.1.1 37.7-7.9 69.8 15.9z"/><path id="Shape_4_" class="st2" d="M273.8 133.6c1.4 3.4 2.6 6.8 3.6 10.3-40.1 4.3-88.1 29.5-121 66.7-44.1 49.6-44.9 101.5-1.8 116 1.5.5 3 .9 4.6 1.3 5.7 1.3 13.2 2.7 18.9 3.5 4.8.5 7.8.8 10.7 1-39.4-14.8-26.1-53.2-26.1-53.2 4.8-15.8 13.2-30.3 24.6-42.3 26.3-29.5 64.4-49.6 96.3-53 0 1.8.2 3.5.3 5.6v3.5c19.1-6.5 39.1-10.1 59.2-10.7-.1.1-17.6-34-69.3-48.7z"/><path id="Shape_5_" class="st1" d="M306.2 284.6c26.6-30.5 26.9-62.2.4-71.1-26.5-8.9-70.6 8.7-98 39.4s-27.9 63-1.1 72c6.9 2.1 14.2 2.8 21.4 2.1v-31.3c0-7.1 3.6-15.4 10.7-23.7 14.2-16 37.1-25.2 50.9-20.5 6.9 2 11.3 8.7 10.2 15.8v23.1c1.3-1.3 4.5-4.9 4.6-4.9l.4-.5c-.2 0 .5-.4.5-.4z"/><path id="Shape_6_" class="st1" d="M366.9 271.8v81c0 27.7-20.5 40.1-40.6 40.1s-40.3-12.4-40.6-40.1v-81.1h-16.8c-9.8 0-17.8 7.9-17.8 17.7v63.3c0 28.8 13 46.1 23.9 55.9 14.2 12.3 32.5 19 51.4 18.8 37.4 0 75.2-25.7 75.4-74.7v-81h-34.9z"/><path id="Shape_7_" class="st1" d="M541.5 291.3c-11.1-12-26.9-18.7-43.3-18.3H419v153.7h16.9c9.8 0 17.8-7.9 17.8-17.7v-20.8h44.5c16.4.4 32.2-6.3 43.3-18.4 19.3-22.5 19.3-55.7 0-78.3v-.2zm-26 55.3c-4.5 4.7-10.8 7.1-17.3 6.7h-44.4v-45.8h44.4c17 0 23 12.3 23 22.9.1 5.9-1.9 11.6-5.7 16.2z"/><path id="Shape_8_" class="st1" d="M613.8 273h-89.5c8 3.3 15.2 8.4 21 14.9 5.1 5.8 9.1 12.4 11.7 19.7h30.4v118.8h16.9c9.8 0 17.8-7.9 17.8-17.7V307.5H657c9.8 0 17.8-7.9 17.8-17.7V273h-61z"/><path id="Shape_9_" class="st1" d="M380.9 250.9H375l-4.7-13-.3 16.3h-5.1l1.1-25.1h5.4l6.6 17.7 6.5-17.7h5.3l1.2 25.1h-4.9l-.4-16.3z"/><path id="Shape_10_" class="st1" d="M414.7 246.8c0 4.2-2.4 7.7-9.5 7.7s-9.5-3.5-9.5-7.7v-10.4c0-4.2 2.4-7.7 9.5-7.7s9.5 3.5 9.5 7.7v10.4zm-14.2-.2c0 2.4 1.2 3.8 4.8 3.8 3.6 0 4.8-1.4 4.8-3.8v-9.9c0-2.4-1.2-3.8-4.8-3.8-3.6 0-4.8 1.4-4.8 3.8v9.9z"/><path id="Shape_11_" class="st1" d="M424.5 235.1v19.1h-4.7v-25.1h6.4l9.6 19v-19h4.6v25.1h-6.3z"/><path id="Shape_12_" class="st1" d="M446.2 229.1h15.4v4.2H451v6h9.8v4.2H451v6.5h10.6v4.2h-15.4z"/><path id="Shape_13_" class="st1" d="M480 229.1h5.1l-8.1 17.7v7.1h-4.8v-7.1l-8.2-17.7h5.1l5.6 12.6z"/><path id="Shape_14_" class="st1" d="M501.2 233.3h-7.1v-4.2H513v4.2h-7.1v20.9h-4.8z"/><path id="Shape_15_" class="st1" d="M532 254.2l-5.8-8.3h-4.6v8.3h-4.8v-25.1h10.4c5.8 0 8 2.4 8 6.8v3.3c.3 2.7-1.2 5.2-3.8 6.1l6.2 9H532zm-5-20.9h-5.4v8.5h5.4c2.6 0 3.6-1 3.6-3.1v-2.5c-.2-2.1-1.1-2.9-3.6-2.9z"/><path id="Shape_16_" class="st1" d="M555.9 249h-9.4l-1.6 5.2h-5l8-25.1h6.7l7.9 25.1h-5l-1.6-5.2zm-8.2-4.1h7.1l-3.6-11.9-3.5 11.9z"/><path id="Shape_17_" class="st1" d="M571 235.1v19.1h-4.7v-25.1h6.4l9.6 19v-19h4.6v25.1h-6.4z"/><path id="Shape_18_" class="st1" d="M599.4 254.6c-2.7 0-5.4-.5-7.9-1.5l.8-3.8c2.3.7 4.7 1.1 7.1 1.2 3.6 0 4-.7 4-3.1s0-3-4.6-4c-6.1-1.3-7.1-2.5-7.1-7.8 0-4.6 2.1-6.8 8.5-6.8 2.5 0 4.9.3 7.3.8l-.5 4c-2.2-.5-4.5-.8-6.7-.8-3.2 0-3.8.7-3.8 2.9 0 2.9 0 2.9 4.4 4 6.8 1.6 7.1 2.7 7.1 7.7s-1.1 7.2-8.6 7.2z"/><path id="Shape_19_" class="st1" d="M613 254.2v-25.1h15.6v4.2H618v6.6h9.7v4.2h-10v10.1z"/><path id="Shape_20_" class="st1" d="M632.8 229.1h15.4v4.2h-10.6v6h9.8v4.2h-9.8v6.5h10.6v4.2h-15.4z"/><path id="Shape_21_" class="st1" d="M668.3 254.2l-5.8-8.3H658v8.3h-4.8v-25.1h10.3c5.9 0 8 2.4 8 6.8v3.3c.3 2.7-1.3 5.2-3.8 6.1l6.3 9h-5.7zm-5-20.9H658v8.5h5.4c2.6 0 3.6-1 3.6-3.1v-2.5c-.1-2.1-1.1-2.9-3.7-2.9z"/></g></g></g></g></svg>