<?xml version="1.0" encoding="utf-8" standalone="no"?>
<!-- Generator: Adobe Illustrator 22.1.0, SVG Export Plug-In . SVG Version: 6.00 Build 0)  -->
<svg version="1.1" id="Layer_1" xmlns="http://www.w3.org/2000/svg" xmlns:xlink="http://www.w3.org/1999/xlink" x="0px" y="0px"
	 viewBox="0 0 732.6 467" style="enable-background:new 0 0 732.6 467;" xml:space="preserve">
<style type="text/css">
	.st0{fill:#EB5B1D;}
	.st1{fill:#FFFFFF;}
	.st2{fill:#054798;}
</style>
<title>Upt_logo</title>
<desc>Created with Sketch.</desc>
<g id="UPT">
	<g id="Icons" transform="translate(-176.000000, -284.000000)">
		<g id="logo" transform="translate(176.000000, 284.000000)">
			<g id="Upt_logo" transform="translate(1.000000, 1.000000)">
				<path id="Shape" class="st0" d="M56,3.5h615.1c24.3,0,44,19.6,44,43.9v368.3c0,24.2-19.7,43.8-44,43.8H56
					c-24.3,0-44-19.6-44-43.8V47.4C11.9,23.1,31.6,3.5,56,3.5z"/>
				<path id="Shape_1_" class="st1" d="M79.6,106.3c33.9-38.2,82.6-64.7,124.6-70.9c-3.2,0-6.7,0-12.4,0c-6.6,0.3-13.2,1-19.6,2.1
					c-30.4,5-65.2,24.3-89.6,51.8c-6.1,6.8-11.5,14.3-16.1,22.3c-1.8,3.3-4,7.7-5.6,11c-3,6.7-5.6,13.6-7.6,20.6
					c-0.4,1.6-0.8,2.9-1.1,4.2C59.1,132.4,68.3,118.5,79.6,106.3z"/>
				<path id="Shape_2_" class="st2" d="M102.3,139.3c0,0,45.4-51.8,112-68.8c17.6-5.2,36.2-6.8,54.5-4.7c7.8,0.6,15.6,1.8,23.2,3.5
					c-4.2-3.5-7.8-5.9-15.5-11.1c-2.9-1.8-7.1-4-10-5.7c-2.9-1.4-5.8-2.6-8.9-3.6c-45.9-15.4-120.5,13.7-168.8,65.4
					c-1.2-2.9-2.3-5.8-3.1-8.8C72,127.9,63,152.9,59.3,178.8c17.3-13.7,40.3-22.9,51.4-27.4l-1.8-2.6
					C106.5,145.6,104.5,142.4,102.3,139.3z"/>
				<path id="Shape_3_" class="st1" d="M337.5,134.4v-0.6c-2.7-6.5-6.5-15-9.7-21.3c-6.8-11.8-18-20.5-31.1-24.4
					c-50.5-17-133.4,16.4-185.1,74.5c-41.1,46.1-50.2,94.2-26.7,120.6c3.6,4,8.9,9,12.8,12.7c3.6,2.9,6,5,8.3,6.7
					c-5.9-14.2-7.4-29.9-4.3-45c3.5-16.2,10.2-31.4,19.7-45c34-50.7,96.1-87.5,146.3-94.1C267.6,118.6,305.4,110.6,337.5,134.4z"/>
				<path id="Shape_4_" class="st2" d="M273.8,133.6c1.4,3.4,2.6,6.8,3.6,10.3c-40.1,4.3-88.1,29.5-121,66.7
					c-44.1,49.6-44.9,101.5-1.8,116c1.5,0.5,3,0.9,4.6,1.3c5.7,1.3,13.2,2.7,18.9,3.5c4.8,0.5,7.8,0.8,10.7,1
					c-39.4-14.8-26.1-53.2-26.1-53.2c4.8-15.8,13.2-30.3,24.6-42.3c26.3-29.5,64.4-49.6,96.3-53c0,1.8,0.2,3.5,0.3,5.6
					c0,1.2,0,2.4,0,3.5c19.1-6.5,39.1-10.1,59.2-10.7C343,182.4,325.5,148.3,273.8,133.6z"/>
				<path id="Shape_5_" class="st1" d="M306.2,284.6c26.6-30.5,26.9-62.2,0.4-71.1c-26.5-8.9-70.6,8.7-98,39.4s-27.9,63-1.1,72
					c6.9,2.1,14.2,2.8,21.4,2.1v-31.3c0-7.1,3.6-15.4,10.7-23.7c14.2-16,37.1-25.2,50.9-20.5c6.9,2,11.3,8.7,10.2,15.8v23.1
					c1.3-1.3,4.5-4.9,4.6-4.9l0.4-0.5C305.5,285,306.2,284.6,306.2,284.6z"/>
				<path id="Shape_6_" class="st1" d="M366.9,271.8v81c0,27.7-20.5,40.1-40.6,40.1c-20.1,0-40.3-12.4-40.6-40.1v-81.1h-16.8
					c-9.8,0-17.8,7.9-17.8,17.7v63.3c0,28.8,13,46.1,23.9,55.9c14.2,12.3,32.5,19,51.4,18.8c37.4,0,75.2-25.7,75.4-74.7v-81H366.9z"
					/>
				<path id="Shape_7_" class="st1" d="M541.5,291.3c-11.1-12-26.9-18.7-43.3-18.3H419v153.7h16.9c9.8,0,17.8-7.9,17.8-17.7v-20.8
					h44.5c16.4,0.4,32.2-6.3,43.3-18.4c19.3-22.5,19.3-55.7,0-78.3V291.3z M515.5,346.6c-4.5,4.7-10.8,7.1-17.3,6.7h-44.4v-45.8
					h44.4c17,0,23,12.3,23,22.9C521.3,336.3,519.3,342,515.5,346.6z"/>
				<path id="Shape_8_" class="st1" d="M613.8,273h-89.5c8,3.3,15.2,8.4,21,14.9c5.1,5.8,9.1,12.4,11.7,19.7h30.4v118.8h16.9
					c9.8,0,17.8-7.9,17.8-17.7V307.5H657c9.8,0,17.8-7.9,17.8-17.7V273H613.8z"/>
				<polygon id="Shape_9_" class="st1" points="380.9,250.9 375,250.9 370.3,237.9 370,254.2 364.9,254.2 366,229.1 371.4,229.1 
					378,246.8 384.5,229.1 389.8,229.1 391,254.2 386.1,254.2 385.7,237.9 				"/>
				<path id="Shape_10_" class="st1" d="M414.7,246.8c0,4.2-2.4,7.7-9.5,7.7s-9.5-3.5-9.5-7.7v-10.4c0-4.2,2.4-7.7,9.5-7.7
					s9.5,3.5,9.5,7.7V246.8z M400.5,246.6c0,2.4,1.2,3.8,4.8,3.8c3.6,0,4.8-1.4,4.8-3.8v-9.9c0-2.4-1.2-3.8-4.8-3.8
					c-3.6,0-4.8,1.4-4.8,3.8V246.6z"/>
				<polygon id="Shape_11_" class="st1" points="424.5,235.1 424.5,254.2 419.8,254.2 419.8,229.1 426.2,229.1 435.8,248.1 
					435.8,229.1 440.4,229.1 440.4,254.2 434.1,254.2 				"/>
				<polygon id="Shape_12_" class="st1" points="446.2,229.1 461.6,229.1 461.6,233.3 451,233.3 451,239.3 460.8,239.3 460.8,243.5 
					451,243.5 451,250 461.6,250 461.6,254.2 446.2,254.2 				"/>
				<polygon id="Shape_13_" class="st1" points="480,229.1 485.1,229.1 477,246.8 477,253.9 472.2,253.9 472.2,246.8 464,229.1 
					469.1,229.1 474.7,241.7 				"/>
				<polygon id="Shape_14_" class="st1" points="501.2,233.3 494.1,233.3 494.1,229.1 513,229.1 513,233.3 505.9,233.3 505.9,254.2 
					501.1,254.2 				"/>
				<path id="Shape_15_" class="st1" d="M532,254.2l-5.8-8.3h-4.6v8.3h-4.8v-25.1h10.4c5.8,0,8,2.4,8,6.8v3.3
					c0.3,2.7-1.2,5.2-3.8,6.1l6.2,9H532z M527,233.3h-5.4v8.5h5.4c2.6,0,3.6-1,3.6-3.1v-2.5C530.4,234.1,529.5,233.3,527,233.3z"/>
				<path id="Shape_16_" class="st1" d="M555.9,249h-9.4l-1.6,5.2h-5l8-25.1h6.7l7.9,25.1h-5L555.9,249z M547.7,244.9h7.1l-3.6-11.9
					L547.7,244.9z"/>
				<polygon id="Shape_17_" class="st1" points="571,235.1 571,254.2 566.3,254.2 566.3,229.1 572.7,229.1 582.3,248.1 582.3,229.1 
					586.9,229.1 586.9,254.2 580.5,254.2 				"/>
				<path id="Shape_18_" class="st1" d="M599.4,254.6c-2.7,0-5.4-0.5-7.9-1.5l0.8-3.8c2.3,0.7,4.7,1.1,7.1,1.2c3.6,0,4-0.7,4-3.1
					s0-3-4.6-4c-6.1-1.3-7.1-2.5-7.1-7.8c0-4.6,2.1-6.8,8.5-6.8c2.5,0,4.9,0.3,7.3,0.8l-0.5,4c-2.2-0.5-4.5-0.8-6.7-0.8
					c-3.2,0-3.8,0.7-3.8,2.9c0,2.9,0,2.9,4.4,4c6.8,1.6,7.1,2.7,7.1,7.7S606.9,254.6,599.4,254.6z"/>
				<polygon id="Shape_19_" class="st1" points="613,254.2 613,229.1 628.6,229.1 628.6,233.3 618,233.3 618,239.9 627.7,239.9 
					627.7,244.1 617.7,244.1 617.7,254.2 				"/>
				<polygon id="Shape_20_" class="st1" points="632.8,229.1 648.2,229.1 648.2,233.3 637.6,233.3 637.6,239.3 647.4,239.3 
					647.4,243.5 637.6,243.5 637.6,250 648.2,250 648.2,254.2 632.8,254.2 				"/>
				<path id="Shape_21_" class="st1" d="M668.3,254.2l-5.8-8.3H658v8.3h-4.8v-25.1h10.3c5.9,0,8,2.4,8,6.8v3.3
					c0.3,2.7-1.3,5.2-3.8,6.1l6.3,9H668.3z M663.3,233.3H658v8.5h5.4c2.6,0,3.6-1,3.6-3.1v-2.5C666.9,234.1,665.9,233.3,663.3,233.3
					z"/>
			</g>
		</g>
	</g>
</g>
</svg>
