<?xml version="1.0" encoding="utf-8"?><svg viewBox="0 0 1540 800" xmlns="http://www.w3.org/2000/svg" xmlns:xlink="http://www.w3.org/1999/xlink"><style>:root>svg{display:none}:root>svg:target{display:block}</style><svg viewBox="0 0 630 800" id="cook" xmlns="http://www.w3.org/2000/svg"><path d="M515.09 56.84c-23.44-52.5-194.69-90-280.81 35.42-54.43 79.26-44.46 190.04-44.46 190.04l25.085 87.04h-7.82s15.625 105.625 123.75 160.625l151.875-3.125c100-64.375 111.685-136.395 116.525-153.685l.635-.32 11.465-93.605C626.125 67.355 515.09 56.84 515.09 56.84" fill="#744C45"/><path d="M203.645 677.66s-21.25-59.06-23.435-65c-2.19-5.935-3.75-5.31-11.25-5.31s-20.935 10.935-34.375 21.56c-13.44 10.625-16.25 28.44-16.25 28.44s7.81 20.31 11.875 28.125c4.06 7.81 18.125 57.81 21.25 65 3.125 7.185 15.31 19.06 24.06 22.81 8.75 3.75 21.995 1.335 21.995 1.335 29.175-10.665 87.645-98.42 87.645-98.42l1.195 8.84c5.845 42.665 13.21 92.885 17.205 106.41h199.37c3.02-10.23 7.975-41.45 12.735-74.52l2.025-14.255L538.1 796.5h52.735s-19.07-163.835-23.745-199.19c-4.675-35.35-31.235-51.625-48.63-56.11-17.395-4.485-89.575-27.265-89.575-27.265l-51.28 4.51s-56.09 19.95-70.675 22.755c-14.59 2.81-34.79 13.465-42.08 29.18l-61.205 107.28" fill="#FFE584"/><path d="M429.275 515.16l-1.46-12.445 1.07-13.135-50.215 2.99v10.145l-1.065 19.97-87.07 22.635s29.535 35.665 112.66 35.665c95.18 0 120.685-37.79 120.685-37.79l-94.605-28.035" fill="#F8D4B3"/><path d="M378.8 483.375h49.145l.41 23.915s-3.635 19.15-38.35 15.395c-11.56-1.25-12.775-11.03-12.775-11.03l1.57-28.28" fill="#CF957E"/><path d="M247.505 119.34c120.83-162.5 347.5-29.165 363.33 70-14.165-112.5-95.745-132.5-95.745-132.5-23.44-52.5-194.69-90-280.81 35.42-54.43 79.26-44.46 190.04-44.46 190.04s14.77 7.565 14.35 7.875c-5-50 9.08-124.77 43.335-170.835" fill="#C99B88"/><path d="M233.34 290.895s-10.1-19.595-29.095-13.655c-39.63 12.385-26.92 98.28 38.56 105.69m328.365-91.705s10.1-19.595 29.1-13.655c39.625 12.38 29.095 98.28-37.41 105.69" fill="#F7CCAA"/><path d="M569.545 272.4c.81 33.21.33 86.185-14.035 129.185-26.875 80.45-112.63 98.68-153.335 98.68-40.71 0-126.46-18.23-153.335-98.68-15.19-45.445-15.71-102.075-13.745-134.66 0 0-.815-25.085 30.74-47.585 30.28-21.585 129.235-33.72 161.98-48.75 57.21-26.25 63.645-57.5 63.645-57.5s75.625 58.75 78.085 159.31" fill="#F7CCAA"/><path d="M357.76 304.73c0 24.825-15.43 44.955-34.46 44.955-19.035 0-34.47-20.13-34.47-44.955 0-24.83 15.435-44.96 34.47-44.96 19.03 0 34.46 20.13 34.46 44.96m159.605 0c0 24.825-15.43 44.955-34.465 44.955-19.035 0-34.465-20.13-34.465-44.955 0-24.83 15.43-44.96 34.465-44.96 19.035 0 34.465 20.13 34.465 44.96" fill="#FFFFFE"/><path d="M352.39 311.215c0 16.915-9.515 30.625-21.25 30.625s-21.25-13.71-21.25-30.625c0-16.91 9.515-30.625 21.25-30.625s21.25 13.715 21.25 30.625m100.825 0c0 16.915 9.51 30.625 21.25 30.625 11.735 0 21.25-13.71 21.25-30.625 0-16.91-9.515-30.625-21.25-30.625-11.74 0-21.25 13.715-21.25 30.625" fill="#1A1919"/><path d="M403.215 472.21c-52.5 0-56.25-61.25-56.875-75 0 0 55.835 17.5 111.67 0-.625 13.75-4.375 75-56.875 75" fill="#DF7370"/><path d="M304.155 354.75c0 7.77-13.11 14.07-29.275 14.07-16.17 0-29.28-6.3-29.28-14.07 0-7.775 13.11-14.075 29.28-14.075 16.165 0 29.275 6.3 29.275 14.075m254.87 0c0 7.77-13.11 14.07-29.28 14.07s-29.275-6.3-29.275-14.07c0-7.775 13.105-14.075 29.275-14.075 16.17 0 29.28 6.3 29.28 14.075" fill="#EC9896"/><path d="M352.015 300.96a6.277 6.277 0 01-6.28 6.275 6.271 6.271 0 01-6.27-6.275 6.271 6.271 0 016.27-6.275c3.47 0 6.28 2.81 6.28 6.275m142.055 0a6.276 6.276 0 01-6.275 6.275c-3.47 0-6.28-2.81-6.28-6.275a6.277 6.277 0 016.28-6.275 6.276 6.276 0 016.275 6.275" fill="#FFFFFE"/><path d="M238.005 360.175l-2.915-33.75s-8.215-20.93-20.835-24.165c-16.25-4.17-16.575 23.795-5.415 39.58 17.08 24.17 29.165 18.335 29.165 18.335m330.835 0l2.92-33.75s8.21-20.93 20.83-24.165c16.25-4.17 16.58 23.795 5.42 39.58-17.08 24.17-29.17 18.335-29.17 18.335" fill="#CF957E"/><path d="M398.925 418.04c19.75 0 37.405 9.23 49.205 23.72 8.37-17.52 9.555-37.42 9.88-44.55-55.835 17.5-111.67 0-111.67 0 .295 6.475 1.285 23.505 7.745 39.71 11.59-11.665 27.39-18.88 44.84-18.88" fill="#C2614F"/><path d="M326.335 270.785c7.985 0 15.595 1.45 22.615 3.99-6.315-9.19-15.45-15.005-25.65-15.005-11.52 0-21.69 7.4-27.95 18.72 9.135-4.875 19.695-7.705 30.985-7.705m153.75 0c-7.985 0-15.595 1.45-22.61 3.99 6.31-9.19 15.445-15.005 25.645-15.005 11.525 0 21.69 7.4 27.95 18.72-9.135-4.875-19.7-7.705-30.985-7.705" fill="#D2E0EB"/><path d="M169.585 626.1l-18.125-41.25s6.565-26.875 5-40.94c-1.565-14.06-12-26.63-19.375-33.75-9.065-8.75-13.75-15.315-15.31-20-1.565-4.69-2.19-24.375-2.19-24.375s-10 .625-12.815 3.435c-2.81 2.815-3.435 15.625-4.375 19.69-.405 1.765-37.185 82.5-37.185 82.5l10.31 17.815 41.565 22.81L134.9 657.66s27.495-6.875 34.685-31.56" fill="#F7CCAA"/><path d="M227.58 119.335c4.99 21.99 153.215 31.7 190.77 22.135 20.955-5.34 13.36-11.6-1.065-12.045-136.505-4.16-149.855-41.8-149.855-41.8l-39.85 31.71" fill="#C99B88"/><path d="M352.59 222.835c-13.125-10-46.25-15-64.375 6.875" stroke="#1A1919" stroke-width="7" stroke-linecap="round" stroke-linejoin="round" fill="none"/><path d="M354 278.67c-14.47-30.49-75.065-30.625-66.41 41.295" stroke="#1A1919" stroke-width="8" stroke-linecap="round" stroke-linejoin="round" fill="none"/><path d="M233.34 290.895s-10.1-19.595-29.095-13.655c-39.63 12.385-26.92 98.28 38.56 105.69m-37.85-82.535s13.06-8.905 29.095 26.125m335.495-54.12c.81 33.21.33 86.185-14.035 129.185-26.875 80.45-112.63 98.68-153.335 98.68-40.71 0-126.46-18.23-153.335-98.68-15.19-45.445-15.71-102.075-13.745-134.66 0 0-.815-25.085 30.74-47.585 30.28-21.585 129.235-33.72 161.98-48.75 57.21-26.25 63.645-57.5 63.645-57.5s75.625 58.75 78.085 159.31zm-118.83-49.565c13.125-10 46.25-15 64.375 6.875" stroke="#1A1919" stroke-width="7" stroke-linecap="round" stroke-linejoin="round" fill="none"/><g stroke="#1A1919" stroke-linecap="round" stroke-linejoin="round" fill="none"><path d="M450.785 281.62c11.82-33.365 76.56-35.83 67.635 38.345" stroke-width="8"/><path d="M571.17 291.225s10.1-19.595 29.1-13.655c39.625 12.38 29.095 98.28-37.41 105.69m36.32-82.535s-13.055-8.905-29.09 26.125m-294.375-28.135l11.03 6.875m232.515 0l14.785-6.875m-131.87 79.12v-10M190.92 286.1s-11.07-114.58 43.36-193.84C320.4-33.16 491.65 4.34 515.09 56.84c0 0 110.675 13.435 95.885 225.31M134.51 656.805s-15.965-47.29-26.445-57.945m43.76-16.17s5.905 29.305 17.02 42.445m-7.125-16.245s15.08-8.23 17.79 2.395c2.365 9.295 29.06 87.025 38.945 101.06M174.06 618.48c-3.87 10.06-16.825 37.12-45.975 43.03m-1.435-25.5c-4.3 6.21-12.52 19.845-7.43 26.86 6.705 9.25 26.975 67.495 33.02 86.47 6.05 18.995 29.6 31.875 45.16 23.165 34.06-19.075 87.76-96.305 87.76-96.305m92.445-157.755s-56.09 19.95-70.675 22.755c-14.59 2.81-34.79 13.465-42.08 29.18-7.3 15.71-59.895 107.595-59.895 107.595m223.93-162.895s72.18 22.78 89.575 27.27c17.395 4.485 43.955 19.61 48.63 54.96 4.675 35.355 23.745 199.19 23.745 199.19M277.75 619.755c6.72 53.31 11 87.29 14.075 110.12m242.69-108.785s-7.715 61.25-15.145 111.315m5.245 11.93L538.1 796.5M377.605 522.685l1.065-19.97m50.215 19.97l-1.07-19.97m-24.6-30.505c-52.5 0-56.25-61.25-56.875-75 0 0 55.835 17.5 111.67 0-.625 13.75-4.375 75-56.875 75" stroke-width="7"/></g><path d="M352.39 311.215c0 16.915-9.515 30.625-21.25 30.625s-21.25-13.71-21.25-30.625c0-16.91 9.515-30.625 21.25-30.625s21.25 13.715 21.25 30.625m100.825 0c0 16.915 9.51 30.625 21.25 30.625 11.735 0 21.25-13.71 21.25-30.625 0-16.91-9.515-30.625-21.25-30.625-11.74 0-21.25 13.715-21.25 30.625" fill="#1A1919"/><path d="M352.015 300.96a6.277 6.277 0 01-6.28 6.275 6.271 6.271 0 01-6.27-6.275 6.271 6.271 0 016.27-6.275c3.47 0 6.28 2.81 6.28 6.275m142.055 0a6.276 6.276 0 01-6.275 6.275c-3.47 0-6.28-2.81-6.28-6.275a6.277 6.277 0 016.28-6.275 6.276 6.276 0 016.275 6.275" fill="#FFFFFE"/><path d="M205.21 367.465s9.375 94.375 125.205 161.875m267.715-160s-4.795 88.34-117.5 157.5" stroke="#1A1919" stroke-width="7" stroke-linecap="round" stroke-linejoin="round" fill="none"/><path d="M522.23 543.905s-26.38 37.08-118.6 37.08c-85.25 0-109.785-34.48-109.785-34.48" stroke="#1A1919" stroke-width="6" stroke-linecap="round" stroke-linejoin="round" fill="none"/><path d="M121.285 572.35s-19.55-23.3-7.175-48.155c-6.565-7-13.8-25.6-12.135-37.68 1.46-10.575 2.915-19.55 13.96-21.63 1.58-.3 4.71 1.64 4.225 4.915-1.075 7.225.185 18.865 7.65 29.12 8.065 11.095 25.525 22.785 28.495 41.745 2.935 18.715-6.72 47.62-6.72 47.62m-82.19-11.875s10.625 30.835 43.44 28.025" stroke="#1A1919" stroke-width="7" stroke-linecap="round" stroke-linejoin="round" fill="none"/><path d="M107.88 319.725c-.105 4.05-3.525 7.25-7.65 7.165-4.11-.09-7.38-3.44-7.27-7.48l2.99-121.275c.105-4.025 3.53-7.22 7.645-7.13 4.115.08 7.375 3.43 7.28 7.475l-2.995 121.245zm-31.725 8.52c-4.105.255-7.64-2.8-7.895-6.84L60.785 200.34c-.245-4.015 2.89-7.5 6.995-7.755 4.12-.25 7.66 2.82 7.905 6.835l7.475 121.06c.255 4.045-2.88 7.51-7.005 7.765zM50.61 329.95c-4.08.6-7.865-2.16-8.47-6.165l-17.89-119.96c-.605-3.995 2.225-7.725 6.3-8.31 4.08-.595 7.87 2.155 8.465 6.135L56.91 321.635c.595 3.995-2.225 7.72-6.3 8.315zm63.37-166.085c-15.54-16.355-47.605-31.415-88.285-15.3-23.09 9.155-26.27 28.955-19.655 51.59l27.82 152.21 43.485 10.92 43.71-17.805s7.155-133.38 7.38-133.395c1.455-18.535-1.425-34.5-14.455-48.22" fill="#B4B5B4"/><path d="M107.88 319.725c-.105 4.05-3.525 7.25-7.65 7.165-4.11-.09-7.38-3.44-7.27-7.48l2.99-121.275c.105-4.025 3.53-7.22 7.645-7.13 4.115.08 7.375 3.43 7.28 7.475l-2.995 121.245zm-31.725 8.52c-4.105.255-7.64-2.8-7.895-6.84L60.785 200.34c-.245-4.015 2.89-7.5 6.995-7.755 4.12-.25 7.66 2.82 7.905 6.835l7.475 121.06c.255 4.045-2.88 7.51-7.005 7.765zM50.61 329.95c-4.08.6-7.865-2.16-8.47-6.165l-17.89-119.96c-.605-3.995 2.225-7.725 6.3-8.31 4.08-.595 7.87 2.155 8.465 6.135L56.91 321.635c.595 3.995-2.225 7.72-6.3 8.315zm63.37-166.085c-15.54-16.355-47.605-31.415-88.285-15.3-23.09 9.155-26.27 28.955-19.655 51.59l27.82 152.21 43.485 10.92 43.71-17.805s7.155-133.38 7.38-133.395c1.455-18.535-1.425-34.5-14.455-48.22z" stroke="#1A1919" stroke-width="6" stroke-linecap="round" stroke-linejoin="round" fill="none"/><path d="M121.055 345.48S88.45 373.6 91.66 408.17c3.22 34.58 20.705 208.135 21.45 213.455 2.66 19.08-33.67 23.645-35.005 1.295-.325-5.365-3.105-178.945-4.175-213.655-1.06-34.705-40.07-56.9-40.07-56.9s60.79 2.455 87.195-6.885" fill="#86BF55"/><path d="M121.055 345.48S88.45 373.6 91.66 408.17c3.22 34.58 20.705 208.135 21.45 213.455 2.66 19.08-33.67 23.645-35.005 1.295-.325-5.365-3.105-178.945-4.175-213.655-1.06-34.705-40.07-56.9-40.07-56.9s60.79 2.455 87.195-6.885z" stroke="#1A1919" stroke-width="6" stroke-linecap="round" stroke-linejoin="round" fill="none"/><path d="M62.195 553.405s-7.89 4.46-7.755 10.26c.135 5.81 3.05 11.67 13.06 11.39 10.02-.275 29.265-3.38 33.3-5.315 6.64-3.18 6.2-15.03-1.125-17.02-10.055-2.735-22.07-2.785-37.48.685" fill="#F7CCAA"/><path d="M62.195 553.405s-7.89 4.46-7.755 10.26c.135 5.81 3.05 11.67 13.06 11.39 10.02-.275 29.265-3.38 33.3-5.315 6.64-3.18 6.2-15.03-1.125-17.02-10.055-2.735-22.07-2.785-37.48.685z" stroke="#1A1919" stroke-width="7" stroke-linecap="round" stroke-linejoin="round" fill="none"/><path d="M54.565 529.025s-9.245 4.25-9.645 10.755c-.4 6.505 2.31 13.34 13.54 13.975 11.235.635 33.055-1.025 37.755-2.81 7.73-2.925 8.36-16.225.345-19.155-10.99-4.005-24.425-5.195-41.995-2.765" fill="#F7CCAA"/><path d="M54.565 529.025s-9.245 4.25-9.645 10.755c-.4 6.505 2.31 13.34 13.54 13.975 11.235.635 33.055-1.025 37.755-2.81 7.73-2.925 8.36-16.225.345-19.155-10.99-4.005-24.425-5.195-41.995-2.765z" stroke="#1A1919" stroke-width="7" stroke-linecap="round" stroke-linejoin="round" fill="none"/><path d="M39.495 479.22c4.77-2.245 19.3.085 26.905 1.795 10.625 2.385 17.625 19.53 3.25 21.405s-27.91 1.89-33.465-.385c-6.875-2.815-7.315-17.815 3.31-22.815" fill="#F7CCAA"/><path d="M39.495 479.22c4.77-2.245 19.3.085 26.905 1.795 10.625 2.385 17.625 19.53 3.25 21.405s-27.91 1.89-33.465-.385c-6.875-2.815-7.315-17.815 3.31-22.815z" stroke="#1A1919" stroke-width="7" stroke-linecap="round" stroke-linejoin="round" fill="none"/><path d="M44.885 507.405s-8.555-.13-9.495 6.745c-.935 6.875 1.4 14.34 13.275 15.905 11.875 1.56 28.625 2.36 33.755.845 8.44-2.5 10.595-17.75 1.875-20.31-13.65-4.015-27.61-4.515-39.41-3.185" fill="#F7CCAA"/><path d="M44.885 507.405s-8.555-.13-9.495 6.745c-.935 6.875 1.4 14.34 13.275 15.905 11.875 1.56 28.625 2.36 33.755.845 8.44-2.5 10.595-17.75 1.875-20.31-13.65-4.015-27.61-4.515-39.41-3.185z" stroke="#1A1919" stroke-width="7" stroke-linecap="round" stroke-linejoin="round" fill="none"/><path d="M516.435 796.395l13.15-90.295c-36.25-36.25-46.425-90-46.425-90s-1.37-66.565-12.725-93.605l-21.79-8.75c14.085 52.545 12.76 99.405 12.76 99.405H352.59s-1.325-46.86 12.76-99.405l-21.79 8.75c-11.36 27.04-12.725 93.605-12.725 93.605s-12.5 56.25-48.75 92.5l14.58 87.05 219.77.745" fill="#F1A948"/><path d="M406.46 714.85c-85 0-107.5-25-107.5-23.75-2.405 2.84-14.22 14.84-16.875 17.5l14.58 87.05 219.77.745 13.15-90.295c-2.385-2.385-10.965-13.745-13.125-16.25 0 .625-25 25-110 25" fill="#D89145"/><path d="M516.435 796.395l13.15-90.295c-36.25-36.25-46.425-90-46.425-90s-1.37-66.565-12.725-93.605l-21.79-8.75c14.085 52.545 12.76 99.405 12.76 99.405H352.59s-1.325-46.86 12.76-99.405l-21.79 8.75c-11.36 27.04-12.725 93.605-12.725 93.605s-12.5 56.25-48.75 92.5l14.58 87.05" stroke="#1A1919" stroke-width="7" stroke-linecap="round" stroke-linejoin="round" fill="none"/></svg><svg viewBox="0 0 48 48" id="cream" xmlns="http://www.w3.org/2000/svg"><path fill="#F48FB1" d="M34.717 17.486c-.548 0-4.203-3.655-4.203-4.202l-1.04-5.653c0-.548.443-.99.989-.99 0 0 5.654-.36 8.455 2.441 2.802 2.801 2.441 8.454 2.441 8.454a.99.99 0 01-.99.99l-5.652-1.04z"/><path fill="#FF80AB" d="M34.413 25.744l-1.048-6.906c-.412-1.651-2.414-3.79-4.203-4.203l-6.714-1.012c-2.337-.55-4.811.551-5.773 2.749l-5.771 16.523 4.202 4.201 16.559-5.854c2.199-.963 3.436-3.3 2.748-5.498z"/><path fill="#F8BBD0" d="M33.365 17.437c-.387.388-3.189-2.414-2.802-2.802l5.554-8.354c.387-.387 2.101-.7 4.201 1.401 2.102 2.101 1.788 3.814 1.401 4.201l-8.354 5.554z"/><path fill="#9FA8DA" d="M12.304 38.497l-2.801-2.801L6 40.6 7.4 42z"/><path fill="#3F51B5" d="M8.803 34.996a.986.986 0 000 1.4l2.801 2.802a.987.987 0 001.4 0l2.102-2.102-4.202-4.201-2.101 2.101z"/><path d="M26.464 18.958c-.796.416-2.757.477-3.125-.295-.564-.768.645-1.784 1.636-2.207 1.188-.428 5.272-.637 5.272-.637s-2.398 2.704-3.783 3.139zm5.717-1.205s-.208 4.085-.637 5.272c-.423.991-1.439 2.2-2.208 1.636-.771-.368-.71-2.328-.294-3.125.435-1.385 3.139-3.783 3.139-3.783zm-1.668-4.469l4.201 4.202-1.4 1.4-4.201-4.202z" fill="#E91E63"/></svg><svg viewBox="0 0 286.559 283.246" version="1.0" id="electriÑ" xmlns="http://www.w3.org/2000/svg"><path d="M286.56 252.3c0 3.11-2.545 5.657-5.656 5.657H5.664c-3.115 0-5.66-2.55-5.66-5.66V25.887c0-3.111 2.545-5.657 5.657-5.657h275.25c3.111 0 5.656 2.545 5.656 5.657v226.41z" fill="#231F20"/><path d="M28.655 234.29a4.774 4.774 0 01-3.33-1.362 4.663 4.663 0 01-1.378-3.294V78.894c0-1.228.5-2.428 1.378-3.293a4.762 4.762 0 013.33-1.363h229.25c1.24 0 2.451.496 3.33 1.363a4.656 4.656 0 011.379 3.293v150.73a4.669 4.669 0 01-1.379 3.294 4.78 4.78 0 01-3.33 1.362H28.665l-.005.01zm229.24-4.66v-4.654 4.65z" fill="#FFF"/><path d="M61.405 105.65c-2.514 0-4.548-2.01-4.548-4.496 0-2.481 2.034-4.496 4.548-4.496h163.75c2.51 0 4.549 2.014 4.549 4.496 0 2.486-2.039 4.496-4.549 4.496H61.395h.005zM255.86 277.59c0 3.111-2.545 5.657-5.658 5.657h-19.385c-3.113 0-5.658-2.546-5.658-5.657v-8.917c0-3.112 2.545-5.657 5.658-5.657h19.38c3.113 0 5.658 2.545 5.658 5.657v8.92zm-194.455 0c0 3.111-2.546 5.657-5.657 5.657H36.359c-3.111 0-5.657-2.546-5.657-5.657v-8.917c0-3.112 2.546-5.657 5.657-5.657h19.389c3.111 0 5.657 2.545 5.657 5.657v8.92zM282.84 12.851c2.043 1.277 1.744 2.321-.664 2.321H4.376c-2.41 0-2.665-.969-.566-2.153L23.06 2.154C25.16.969 28.849 0 31.259 0h226.62c2.408 0 6.055 1.044 8.098 2.321l16.86 10.53z" fill="#231F20"/><path d="M75.731 45.899c0 8.59-7.042 15.555-15.733 15.555-8.692 0-15.735-6.965-15.735-15.555 0-8.586 7.043-15.556 15.735-15.556 8.691 0 15.733 6.97 15.733 15.556zm39.659 0c0 8.59-7.045 15.555-15.735 15.555-8.691 0-15.733-6.965-15.733-15.555 0-8.586 7.042-15.556 15.733-15.556 8.695 0 15.735 6.97 15.735 15.556zm87.25 0c0 8.59-7.045 15.555-15.734 15.555-8.693 0-15.738-6.965-15.738-15.555 0-8.586 7.045-15.556 15.738-15.556 8.69 0 15.73 6.97 15.73 15.556zm39.66 0c0 8.59-7.047 15.555-15.738 15.555-8.689 0-15.732-6.965-15.732-15.555 0-8.586 7.043-15.556 15.732-15.556 8.69 0 15.74 6.97 15.74 15.556z" fill="#FFF"/></svg><svg viewBox="0 0 209 228" id="ingredients" xmlns="http://www.w3.org/2000/svg"><path fill="#ECEFF9" d="M16 85h80v130H16z"/><path fill="#D5E3EF" d="M106 85h50v130h-50z"/><path fill="#FFF" d="M98.5 75L121 45H43.5L21 75z"/><path fill="#E2E7F0" d="M116 45L93.5 75h5L121 45z"/><path fill="#ECEFF9" d="M126 20c0-3-2.002-5-5-5H51c-3 0-5 2-5 5v15h80V20z"/><path fill="#B0C4D8" d="M111 75h40l-20-26.499z"/><path fill="#014463" d="M81 135H31c-3 0-5-2.002-5-5s2-5 5-5h50c3 0 5 2.002 5 5s-2 5-5 5m-10 20H41c-3 0-5-2.002-5-5s2-5 5-5h30c3 0 5 2.002 5 5s-2 5-5 5"/><path fill="#99B5CD" d="M131 48.501L111 75h12.998z"/><path fill="#FFF" d="M16 85h5v130h-5z"/><path fill="#D5E3EF" d="M91 97.002V205c0 2.998-2 5-5 5H38c-4.5 0-8.999 2.002-12 5h70V85.002c-3 2.996-5 7.5-5 12"/><path fill="#B0C4D9" d="M151 97.002V205c0 2.998-2.002 5-5 5h-27.998c-4.502 0-9.004 2.002-12.002 5h50V85.002c-2.998 2.996-5 7.5-5 12"/><path fill="#D5E3EF" d="M121 15v20h5V20c0-3-2.002-5-5-5"/><path fill="#014463" d="M164.999 77L136 38.501V20c0-8.501-6.499-15-15-15H51c-8.501 0-15 6.499-15 15v18.501L7.001 77C6.5 78 6 78.999 6 80v140c0 2.998 2 5 5 5h150c2.998 0 5-2.002 5-5V80c0-1.001-.498-2-1.001-3M151 75h-40l20-26.499L151 75zM46 20c0-3 2-5 5-5h70c2.998 0 5 2 5 5v15H46V20zm50 195H16V85h80v130zm2.5-140H21l22.5-30H121L98.5 75zM156 215h-50V85h50v130z"/><path fill="#C9D5E3" d="M196 157.002V125h-60v37.002c7.998 3.999 20 3.496 27.002-1.504 8.999-5.996 22.5-6.997 32.998-3.496"/><path fill="#FFF" d="M169.003 168.999c-9.004 6.001-22.002 7.5-33.003 3.999V205c0 5.498 4.502 10 10 10h40c5.503 0 10-4.502 10-10v-37.002c-7.998-4.497-20-3.999-26.997 1.001"/><path fill="#DDE1E3" d="M186 165v40c0 2.998-2.002 5-5 5h-43.501c1.499 2.998 5 5 8.501 5h40c5.498 0 10-4.502 10-10v-37.002c-2.998-1.499-6.499-2.5-10-2.998"/><path fill="#A7B0C4" d="M162.997 161.001c1.001-.503 2.002-1.001 3.003-1.499V125h-10v38.999c2.5-.498 5-1.499 6.997-2.998"/><path fill="#E2E7F0" d="M166 158.999c8.999-4.497 20.498-5.498 30-1.997V125h-30v33.999z"/><path fill="#C9D5E3" d="M186 125v30c3.501 0 7.002 1.001 10 2.002V125h-10z"/><path fill="#ECF0F9" d="M146 155c-2.998 0-5-2.002-5-5v-25h10v25c0 2.998-2.002 5-5 5"/><path fill="#014463" d="M201 115h-70c-2.998 0-5 2.002-5 5v85c0 11.001 8.999 20 20 20h40c11.001 0 20-8.999 20-20v-85c0-2.998-2.002-5-5-5m-65 10h60v32.002c-10.498-3.501-23.999-2.5-32.998 3.999-7.5 5-19.004 5.498-27.002 1.499V125zm60 80c0 5.498-4.502 10-10 10h-40c-5.498 0-10-4.502-10-10v-32.002c3.999 1.504 7.998 2.002 12.5 2.002 7.5 0 14.502-2.002 20.498-6.001 7.5-5 19.004-5.498 27.002-1.001V205z"/></svg><svg viewBox="0 0 128 128" id="mixer" xmlns="http://www.w3.org/2000/svg"><path fill="#E5E3E3" d="M11.5 54h80m-80-10h15.4M12.7 34h14.2"/><path fill="#A5A4AA" d="M23.5 17.6V4h6v5.4"/><path d="M94.5 4h-40c-22.1 0-40 17.9-40 40v10c0 5.5 4.5 10 10 10h80c5.5 0 10-4.5 10-10V24c0-11-9-20-20-20zm10 30h-45V24c0-5.5 4.5-10 10-10h25c5.5 0 10 4.5 10 10v10z" fill="#9FD9DA"/><path d="M24.5 54V44c0-22.1 17.9-40 40-40h-10c-22.1 0-40 17.9-40 40v10c0 5.5 4.5 10 10 10h10c-5.5 0-10-4.5-10-10z" opacity=".1"/><path fill="#E5E3E3" d="M31.5 64.7V104m-10-20v40m20-40v40"/><path d="M94 1.5H54c-7.8 0-15.2 2.1-21.5 5.9V4c0-1.4-1.1-2.5-2.5-2.5h-6c-1.4 0-2.5 1.1-2.5 2.5v12.7c-4 4.8-7.1 10.5-8.7 16.8v.1c-.9 3.3-1.3 6.9-1.3 10.5v10c0 6.9 5.6 12.5 12.5 12.5h7.5v15H22c-4.1 0-7.5 3.4-7.5 7.5v30c0 4.1 3.4 7.5 7.5 7.5h24c4.1 0 7.5-3.4 7.5-7.5v-30c0-4.1-3.4-7.5-7.5-7.5h-9.5v-15H104c6.9 0 12.5-5.6 12.5-12.5V24c0-12.4-10.1-22.5-22.5-22.5zM19.5 119V89c0-1.2.9-2.2 2-2.4v34.9c-1.1-.3-2-1.3-2-2.5zm29-30v30c0 1.2-.9 2.2-2 2.4V86.6c1.1.2 2 1.2 2 2.4zm-7-2.5v35h-15v-35h5V104c0 1.4 1.1 2.5 2.5 2.5s2.5-1.1 2.5-2.5V86.5h5zm-14-80v2.9c0 .4-.6 1.9-1 2.3V6.5h1zm84 47.5c0 4.1-3.4 7.5-7.5 7.5H24c-3.3 0-6-2.1-7.1-5H94c1.4 0 2.5-1.1 2.5-2.5s-1.1-2.5-2.5-2.5H16.5v-5h12.9c1.4 0 2.5-1.1 2.5-2.5s-1.1-2.5-2.5-2.5H16.6c.1-1.7.3-3.4.7-5h12.1c1.4 0 2.5-1.1 2.5-2.5s-1.1-2.5-2.5-2.5H18.7c5.1-14.5 19-25 35.3-25h40c9.6 0 17.5 7.9 17.5 17.5v30z" fill="#62355C"/><path d="M94 11.5H69c-6.9 0-12.5 5.6-12.5 12.5v10c0 1.4 1.1 2.5 2.5 2.5h45c1.4 0 2.5-1.1 2.5-2.5V24c0-6.9-5.6-12.5-12.5-12.5zm7.5 20h-40V24c0-4.1 3.4-7.5 7.5-7.5h25c4.1 0 7.5 3.4 7.5 7.5v7.5z" fill="#62355C"/></svg><svg viewBox="0 0 128 128" id="saucepan" xmlns="http://www.w3.org/2000/svg"><path d="M99 124H29c-5.5 0-10-4.5-10-10V44h90v70c0 5.5-4.5 10-10 10z" fill="#E5E3E3"/><path d="M19 114c0 5.5 4.5 10 10 10h70c5.5 0 10-4.5 10-10H19z" fill="#FDB915"/><path d="M34 114V44H19v70c0 5.5 4.5 10 10 10h15c-5.5 0-10-4.5-10-10z" opacity=".1"/><path fill="#E5E3E3" d="M62.8 114H20m-1-77v-5h90v5M4 49h15v6m90 0v-6h15"/><path d="M109 39.5c1.4 0 2.5-1.1 2.5-2.5v-5c0-1.4-1.1-2.5-2.5-2.5H77.8V22c0-1.4-1.1-2.5-2.5-2.5h-25c-1.4 0-2.5 1.1-2.5 2.5v7.5H19c-1.4 0-2.5 1.1-2.5 2.5v5c0 1.4 1.1 2.5 2.5 2.5s2.5-1.1 2.5-2.5v-2.5h85V37c0 1.4 1.1 2.5 2.5 2.5zm-56.2-10v-5h20v5h-20zm71.2 17h-12.5V44c0-1.4-1.1-2.5-2.5-2.5H19c-1.4 0-2.5 1.1-2.5 2.5v2.5H4c-1.4 0-2.5 1.1-2.5 2.5s1.1 2.5 2.5 2.5h12.5V114c0 6.9 5.6 12.5 12.5 12.5h70c6.9 0 12.5-5.6 12.5-12.5V51.5H124c1.4 0 2.5-1.1 2.5-2.5s-1.1-2.5-2.5-2.5zm-25 75H29c-3.3 0-6-2.1-7.1-5h40.8c1.4 0 2.5-1.1 2.5-2.5s-1.1-2.5-2.5-2.5H21.5v-65h85V114c0 4.1-3.4 7.5-7.5 7.5z" fill="#62355C"/></svg><svg viewBox="0 0 128 128" id="scales" xmlns="http://www.w3.org/2000/svg"><path d="M98.3 124H29c-2.9 0-5.2-2.5-5-5.4l2.1-29.7C27.6 69.2 43.9 54 63.7 54c19.7 0 36.1 15.2 37.5 34.9l2.1 29.7c.2 2.9-2.1 5.4-5 5.4z" fill="#F2E7AC"/><path d="M63.7 54C44 54 27.6 69.2 26.2 88.9L24 118.6c-.2 2.9 2.1 5.4 5 5.4h10c-2.9 0-5.2-2.5-5-5.4l2.1-29.7c1.3-18 10.1-32.2 27.5-34.6-1.6-.2 1.8-.3.1-.3z" opacity=".1"/><path d="M124 29c0 8.3-6.7 15-15 15H19c-8.3 0-15-6.7-15-15" fill="#A5A4AA"/><path d="M14 29H4c0 8.3 6.7 15 15 15h10c-8.3 0-15-6.7-15-15z" opacity=".1"/><path d="M38.7 92c0-13.8 11.2-25 25-25s25 11.2 25 25" fill="#F8F7FB"/><path d="M63.7 54c6.8 0 13.2 1.8 18.7 5h1.3V44h-40v15H45c5.5-3.2 11.9-5 18.7-5z" fill="#F2E7AC"/><path d="M43.7 44v15H45c2.7-1.6 5.7-2.8 8.7-3.6V44h-10z" opacity=".1"/><path d="M73.7 54c-1.7 0-3.4.1-5 .3 4.9.7 9.6 2.3 13.7 4.7h1.3v-3.6c-3.2-.9-6.6-1.4-10-1.4z" fill="#F2E7AC"/><path fill="#EFEB66" d="M53.7 92h10m25 0h-5m-2.4-17.7l-3.5 3.6M63.7 67v5M46 74.3l3.5 3.6M38.7 92h5M4 29h120"/><g fill="#62355C"><path d="M63.7 89.5h-10c-1.4 0-2.5 1.1-2.5 2.5s1.1 2.5 2.5 2.5h10c1.4 0 2.5-1.1 2.5-2.5s-1.2-2.5-2.5-2.5z"/><path d="M83 72.4c-5-4.9-11.8-7.9-19.3-7.9s-14.3 3-19.3 7.9c-.1 0-.1.1-.2.1 0 0-.1.1-.1.2-4.9 5-7.9 11.8-7.9 19.3 0 1.4 1.1 2.5 2.5 2.5h5c1.4 0 2.5-1.1 2.5-2.5s-1.1-2.5-2.5-2.5h-2.4c.5-4.3 2.2-8.3 4.8-11.5l1.7 1.7c.5.5 1.1.7 1.8.7s1.3-.2 1.8-.7c1-1 1-2.6 0-3.5l-1.7-1.7c3.2-2.6 7.2-4.3 11.5-4.8V72c0 1.4 1.1 2.5 2.5 2.5s2.5-1.1 2.5-2.5v-2.4c4.3.5 8.3 2.2 11.5 4.8L76 76.1c-1 1-1 2.6 0 3.5.5.5 1.1.7 1.8.7s1.3-.2 1.8-.7l1.7-1.7c2.6 3.2 4.3 7.2 4.8 11.5h-2.4c-1.4 0-2.5 1.1-2.5 2.5s1.1 2.5 2.5 2.5h5c1.4 0 2.5-1.1 2.5-2.5 0-7.5-3-14.3-7.9-19.3 0-.1-.1-.1-.1-.2-.1.1-.2.1-.2 0z"/><path d="M124 26.5H4c-1.4 0-2.5 1.1-2.5 2.5 0 9.7 7.9 17.5 17.5 17.5h22.2v12c-9.8 6.7-16.6 17.7-17.5 30.3l-2.1 29.7c-.1 2.1.6 4.1 2 5.6s3.4 2.4 5.5 2.4h69.3c2.1 0 4.1-.9 5.5-2.4 1.4-1.5 2.1-3.6 2-5.6l-2.1-29.7c-.9-12.6-7.7-23.6-17.5-30.3v-12H109c9.7 0 17.5-7.9 17.5-17.5 0-1.4-1.1-2.5-2.5-2.5zM98.7 89.1l2.1 29.7c0 .7-.2 1.4-.7 1.9-.5.5-1.1.8-1.8.8H29c-.7 0-1.4-.3-1.8-.8-.5-.5-.7-1.2-.7-1.9l2.1-29.7c1.3-18.3 16.7-32.6 35-32.6 18.4 0 33.8 14.3 35.1 32.6zM46.2 55.6v-9.1h35v9.1c-5.3-2.6-11.3-4.1-17.5-4.1-6.3 0-12.2 1.5-17.5 4.1zM109 41.5H19c-6 0-11.1-4.3-12.2-10h114.5c-1.2 5.7-6.3 10-12.3 10z"/></g></svg><svg viewBox="0 0 254.441 158.341" id="teflon" xmlns="http://www.w3.org/2000/svg"><path d="M33.367 156.493l-5.503-49.523L8.605 42.589l3.852-5.503 100.148-19.81L191.293 4.62l49.524-2.75.55 26.962 1.65 24.212 9.355 53.926-67.132 13.756L69.684 146.59l-17.608 4.952z" fill="#efa" fill-rule="evenodd" stroke="#000"/><path d="M236.14.003c-6.379-.055-17.253.574-29.992 1.813-6.325.615-13.3 1.201-15.5 1.303-4.89.224-23.144 3.037-32.568 5.02-3.81.8-9.516 1.733-12.68 2.07-3.163.336-5.999.761-6.3.947-.487.299-15.392 2.975-21.952 3.941-6.837 1.007-11.693 1.808-13.5 2.23-1.1.258-3.575.63-5.5.829-1.925.198-8.9 1.763-15.5 3.476-14.272 3.706-16.679 4.24-31 6.873-16.439 3.024-22.386 4.172-28.916 5.58-3.253.702-7.865 1.221-10.25 1.157-2.384-.065-4.336.246-4.336.691 0 .445-.56.48-1.248.078-.687-.402-.43.207.573 1.352 1.772 2.023 1.765 2.098-.25 2.738-1.14.362-2.073 1.266-2.073 2.008s-.562 1.576-1.25 1.853c-.687.278-.05.54 1.416.584 1.971.059 2.9.781 3.563 2.77.84 2.521.589 2.843-3.99 5.125L0 54.876l6.934 6.625c3.813 3.643 7.274 7.748 7.691 9.123.417 1.375 1.406 3.24 2.197 4.143.791.903 3.256 8.103 5.475 16 2.99 10.641 4.247 17.335 4.857 25.857 1.267 17.689 4.177 38.747 5.71 41.319.267.45 1.227.53 2.134.18.907-.352 3-.904 4.65-1.23 1.65-.324 4.051-1.27 5.336-2.1 2.14-1.384 4.65-2.003 15.414-3.803 2.063-.345 3.75-.99 3.75-1.434 0-.443.788-.78 1.75-.748 3.113.106 16.468-2.35 20.48-3.766 2.146-.757 7.359-1.64 11.585-1.964 4.226-.324 10.385-1.48 13.685-2.569 3.3-1.088 11.85-3.025 19-4.305 7.15-1.28 18.4-3.686 25-5.345 30.703-7.72 50.797-11.227 55.598-9.703 3.28 1.04 6.408 1.602 14.25 2.552 4.317.524 9.608 1.345 11.758 1.828 4.372.983 4.176 1.278 5.4-8.162.413-3.18 1.092-4.75 2.055-4.75 1.807 0 1.632.044 6.152-1.52 3.438-1.188 3.761-1.608 3.516-4.556-.149-1.786-1.193-6.86-2.32-11.277-1.128-4.417-2.237-9.406-2.465-11.088-.228-1.682-.655-4.184-.947-5.559-.293-1.375-1.449-8.575-2.569-16-1.12-7.425-2.263-14.85-2.539-16.5-.276-1.65-.677-12.225-.892-23.5-.216-11.275-.417-21.07-.446-21.77-.022-.538-2.23-.818-6.058-.85zm1.53 2.926c1.175-.051 1.404 3.685 1.937 22.195.317 11 .97 22.7 1.454 26 .482 3.3 1.411 10.05 2.064 15 .653 4.95 1.434 9.675 1.736 10.5.302.825.702 2.625.887 4 .185 1.375 1.437 7.675 2.783 14 1.346 6.325 2.148 11.763 1.781 12.082-2.033 1.775-40.13 9.624-58.003 11.952-4.586.597-11.111 1.93-14.5 2.962-3.39 1.032-8.955 2.372-12.37 2.977-3.414.605-10.614 2.44-16 4.074-5.385 1.635-12.716 3.246-16.29 3.58-3.576.334-10.326 1.722-15 3.084-4.676 1.362-13.9 3.334-20.5 4.383-21.29 3.384-24.873 4.012-32.5 5.69-4.126.907-12.32 3.308-18.208 5.337-7.846 2.704-10.948 3.382-11.61 2.536-1.538-1.963-3.947-17.855-5.177-34.157-.518-6.864-2.161-17.135-3.842-24-1.615-6.6-3.252-14.219-3.638-16.931-.387-2.713-2.223-9.473-4.08-15.024-1.963-5.864-3.133-11.024-2.795-12.318.401-1.535.138-2.227-.848-2.227-.786 0-2.038-1.545-2.78-3.435-1.652-4.213-1.564-4.872.698-5.184.978-.135 4.254-.733 7.28-1.328a550.133 550.133 0 0111-2.023c16.788-2.876 27.771-5.129 38.5-7.897 16.434-4.24 18.693-4.759 29-6.67 4.95-.918 9.9-1.85 11-2.07 1.1-.22 4.584-.616 7.744-.88 3.159-.266 9.009-1.19 13-2.054 3.99-.863 10.18-2.008 13.755-2.545 3.575-.536 13.025-2.285 21-3.888 16.729-3.362 37.034-5.531 60.2-6.43 5.885-.228 11.176-.709 11.757-1.068.21-.13.397-.216.565-.223z"/></svg><svg viewBox="0 0 64 64" id="thermometer" xmlns="http://www.w3.org/2000/svg"><circle cx="32" cy="32" fill="#ECEFF1" r="24"/><path d="M46.057 6.13L27.988 24.199a22.529 22.529 0 00-5.209 8.14l-2.328 6.32a12.013 12.013 0 01-2.775 4.337L5.751 54.92a2 2 0 002.829 2.828l11.925-11.925a12.004 12.004 0 014.337-2.775l6.319-2.328a22.535 22.535 0 008.141-5.208L57.37 17.444a5.001 5.001 0 000-7.071L53.127 6.13a4.998 4.998 0 00-7.07 0z" fill="#ECEFF1"/><path d="M57.37 10.373l-1.06-1.061a5.001 5.001 0 010 7.071L38.241 34.452A22.508 22.508 0 0130.1 39.66l-6.319 2.328a11.99 11.99 0 00-4.337 2.775L7.519 56.688a1.996 1.996 0 01-2.192.425c.097.231.237.448.425.635a2 2 0 002.829 0l11.925-11.925a12.004 12.004 0 014.337-2.775l6.319-2.328a22.535 22.535 0 008.141-5.208L57.37 17.444a5.001 5.001 0 000-7.071z" fill="#CFD8DC"/><path d="M6.812 55.981l11.925-11.925a11.986 11.986 0 002.775-4.337l2.328-6.32a22.529 22.529 0 015.209-8.14L47.117 7.19a5 5 0 017.071 0l-1.061-1.06a4.998 4.998 0 00-7.07 0L27.988 24.199a22.529 22.529 0 00-5.209 8.14l-2.328 6.32a12.013 12.013 0 01-2.775 4.337L5.751 54.92a2 2 0 00.636 3.254 1.996 1.996 0 01.425-2.193z" fill="#FFF"/><path d="M7.165 58.834c-.667 0-1.295-.26-1.768-.732-.473-.472-.732-1.1-.732-1.768s.26-1.296.732-1.768l11.925-11.925a11.427 11.427 0 002.66-4.156l2.328-6.32a23.186 23.186 0 015.324-8.321L45.703 5.776c1.038-1.039 2.42-1.611 3.889-1.611s2.851.572 3.889 1.611l4.243 4.243a5.507 5.507 0 010 7.778L39.655 35.866a23.191 23.191 0 01-8.321 5.324l-6.319 2.328a11.573 11.573 0 00-4.156 2.659L8.934 58.102a2.488 2.488 0 01-1.769.732zM49.592 5.166a4.47 4.47 0 00-3.182 1.318L28.342 24.552a22.201 22.201 0 00-5.094 7.959l-2.328 6.32a12.415 12.415 0 01-2.891 4.518L6.104 55.274c-.283.283-.439.66-.439 1.061s.156.777.439 1.061c.567.567 1.557.566 2.122 0L20.151 45.47a12.585 12.585 0 014.518-2.891l6.319-2.328a22.163 22.163 0 007.96-5.093L57.017 17.09a4.506 4.506 0 000-6.364l-4.243-4.243a4.47 4.47 0 00-3.182-1.317z" fill="#37474F"/><path d="M33.328 33L30.5 30.171a.999.999 0 010-1.414l7.778-7.778a1 1 0 011.414 0l2.828 2.829a.999.999 0 010 1.414L34.742 33a.999.999 0 01-1.414 0z" fill="#B2FF59"/><path d="M34.035 33.793c-.4 0-.777-.156-1.061-.439l-2.828-2.829a1.49 1.49 0 01-.439-1.061c0-.4.156-.777.439-1.061l7.778-7.778c.566-.566 1.555-.566 2.121 0l2.828 2.829c.283.283.439.66.439 1.061s-.156.777-.439 1.061l-7.778 7.778a1.485 1.485 0 01-1.06.439zm4.95-12.606a.5.5 0 00-.354.146l-7.778 7.778a.495.495 0 00-.146.354c0 .134.052.259.146.353l2.828 2.829a.513.513 0 00.707 0l7.778-7.779a.5.5 0 000-.708l-2.828-2.829a.498.498 0 00-.353-.144z" fill="#37474F"/><circle cx="44.996" cy="18.504" fill="#CFD8DC" r="2.5"/><path d="M44.996 21.504a2.978 2.978 0 01-2.122-.879 3.005 3.005 0 010-4.243c1.132-1.132 3.109-1.133 4.243 0 .566.567.879 1.32.879 2.122s-.313 1.555-.879 2.121a2.978 2.978 0 01-2.121.879zm0-5a1.99 1.99 0 00-1.415.585 2.004 2.004 0 000 2.829c.755.755 2.072.756 2.829 0 .378-.378.586-.88.586-1.414s-.208-1.037-.586-1.415a1.99 1.99 0 00-1.414-.585z" fill="#37474F"/><path d="M57.37 10.373L53.127 6.13a4.998 4.998 0 00-7.07 0l-1.414 1.414 11.313 11.314 1.414-1.414a5.001 5.001 0 000-7.071z" fill="#84FFFF"/><path d="M57.37 10.373l-1.06-1.061a5.001 5.001 0 010 7.071l-1.414 1.415 1.061 1.061 1.414-1.414a5.003 5.003 0 00-.001-7.072z" fill="#18FFFF"/><path d="M47.117 7.19a5 5 0 017.071 0l-1.061-1.06a4.998 4.998 0 00-7.07 0l-1.414 1.414 1.061 1.061 1.413-1.415z" fill="#FFF"/><path d="M55.956 19.565L43.936 7.544l1.768-1.768c1.038-1.039 2.42-1.611 3.889-1.611s2.851.572 3.889 1.611l4.243 4.243a5.507 5.507 0 010 7.778l-1.769 1.768zM45.35 7.544l10.606 10.607 1.061-1.061a4.506 4.506 0 000-6.364l-4.243-4.243c-.85-.85-1.979-1.318-3.182-1.318s-2.332.468-3.182 1.318l-1.06 1.061z" fill="#37474F"/><path d="M9.287 51.385L5.751 54.92a2 2 0 102.829 2.828l3.535-3.535-2.828-2.828z" fill="#84FFFF"/><path d="M11.055 53.152l-3.536 3.536a1.996 1.996 0 01-2.192.425c.097.231.237.448.425.635a2 2 0 002.829 0l3.535-3.535-1.061-1.061z" fill="#18FFFF"/><path d="M6.812 55.981l3.536-3.536-1.061-1.061-3.536 3.536a2 2 0 00.636 3.254 1.996 1.996 0 01.425-2.193z" fill="#FFF"/><path d="M7.166 58.834c-.668 0-1.296-.26-1.769-.732-.473-.472-.732-1.1-.732-1.768s.26-1.296.732-1.768l3.89-3.889 3.535 3.536-3.889 3.889c-.472.472-1.1.732-1.767.732zm2.121-6.742l-3.183 3.182c-.283.283-.439.66-.439 1.061s.156.777.439 1.061c.565.565 1.555.567 2.122 0l3.182-3.182-2.121-2.122z" fill="#37474F"/></svg><svg fill="none" viewBox="0 0 1503 480" id="tinkof-long" xmlns="http://www.w3.org/2000/svg"><path d="M534.112 175.3c-1.472-1.498-2.334-2.869-3.551-4.773-.635-.964-1.32-2.006-2.082-3.123a32.66 32.66 0 005.228-8.353l5.379-12.261-13.246-1.904c-2.232-.331-5.836-1.27-10.047-2.387-8.12-2.132-18.548-4.874-29.916-6.068 3.883-1.701 7.182-4.772 9.49-8.935l2.182-3.935s-.583-5.51-2.715-7.236c.812-1.701 1.447-3.58 1.877-5.636l1.802-8.784-8.475-2.895a22.824 22.824 0 00-3.932-.99c-.482-1.6-1.192-3.3-2.157-5.102l-5.023-9.216-9.06 5.306c-2.257 1.32-4.161 2.843-5.708 4.544a23.278 23.278 0 00-4.314-.38s-5.176-.584-10.885 1.497l-7.307-7.59-8.653-9.242c-8.094-8.656-19.056-11.221-30.22-6.955-4.262-4.266-10.91-7.794-21.237-7.794-3.502 0-6.572.43-8.374.66 0 0-14.209 2.588-22.202 10.18l-9.692-4.621c-6.496 10.231-17.609 13.481-17.609 13.481a24.45 24.45 0 00-3.907-8.353l.633-3.605c0-.1 2.182-12.313 8.83-22.67l11.571-18.026-16.392 1.854c.051-1.626-.025-3.555-.253-5.84l-1.472-14.014-12.839 5.815c-1.422.634-2.614 1.269-3.729 1.853l-2.539-5.408-5.886 3.047a47.348 47.348 0 00-2.385-5.002L288.522 0l-9.617 10.383a39.215 39.215 0 00-2.537 2.995l-5.835-5.813-5.888 5.84a45.613 45.613 0 00-2.537-2.997L252.39 0l-6.8 12.49a46.158 46.158 0 00-2.359 4.976l-5.861-3.047-2.539 5.408c-1.115-.584-2.308-1.219-3.729-1.878l-12.889-5.789-1.422 14.065c-.228 2.259-.305 4.164-.253 5.788l-16.417-1.853 11.596 18.025c6.673 10.332 8.804 22.545 8.804 22.645l.609 3.605c-1.852 2.59-3.172 5.383-3.907 8.378 0 0-10.504-4.493-17.534-13.506l-9.895 4.723c-11.292-7.617-18.295-10.587-30.474-10.942-10.327-.28-16.975 3.528-21.238 7.794-11.189-4.24-22.126-1.676-30.194 6.98 0 0-5.303 5.763-8.652 9.242-3.35 3.503-8.298 6.398-8.298 6.398s-7.028-1.574-14.26.075c-1.547-1.7-3.475-3.223-5.759-4.569l-9.084-5.306-4.999 9.266c-.964 1.778-1.65 3.453-2.105 5.053a22.846 22.846 0 00-3.933.99l-8.425 2.945 1.752 8.733c.43 2.108 1.04 3.986 1.877 5.687a22.19 22.19 0 00-1.268 2.971l-1.422 4.239 2.157 3.935c2.284 4.138 5.556 7.236 9.465 8.936-11.394 1.193-21.796 3.936-29.941 6.067-4.187 1.092-7.79 2.058-10.022 2.388l-13.296 1.929 3.019 6.854 2.411 5.458a34.882 34.882 0 005.252 8.302c-.787 1.118-4.136 6.372-5.634 7.871L0 182.155l6.445 7.108c.811.863 8.043 8.455 19.74 8.48 3.197 0 6.369-.559 9.515-1.676 3.121 4.874 6.825 9.825 10.201 12.262-6.217 7.312-13.296 13.658-23.37 18.457l-8.423 4.011 3.627 9.622c2.361 5.814 6.953 12.186 15.833 14.624-1.902 5.686-2.815 11.069-3.627 15.866-1.904 11.4-2.716 16.121-12.738 19.649l-9.008 3.15 2.589 9.19c2.08 7.489 5.201 12.44 8.576 15.715l-5.989 6.6s14.21 10.662 28.14 11.958c.202.025 12.078.787 17.406-6.017 2.132 7.718 5.506 14.826 8.576 21.275 6.293 13.252 9.642 21.096 5.43 28.256l-9.514 16.147 18.7-.787c8.17-.331 15.757-.839 22.328-2.463 0 .355-.025.685-.05 1.015l-1.523 13.861 16.391-3.452a25.595 25.595 0 004.821-1.981c10.15 11.883 27.404 21.148 50.645 21.148h1.345l-26.718 10.967 19.462 10.13c12.814 6.677 27.048 12.262 43.287 17.01l-2.259 7.794 9.77 2.869c5.633 1.65 26.007 7.057 50.823 7.057 24.815 0 45.165-5.407 50.824-7.057l9.742-2.869-2.258-7.768c16.264-4.748 30.5-10.334 43.313-17.01l19.462-10.129-26.744-10.968h1.344c23.243 0 40.471-9.266 50.621-21.149a25.397 25.397 0 004.821 1.981l16.39 3.452-1.497-13.835c-.025-.331-.05-.686-.05-1.041 6.547 1.624 14.158 2.107 22.303 2.463l18.7.787-9.463-16.122c-4.238-7.159-.864-15.004 5.404-28.256 3.071-6.448 6.445-13.557 8.577-21.275 3.602 2.742 7.485 4.393 11.342 5.256 0 0 2.994.889 5.861.964 8.272.254 12.406-2.106 18.091-5.686l10.327-6.5-6.04-6.6c3.376-3.25 6.496-8.201 8.577-15.665l2.614-9.215-9.034-3.148c-10.047-3.529-10.834-8.251-12.737-19.65-.812-4.798-1.699-10.206-3.628-15.867 8.88-2.463 13.448-8.835 15.807-14.623l3.604-9.648-8.425-4.011c-10.074-4.797-17.152-11.145-23.395-18.456 3.401-2.438 7.105-7.389 10.252-12.263a28.672 28.672 0 009.515 1.676c11.697 0 18.954-7.591 19.741-8.454l6.445-7.109-6.725-6.905z" fill="#fff"/><path fill-rule="evenodd" clip-rule="evenodd" d="M187.97 300.41v-77.432c0-7.211-2.081-14.421-4.568-21.047h60.06c5.506 7.566 15.503 12.644 26.972 12.644 11.418 0 21.416-5.078 26.947-12.644h60.059c-2.537 6.652-4.593 13.836-4.593 21.047v77.432H187.97zm82.439 105.815c-8.398-8.353-14.387-9.267-37.02-9.267-27.049 0-45.419-15.868-45.419-41.229v-50.775h164.852v50.775c0 25.361-18.345 41.229-45.444 41.229-22.608-.026-28.596.914-36.969 9.267z" fill="#FFDD2D"/><path d="M197.533 415.794v15.461l-13.422 5.408c11.342 5.154 25.424 10.282 41.968 14.064l7.611-24.803c-16.238-3.325-27.555-6.803-36.157-10.13zm72.877 20.947c-15.858 0-29.204-1.651-34.533-2.869l-8.044 26.022c12.636 3.097 27.429 5.382 42.577 5.382 15.098 0 29.891-2.26 42.577-5.382l-8.068-26.022c-5.328 1.244-18.624 2.869-34.509 2.869zm72.866-20.947c-8.626 3.327-19.917 6.78-36.157 10.155l7.638 24.805c16.569-3.784 30.6-8.912 41.942-14.066l-13.398-5.406v-15.488h-.025zM169.42 166.361c21.009-11.348 72.365-36.329 37.552-63.265-4.744-3.657-9.972-6.957-14.361-11.044-5.43 4.19 2.03 14.598 3.907 18.406 0 0-11.595 1.168-14.361 1.168-17.913-.077-36.689-10.688-27.175-31.024-7.13 1.473-7.992 8.327-10.174 14.191-4.568-3.096-12.509-9.748-18.625-8.809 4.974 15.918 25.907 30.262 42.146 33.512-16.416 8.936-46.865 15.588-62.876-3.656-11.24 21.757 4.415 30.846 19.766 42.245-58.435 26.682-49.808 56.614-88.147 80.173 4.973 2.336 27.15-2.361 29.129-2.64-8.323 10.79-12.206 15.36-14.64 20.615-2.335 4.924-3.376 10.485-5.684 22.468-1.802 9.47-5.1 18.913-16.62 25.185 4.516 8.174 14.538 1.776 18.725.685-.558.862-1.98 10.713-5.734 15.46 19.69-1.269 10.58-42.803 30.27-32.8 5.557 2.793 7.232 9.343 4.67 14.699-12.941 26.707 16.467 50.241 14.868 73.65 7.23-.052 14.716-.255 19.436-10.029 2.462 4.875 6.267 11.73 8.399 18.33l5.887-10.028c3.627 16.603 19.105 31.938 40.014 33.308-9.972-15.791 1.979-37.344-22.253-60.269 3.019-2.438 9.997-7.134 12.483-10.334-29.737 3.505-60.77-20.03-46.686-31.2 9.21-7.287 13.244 7.844 27.454 5.305l-5.558-4.798c1.954-1.929 4.187-4.442 6.496-6.346-6.039-.737-12.636-4.596-12.636-4.596l3.603-5.965c-34.837-.052-35.726-26.709-21.566-27.775 6.646-.483 15.248 11.78 36.689 9.216-2.741-3.301-3.831-8.302-5.126-11.983 5.176-.482 11.267-.431 16.163-2.817-10.479-1.346-13.118-4.876-21.846-11.476l10.124-3.707c-14.691-7.337-13.803-20.107-14.26-33.409 7.688 4.417 16.722 11.271 26.364 8.098 2.282-.761 3.754-1.828 3.805-4.214-13.752-5.51-22.582-26.708 10.378-44.53zm-25.094 2.082c-18.397 19.674-10.429 31.455-6.724 35.085-6.852-1.472-17.077-10.205-14.743-18.659-2.182 2.614-4.414 5.458-6.698 8.377a260.638 260.638 0 00-12.281 17.848c-5.583 16.604 4.644 33.74 22.049 41.33-19.334-2.843-28.012-20.055-27.96-31.023-9.237 17.466-13.651 33.411-13.246 46.789.178 4.976.61 9.622 1.27 14.014 4.439 8.428 11.569 11.526 24.281 13.074-11.545.737-17.66.204-22.684-5.076 7.865 33.841 44.657 63.138 59.628 88.221-14.996-19.498-46.027-48.542-56.887-69.536-.837 7.59 1.192 27.037 10.63 38.995-13.903-13.684-14.995-34.401-14.081-46.536-3.527-8.733-5.76-18.481-6.065-29.577-.278-10.205.432-19.065 1.98-27.011-8.78 12.49-21.467 17.314-27.708 36.329 1.217-24.524 19.512-24.906 33.213-54.685 5.303-13.023 13.018-24.271 21.543-37.014-10.834 3.553-18.954 6.093-31.488 19.827 8.905-21.071 60.363-44.758 83.935-67.684-7.08 1.499-35.979 2.235-47.981-5.788 21.744 5.89 70.132-.837 88.401-13.327-12.611 18.151-40.065 19.192-73.482 55.294 4.263-3.402 9.947-6.83 15.098-9.267zm350.587 110.26c-2.309-11.983-3.324-17.542-5.658-22.468-2.41-5.256-6.318-9.825-14.666-20.614 1.979.278 24.206 4.976 29.154 2.64-38.339-23.561-29.712-53.492-88.174-80.174 15.352-11.399 31.008-20.487 19.767-42.27-16.011 19.268-46.459 12.618-62.876 3.655 16.265-3.25 37.173-17.568 42.146-33.511-6.14-.94-14.083 5.713-18.649 8.785-2.184-5.865-3.021-12.72-10.15-14.218 9.515 20.361-9.287 30.973-27.226 31.05-2.74 0-14.311-1.169-14.311-1.169 1.852-3.807 9.312-14.217 3.857-18.406-4.389 4.113-9.566 7.388-14.336 11.044-34.838 26.936 16.569 51.942 37.578 63.266 32.91 17.821 24.156 39.02 10.378 44.453.051 2.387 1.522 3.452 3.831 4.214 9.592 3.199 18.675-3.655 26.312-8.099-.43 13.304.483 26.099-14.208 33.411l10.099 3.706c-8.73 6.601-11.343 10.129-21.821 11.475 4.871 2.386 11.012 2.336 16.162 2.818-1.319 3.682-2.461 8.683-5.15 11.983 21.466 2.538 30.092-9.698 36.689-9.215 14.108 1.066 13.271 27.723-21.593 27.773l3.603 5.967s-6.597 3.858-12.661 4.595c2.309 1.878 4.567 4.417 6.521 6.347l-5.556 4.798c14.183 2.539 18.242-12.592 27.454-5.306 14.081 11.17-16.925 34.704-46.688 31.201 2.512 3.198 9.489 7.921 12.509 10.358-24.256 22.899-12.332 44.479-22.252 60.295 20.857-1.396 36.335-16.73 40.014-33.334l5.886 10.029c2.106-6.601 5.963-13.456 8.374-18.33 4.694 9.774 12.229 9.977 19.487 10.027-1.65-23.406 27.732-46.941 14.843-73.648-2.589-5.332-.914-11.882 4.644-14.7 19.739-10.002 10.58 31.532 30.296 32.801-3.781-4.748-5.176-14.598-5.709-15.46 4.161 1.091 14.158 7.489 18.675-.712-11.444-6.143-14.743-15.588-16.595-25.057zm-36.867-33.969c1.547 7.972 2.334 16.807 1.978 27.013-.33 11.094-2.537 20.842-6.064 29.576.888 12.135-.177 32.851-14.083 46.535 9.414-11.983 11.469-31.403 10.632-38.995-10.91 20.996-41.916 50.039-56.938 69.536 14.995-25.083 51.787-54.405 59.679-88.221-5.075 5.256-11.139 5.813-22.71 5.077 12.688-1.548 19.817-4.645 24.257-13.073.66-4.367 1.092-9.038 1.27-14.014.43-13.38-4.009-29.324-13.246-46.79.077 10.968-8.602 28.18-27.962 31.023 17.355-7.615 27.607-24.752 22.051-41.331a230.965 230.965 0 00-12.281-17.846c-2.284-2.92-4.517-5.763-6.725-8.378 2.334 8.453-7.891 17.186-14.742 18.66 3.73-3.632 11.672-15.411-6.698-35.087 5.151 2.438 10.835 5.865 15.122 9.217-33.416-36.101-60.845-37.118-73.507-55.294 18.295 12.49 66.683 19.243 88.402 13.328-11.977 8.023-40.903 7.286-47.981 5.788 23.571 22.924 75.08 46.612 83.96 67.683-12.534-13.734-20.679-16.274-31.463-19.828 8.55 12.77 16.213 23.991 21.516 37.015 13.728 29.78 32.048 30.135 33.24 54.685-6.241-18.965-18.904-23.788-27.707-36.279z" fill="#fff"/><path d="M297.355 201.904c-5.506 7.566-15.528 12.643-26.922 12.643-2.664 0-5.226-.305-7.662-.762.685 3.122 2.284 6.347 5.608 9.115-1.345 9.063 2.562 17.542 12.281 19.75 1.04 4.621 3.881 8.099 8.703 9.749l-6.776 7.819c-2.612 2.996-6.013 3.962-8.753 3.605l-30.245-3.427c1.319-3.35-2.182-7.235-11.774-5.584l11.876-33.258-7.233-15.411-13.726 11.729-1.015 34.882-5.913-2.868c-7.612-3.3-9.869 10.587-2.613 10.637l2.918.025c-.203 1.423.255 2.997 1.395 3.504-1.37.558-1.775 3.123-.075 4.037-1.725.837-1.98 3.478-.585 4.62-1.497 2.565-1.775 8.125 3.528 9.521 4.364 1.142 7.104-3.529 7.993-6.246l47.067 14.573c6.623 1.904 11.393.837 16.925-4.012l12.281-10.739c-1.549 7.032.964 13.354 6.318 15.462 0 0-.838 6.448-.508 9.114l16.468.025h25.931v-77.432c0-7.21 2.056-14.419 4.593-21.071h-60.085zm-70.486 130.292l.914 1.142c1.268 1.574 2.029 1.193 3.476.355l2.13-1.142c1.346-1.016 10.1 2.335 10.582-4.951.964 5.433-5.506 16.882-1.599 23.281l5.253 8.606-17.153.253c-1.877 0-2.867 1.143-3.374 2.158l-4.491 9.318c-1.167 2.462-1.092 5.001.38 6.702l3.044 3.427s2.487-2.106 3.299-4.874l-1.344-1.396c-1.117-1.067-1.117-2.083-.508-3.402l2.766-5.738c1.065-2.259 2.157-2.741 4.592-2.158l13.88 2.997c1.015.253 2.665.735 3.653-.966 1.701-3.021 4.695-3.224 7.739-2.741 7.613 1.142 25.196 2.97 31.464-4.367 7.358 9.773 21.745 9.773 20.806 14.902l-3.044 16.806h4.566l2.792-17.187c.304-2.005 1.547-4.748-.61-6.295-.887-.686-1.294-1.041-3.299-4.494-2.612-4.571-2.486-11.425-4.998-17.341 2.386-2.817 4.973-3.782 7.232-3.248 5.074 1.244 6.445 10.002 13.651 17.137-.812-3.175-1.167-6.652-2.867-9.674 0 0 4.999 3.884 6.292 8.43.812 2.843 1.649 4.924 4.213 6.245 1.699.609 3.729-.204 5.759-2.641 0 0-4.745-6.754-8.221-11.17-4.771-6.068-11.139-12.161-19.817-11.451-2.741.229-5.378 1.473-7.892 2.972-9.87-5.535-17.532.33-20.577.33l-18.472-1.092c-3.628-.229-6.495-4.444-6.495-4.444-.457-15.638-13.017-21.858-17.355-21.858 0 0 .405-2.818-.737-3.809l-3.857 4.851-10.707-3.911 8.398 6.881-9.109 10.586c-.938 1.04-.811 2.412-.355 2.971z" fill="#fff"/><path d="M214.767 354.153c-2.589 2.006-2.461 4.798-.913 7.921l1.548 2.895 4.034-3.073-.913-1.98c-.66-1.397-.635-2.818.507-3.706l5.785-4.366c1.624-1.194 2.131-1.321 3.858-1.067l12.204 2.564s-1.852-2.691-2.462-5.433l-11.494-1.523c-1.624-.204-2.614.483-4.034 1.574l-8.12 6.194zm78.042 36.256h4.618l7.41-18.254c.253-.635.608-.914.887-1.447-3.324-1.319-5.278-2.234-8.043-3.834 1.852 2.488 3.298 3.555 2.537 5.865l-7.409 17.67zm3.934-246.895l8.552-49.175-32.402 11.018v50.699l23.85-12.542zm-18.37-33.181l21.492-7.922s-4.187 3.403-9.185 6.83c-4.441 3.072-12.307 6.347-12.307 6.347v-5.255zm0 11.907l19.665-7.032s-2.36 2.488-7.333 5.915c-4.44 3.046-12.306 6.321-12.306 6.321v-5.204h-.026zm0 12.643l17.305-6.652s0 2.108-4.998 5.509c-4.441 3.072-12.307 6.347-12.307 6.347v-5.204z" fill="#fff"/><path d="M239.099 187.004l.71 1.142h6.673l.077 1.167c.076 1.118.33 2.26.71 3.427 1.04 3.174 3.095 6.5 6.394 9.19 3.831 3.098 9.364 5.333 16.722 5.333 15.96 0 23.166-10.334 23.851-17.95l.05-1.167h6.699l.711-1.142c6.292-9.852 13.98-20.793 22.911-22.367l-24.358-14.141-29.864 16.249-29.891-16.249-24.333 14.141c8.932 1.548 16.62 12.515 22.938 22.367z" fill="#fff"/><path d="M267.873 156.056v-50.699l-32.352-11.018 8.5 49.175 23.852 12.542zm-5.456-15.918s-7.865-3.301-12.306-6.347c-4.999-3.402-4.999-5.535-4.999-5.535l17.33 6.652v5.23h-.025zm0-29.805v5.255s-7.865-3.275-12.306-6.347c-5.024-3.427-9.237-6.83-9.237-6.83l21.543 7.922zm0 11.907v5.229s-7.865-3.275-12.306-6.321c-5.024-3.427-7.358-5.915-7.358-5.915l19.664 7.007zm7.99-49.58c-18.497 0-32.376 6.067-35.396 13.175l35.396 13.989 35.345-13.989c-2.994-7.108-16.848-13.175-35.345-13.175zm-.002-20.31c13.626 0 27.277 4.138 36.462 9.495 1.497-4.95 3.096-8.48 5.278-12.517l-8.373 1.296-6.775-14.471-12.661 6.727-13.931-13.784-13.954 13.784-12.636-6.727-6.826 14.471-8.374-1.296c2.182 4.037 3.756 7.566 5.303 12.517 9.212-5.357 22.811-9.495 36.487-9.495zm230.902 111.449c4.566-.584 8.245-2.108 12.736-5.46-9.667-2.563-29.915-9.9-47.194-6.6-5.71.762-8.881 3.072-6.852 4.392 9.287 6.169 20.756 20.463 29.104 37.142 7.333-9.114 4.263-21.072 2.716-24.499 14.614 8.81 18.445 13.101 25.22 11.425-3.628-5.56-8.727-10.562-15.73-16.4zM51.709 193.251c8.348-16.68 19.817-30.973 29.129-37.142 2.08-1.321-1.142-3.631-6.8-4.393-17.305-3.275-37.604 4.037-47.271 6.602 4.541 3.35 8.145 4.874 12.763 5.458-7.028 5.865-12.129 10.84-15.758 16.4 6.826 1.676 10.632-2.615 25.222-11.424-1.497 3.453-4.593 15.385 2.715 24.499z" fill="#fff"/><path fill-rule="evenodd" clip-rule="evenodd" d="M153.028 348.064c6.724-5.333 12.307-7.998 12.027-20.921-10.099 5.179-38.746 4.901-50.722-11.601-3.374-4.696.229-7.059 3.502-3.352 8.195 9.293 23.369 5.078 28.901 2.413-.889-3.2-3.35-7.364-5.406-9.14 2.082-2.031 7.943-5.078 9.135-10.307-3.121-1.701-15.275-2.92-15.275-2.92 1.954-1.879 4.39-4.494 2.918-11.474-12.408 3.807-27.759-1.372-31.235-5.967-3.425-4.519.077-8.759 2.969-5.763 6.191 6.499 36.691 13.938 48.033 2.64-4.213-1.167-8.855-4.924-9.693-7.26 10.505-1.067 18.878-7.261 19.563-14.98-5.811 0-16.773-.43-20.527-3.223 5.024-1.854 8.22-3.682 9.819-9.318-19.208-1.168-20.73-15.435-20.831-17.796 12.509 7.21 34.533 4.01 28.824-13.761-10.404-.558-20.883-17.389 7.713-32.85 26.008-14.091 55.568-29.272 52.955-54.279-1.7-15.994-28.012-26.912-31.362-35.009-10.986 5.23-13.195 11.297-8.247 21.477 0 0-24.485 2.438-26.413-12.643-.837-6.752 3.679-13.075 8.526-17.923-2.741 0-21.188-4.951-26.744 10.079-10.327-7.058-19.183-6.805-26.135.66 11.114 6.6 17.989 29.246 36.361 35.923-13.068 7.083-34.204 4.113-46.536-17.67-11.672 17.594-18.395 35.01 6.648 53.618-45.546 20.743-45.216 60.397-84.85 79.285 4.01 10.791 12.484 10.791 23.294 9.115-17.128 22.265-2.538 45.57-29.662 55.09 2.537 9.09 7.638 16.35 17.635 13.684-2.842 4.444-4.72 4.342-9.135 9.216 14.818 9.342 32.403 2.59 36.386-27.392.71-5.358 8.069-2.006 5.532 3.248-16.9 34.96 25.83 61.261 10.707 86.902 13.32-.558 23.495-1.599 29.028-6.093 2.714 5.383 4.364 10.714 3.754 15.969 7.359-1.498 10.048-5.839 10.555-10.866 4.821 14.09 22.076 29.145 49.682 29.145-14.64-20.919-1.014-42.117-21.694-65.956zm-27.251 25.768l-5.886 10.027c-2.107-6.6-5.938-13.455-8.4-18.329-4.744 9.773-12.23 9.977-19.436 10.028 1.599-23.407-27.81-46.941-14.869-73.65 2.59-5.331.888-11.881-4.668-14.699-19.715-10.002-10.582 31.531-30.271 32.8 3.756-4.746 5.176-14.597 5.735-15.46-4.188 1.091-14.21 7.489-18.726-.685 11.519-6.271 14.818-15.715 16.62-25.185 2.284-11.983 3.349-17.542 5.658-22.468 2.436-5.255 6.318-9.825 14.64-20.614-1.979.278-24.13 4.976-29.128 2.64 38.339-23.56 29.711-53.492 88.147-80.174-15.326-11.399-30.981-20.487-19.765-42.244 16.01 19.243 46.433 12.592 62.874 3.655-16.238-3.25-37.171-17.567-42.12-33.512 6.116-.939 14.058 5.713 18.599 8.81 2.208-5.89 3.071-12.72 10.2-14.191-9.515 20.335 9.262 30.946 27.176 31.023 2.79 0 14.361-1.168 14.361-1.168-1.852-3.808-9.337-14.217-3.908-18.406 4.391 4.114 9.617 7.389 14.363 11.044 34.837 26.961-16.545 51.942-37.554 63.29-32.96 17.823-24.13 39.047-10.377 44.455-.052 2.386-1.522 3.452-3.806 4.214-9.642 3.198-18.675-3.682-26.363-8.098.456 13.302-.457 26.097 14.259 33.409l-10.124 3.682c8.704 6.625 11.368 10.129 21.847 11.5-4.897 2.386-10.961 2.336-16.164 2.818 1.32 3.681 2.386 8.682 5.126 11.983-21.441 2.539-30.042-9.699-36.69-9.217-14.158 1.067-13.27 27.724 21.567 27.775l-3.602 5.966s6.596 3.859 12.661 4.594c-2.309 1.88-4.541 4.419-6.495 6.348l5.556 4.798c-14.234 2.539-18.243-12.592-27.479-5.306-14.082 11.171 16.949 34.705 46.688 31.201-2.487 3.2-9.49 7.921-12.484 10.359 24.231 22.899 12.28 44.478 22.251 60.295-20.907-1.371-36.384-16.731-40.013-33.308z" fill="#000"/><path fill-rule="evenodd" clip-rule="evenodd" d="M87.543 290.202c5.05 5.255 11.139 5.813 22.684 5.078-12.713-1.549-19.843-4.646-24.282-13.075a129.541 129.541 0 01-1.244-14.014c-.406-13.379 4.009-29.323 13.245-46.79-.05 10.943 8.602 28.155 27.962 31.023-17.407-7.615-27.632-24.751-22.05-41.33a254.395 254.395 0 0112.281-17.847c2.284-2.92 4.516-5.763 6.698-8.378-2.334 8.454 7.892 17.187 14.743 18.66-3.705-3.631-11.672-15.385 6.723-35.06-5.124 2.437-10.809 5.864-15.121 9.216 33.39-36.102 60.87-37.116 73.481-55.294-18.269 12.49-66.656 19.243-88.402 13.327 12.002 8.023 40.903 7.287 47.982 5.79-23.547 22.925-75.004 46.611-83.936 67.682 12.534-13.759 20.654-16.273 31.514-19.802-8.551 12.77-16.239 23.991-21.542 37.014-13.701 29.755-32.02 30.136-33.214 54.66 6.242-19.015 18.928-23.839 27.708-36.329-1.549 7.971-2.284 16.806-2.004 27.013.304 11.094 2.537 20.842 6.063 29.575-.887 12.135.178 32.852 14.083 46.536-9.44-11.958-11.469-31.405-10.632-38.995 10.885 20.994 41.918 50.038 56.914 69.536-14.996-25.058-51.763-54.355-59.654-88.196zM431.02 189.39c10.784 3.554 18.929 6.068 31.463 19.827-8.88-21.071-60.414-44.758-83.96-67.682 7.078 1.472 36.005 2.233 47.981-5.79-21.721 5.916-70.107-.837-88.401-13.328 12.636 18.178 40.09 19.193 73.506 55.295-4.287-3.352-9.971-6.78-15.122-9.216 18.37 19.675 10.428 31.455 6.699 35.085 6.85-1.473 17.075-10.206 14.741-18.66 2.208 2.615 4.441 5.458 6.725 8.378a252.085 252.085 0 0112.281 17.847c5.581 16.604-4.67 33.741-22.025 41.332 19.361-2.845 28.038-20.082 27.936-31.023 9.262 17.466 13.676 33.409 13.271 46.788-.178 4.976-.609 9.622-1.269 14.014-4.466 8.429-11.596 11.526-24.283 13.075 11.571.71 17.635.177 22.71-5.078-7.892 33.841-44.658 63.138-59.679 88.221 15.021-19.497 46.003-48.54 56.938-69.536.838 7.591-1.192 27.038-10.632 38.995 13.906-13.683 14.971-34.399 14.083-46.534 3.502-8.734 5.709-18.483 6.064-29.577.33-10.207-.456-19.066-1.979-27.013 8.805 12.492 21.466 17.315 27.734 36.33-1.193-24.55-19.512-24.93-33.24-54.684-5.329-13.1-12.991-24.321-21.542-37.066z" fill="#000"/><path fill-rule="evenodd" clip-rule="evenodd" d="M490.602 245.065c10.783 1.7 19.258 1.7 23.292-9.089-39.634-18.888-39.304-58.518-84.848-79.286 25.043-18.583 18.294-36.024 6.647-53.618-12.306 21.783-33.519 24.753-46.535 17.671 18.319-6.678 25.247-29.324 36.361-35.924-6.953-7.464-15.833-7.717-26.161-.66-5.582-15.03-24.004-10.08-26.768-10.08 4.821 4.824 9.387 11.147 8.525 17.924-1.904 15.081-26.389 12.643-26.389 12.643 4.948-10.18 2.741-16.248-8.246-21.478-3.349 8.099-29.636 19.016-31.363 35.01-2.637 25.007 26.973 40.188 52.956 54.279 28.595 15.461 18.116 32.318 7.739 32.85-5.761 17.771 16.264 20.971 28.799 13.761-.051 2.361-1.65 16.628-20.857 17.797 1.623 5.635 4.796 7.464 9.819 9.317-3.755 2.818-14.717 3.223-20.501 3.223.685 7.719 9.083 13.939 19.587 14.98-.837 2.336-5.506 6.093-9.692 7.26 11.342 11.298 41.84 3.859 48.033-2.64 2.841-2.996 6.316 1.244 2.917 5.763-3.502 4.621-18.827 9.799-31.261 5.967-1.42 6.955.965 9.595 2.919 11.474 0 0-12.154 1.219-15.3 2.92 1.192 5.229 7.078 8.251 9.134 10.307-2.081 1.776-4.543 5.94-5.43 9.14 5.583 2.691 20.756 6.88 28.901-2.413 3.299-3.68 6.901-1.344 3.526 3.352-11.976 16.502-40.623 16.755-50.747 11.602-.279 12.922 5.303 15.587 12.027 20.919-20.704 23.838-7.028 45.038-21.669 65.905 27.582 0 44.835-15.054 49.656-29.144.559 5.002 3.198 9.369 10.531 10.866-.559-5.256 1.065-10.587 3.754-15.968 5.583 4.494 15.758 5.534 29.079 6.093-15.098-25.642 27.632-51.944 10.682-86.902-2.512-5.256 4.846-8.606 5.556-3.25 3.959 29.984 21.568 36.736 36.412 27.394-4.466-4.875-6.319-4.774-9.16-9.216 9.997 2.666 15.072-4.596 17.634-13.684-26.997-9.495-12.406-32.801-29.559-55.065zm2.283 59.508c.532.863 1.929 10.713 5.71 15.461-19.716-1.269-10.582-42.804-30.296-32.801-5.558 2.793-7.207 9.343-4.644 14.7 12.889 26.707-16.493 50.241-14.843 73.648-7.258-.05-14.793-.253-19.488-10.027-2.41 4.874-6.292 11.728-8.398 18.33l-5.886-10.029c-3.654 16.604-19.132 31.937-39.99 33.334 9.921-15.791-2.005-37.371 22.253-60.295-3.045-2.437-10.022-7.16-12.534-10.358 29.763 3.503 60.769-20.031 46.686-31.202-9.21-7.285-13.269 7.845-27.454 5.306l5.558-4.797c-1.954-1.931-4.213-4.444-6.521-6.348 6.064-.736 12.661-4.595 12.661-4.595l-3.603-5.966c34.837-.05 35.675-26.707 21.593-27.774-6.623-.482-15.25 11.779-36.691 9.216 2.716-3.3 3.831-8.301 5.151-11.983-5.176-.482-11.291-.432-16.163-2.818 10.48-1.346 13.119-4.874 21.821-11.476l-10.097-3.705c14.69-7.337 13.751-20.107 14.208-33.411-7.663 4.418-16.747 11.273-26.312 8.099-2.284-.762-3.781-1.828-3.831-4.214 13.778-5.434 22.556-26.632-10.378-44.454-20.985-11.348-72.391-36.329-37.578-63.265 4.769-3.657 9.946-6.957 14.31-11.044 5.456 4.19-2.004 14.598-3.856 18.406 0 0 11.569 1.167 14.311 1.167 17.938-.075 36.74-10.687 27.225-31.048 7.13 1.473 7.967 8.353 10.149 14.216 4.567-3.096 12.484-9.723 18.65-8.783-4.999 15.917-25.881 30.261-42.146 33.511 16.418 8.936 46.865 15.588 62.876-3.655 11.215 21.756-4.415 30.846-19.766 42.244 58.46 26.657 49.808 56.614 88.172 80.173-4.947 2.336-27.175-2.36-29.154-2.64 8.374 10.791 12.281 15.36 14.666 20.616 2.334 4.924 3.35 10.459 5.658 22.467 1.827 9.47 5.151 18.913 16.62 25.185-4.491 8.099-14.488 1.701-18.649.609zm-278.373 65.524l8.348-7.084-1.268-2.538c-.914-1.828-.432-1.93.532-2.64l4.415-3.275c1.015-.839 2.081-.737 3.324-.432l13.22 3.097h-13.956c-3.222.203-4.161 1.447-5.328 3.834l-.964 1.954-3.577 7.363c-1.219 2.539-1.854 5.915 1.344 9.724l2.537 3.02-5.125 10.384h4.313l3.552-7.211c.28-.253 5.532-5.051 6.648-10.002-1.522-1.244-2.587-2.107-1.75-3.833l1.598-3.452c.534-1.144.711-1.601 2.233-1.321l13.854 2.995c1.725.482 4.263 1.244 6.115-1.548 1.903-2.894 2.157-2.589 6.571-2.159l7.08.762c9.667.914 19.335-1.497 23.089-4.492 1.32 2.995 3.934 5.306 5.151 7.641.457.863-.303 2.082-.887 3.605l-7.943 18.99h12.256l6.928-17.315c.633-1.65 1.572-2.971 2.282-3.63l-3.983 20.97h11.9l3.147-20.741c.685-4.621.278-6.093-1.929-7.998-4.948-4.189-4.846-12.973-6.445-18.304a4.643 4.643 0 012.994-.584c2.589.229 4.543 6.855 7.587 11.119 6.09 8.556 14.386 18.001 23.902 4.698a27.923 27.923 0 00-3.07-4.214l-2.665-3.123c-1.547-1.727-8.905-10.156-11.976-13.177-6.978-7.032-17.685-5.965-21.948-2.538-9.668-5.078-19.867.253-22.277.05l-16.645-1.016c-.762-.05-1.904-.304-2.716-1.599l3.096-1.015c-2.893-12.059-10.175-22.137-22.888-23.89 0 0-.735-3.808-2.689-4.544l-3.806 4.468a13.603 13.603 0 00-3.197.889l-16.238-6.042 12.179 12.313s-6.318 8.961-8.12 10.789c-1.193 1.676-1.092 2.97.253 4.569l2.361 3.098c1.217 1.6 2.562 1.549 4.516.559l2.664-1.396c1.167-.965 5.074.939 6.749-.585-1.065 3.504-1.598 6.88-1.852 9.546l-10.935-1.32c-2.386-.33-3.477 0-4.923 1.142l-9.338 7.185c-3.044 2.335-3.983 6.372-2.106 10.308l3.806 7.946zm90.33 2.056l-7.409 18.279h-4.619l7.41-17.696c.76-2.284-.685-3.35-2.537-5.838 2.74 1.549 4.719 2.563 8.043 3.834-.28.507-.635.787-.888 1.421zm-71.453-39.579l-2.105 1.117c-1.472.838-2.207 1.219-3.476-.355l-.914-1.168c-.456-.559-.608-1.904.33-2.971l9.084-10.586-8.373-6.88 10.657 3.935 3.907-4.874c1.142.964.737 3.782.737 3.782 4.313 0 16.872 6.245 17.355 21.885 0 0 2.841 4.188 6.47 4.417l18.497 1.117c3.07 0 10.733-5.839 20.577-.33 2.487-1.499 5.151-2.691 7.892-2.996 8.678-.634 15.072 5.408 19.817 11.501 3.476 4.417 8.246 11.17 8.246 11.17-2.055 2.437-4.06 3.249-5.759 2.64-2.564-1.32-3.401-3.376-4.212-6.245-1.294-4.544-6.293-8.429-6.293-8.429 1.7 3.047 2.055 6.5 2.867 9.673-7.231-7.16-8.602-15.893-13.651-17.112-2.232-.557-4.846.407-7.257 3.2 2.538 5.915 2.411 12.77 5.025 17.364 1.978 3.428 2.41 3.732 3.297 4.494 2.132 1.524.94 4.291.61 6.297l-2.74 17.187h-4.618l3.044-16.807c.939-5.128-13.448-5.128-20.806-14.903-6.268 7.337-23.851 5.51-31.463 4.367-3.07-.457-6.064-.253-7.739 2.767-.989 1.701-2.639 1.194-3.654.94l-13.88-2.996c-2.435-.559-3.501-.077-4.566 2.158l-2.767 5.738c-.608 1.345-.583 2.336.533 3.428l1.32 1.396c-.786 2.741-3.298 4.849-3.298 4.849l-3.021-3.402c-1.47-1.727-1.547-4.215-.38-6.652l4.491-9.393c.533-1.042 1.497-2.158 3.375-2.158l17.152-.255-5.251-8.554c-3.909-6.424 2.587-17.873 1.597-23.281-.532 7.236-9.285 3.934-10.657 4.925zm-18.623 21.579l8.119-6.195c1.447-1.091 2.411-1.802 4.061-1.599l11.468 1.524c.634 2.742 2.461 5.433 2.461 5.433l-12.205-2.565c-1.725-.203-2.232-.126-3.856 1.041l-5.786 4.367c-1.142.889-1.192 2.31-.532 3.707l.939 2.005-4.035 3.046-1.548-2.893c-1.572-3.072-1.674-5.89.914-7.871zm35.368-220.388c4.44 3.073 12.307 6.348 12.307 6.348v-5.231l-17.332-6.625s0 2.131 5.025 5.508zm12.275-6.295v-5.229l-19.664-7.033s2.334 2.489 7.359 5.916c4.44 3.046 12.305 6.346 12.305 6.346zm.004-11.883v-5.254l-21.543-7.921s4.213 3.402 9.237 6.83c4.439 3.07 12.306 6.345 12.306 6.345z" fill="#000"/><path fill-rule="evenodd" clip-rule="evenodd" d="M322.929 187.002h22.024c-.913-3.198-4.339-6.422-10.759-6.422-6.089 0-9.743 3.504-11.265 6.422zm-23.039-84.59l-21.493 7.921v5.254s7.867-3.275 12.307-6.345c4.998-3.428 9.186-6.83 9.186-6.83zm-4.188 25.845l-17.305 6.65v5.231s7.867-3.3 12.307-6.347c4.998-3.403 4.998-5.534 4.998-5.534zm2.333-13.049l-19.664 7.033v5.229s7.891-3.275 12.306-6.321c5.024-3.452 7.358-5.941 7.358-5.941zm-91.467 65.372c-6.419 0-9.845 3.224-10.757 6.422h22.049c-1.573-2.918-5.177-6.422-11.292-6.422z" fill="#000"/><path fill-rule="evenodd" clip-rule="evenodd" d="M314.151 88.295c0-12.389-20.806-23.484-43.77-23.484-22.963 0-43.769 11.095-43.769 23.484l.482 3.047 9.135 52.628-43.389 25.311c-4.619 2.716-10.403 10.18-11.139 17.696h7.917c1.319-7.516 7.231-15.842 18.319-15.335 10.023.534 15.96 6.627 21.847 15.335l1.522 2.284 2.182 3.427h-63.814c4.694 9.42 9.134 19.422 9.134 30.262v132.752c0 34.146 26.211 50.419 54.604 50.419 21.923 0 24.891-.99 36.995 11.12 12.053-12.11 15.02-11.12 36.994-11.12 28.368 0 54.604-16.273 54.604-50.419V222.976c0-10.841 4.441-20.843 9.134-30.263h-63.864l2.207-3.427 1.522-2.284c5.861-8.708 11.824-14.801 21.847-15.335 11.038-.507 17 7.819 18.294 15.335h7.892c-.711-7.516-6.522-15.005-11.114-17.696l-43.389-25.31 9.16-52.629.457-3.072zm-78.659 6.042l32.378 11.019v50.698l-23.851-12.541-8.527-49.176zm7.968 107.567c4.263 5.839 11.164 10.156 19.334 11.83a16.6 16.6 0 005.608 9.165c-1.345 9.063 2.537 17.518 12.281 19.752 1.015 4.621 3.882 8.099 8.678 9.748l-6.775 7.821c-2.588 2.995-5.963 3.959-8.753 3.604l-30.246-3.427c1.319-3.352-2.182-7.236-11.749-5.585l11.901-33.257-7.257-15.411-13.752 11.729-1.015 34.883-5.835-2.87c-7.69-3.3-9.922 10.587-2.614 10.638l2.892.025c-.178 1.422.254 2.996 1.371 3.478-1.371.584-1.777 3.173-.052 4.087-1.75.814-1.979 3.454-.583 4.596-1.522 2.564-1.751 8.124 3.552 9.52 4.339 1.142 7.054-3.529 7.943-6.245l47.041 14.572c6.673 1.905 11.394.838 16.925-4.011l12.281-10.739c-1.549 7.033.99 13.353 6.343 15.461 0 0-.762 6.322-.532 9.14H187.968v-77.432c0-7.211-2.081-14.42-4.566-21.072h60.058zm50.595 29.374c-2.588 4.95-2.335 10.636.71 15.79l-2.03 1.981c-8.83-1.092-12.306-14.269-12.306-14.269-.178 1.194-.278 2.336-.253 3.505-5.151-1.904-8.4-6.475-8.145-12.745 1.954 1.091 4.136 1.853 6.47 2.26l.608-3.859c-6.165-1.067-9.768-4.926-11.137-9.495-.305-.026-.559-.102-.839-.128 1.092.077 2.183.178 3.299.178 3.654 0 7.13-.558 10.378-1.524 2.563 3.657 7.104 6.272 11.672 6.78-.736 3.045-.381 6.829 1.573 11.526zm13.068 34.83a13.313 13.313 0 00-2.056 4.064l-4.922 4.519c.99-7.211-3.857-15.715-8.272-19.194l5.226-5.129 1.041 1.067c-1.751 4.595 1.675 13.608 8.983 14.673zm-23.776-2.258l4.06-3.987c4.111 3.606 9.541 11.653 7.84 19.32l-4.414 4.062c-.914.889-1.852 1.524-2.817 2.108 2.766-6.83-.762-17.339-4.669-21.503zm-8.729 3.377h.127c1.472.227 3.046-.027 4.466-.61 3.096 4.417 5.506 14.471 1.802 20.742-2.106.05-4.161-.33-6.09-.889l-1.522-.457c3.121-4.849 2.689-13.43 1.217-18.786zm-10.225-1.271l5.709.711c.914 4.749.305 12.948-2.715 17.619l-6.648-1.929c2.919-3.961 4.289-12.11 3.654-16.401zm-11.899-1.447l6.926.812c.685 3.809-.61 11.908-3.222 15.767l-7.055-2.031c2.817-3.732 3.832-10.308 3.351-14.548zm-28.039-1.853c-3.222 1.041-4.643-1.294-4.516-3.275 6.318-2.311 9.135-.812 10.987.356 1.699 1.065 3.121 4.113 5.404 6.016-.381 2.59-1.168 6.348-2.106 8.861-6.47-1.651-6.8-7.362-4.39-10.841-1.345-1.574-2.765-1.98-5.379-1.117zm-4.516 12.618s1.929.813 4.364.99c-.278 1.345-1.32 2.614-2.969 2.259-1.37-.304-1.979-1.98-1.395-3.249zm-6.369-18.533c-1.599-1.066-.889-3.401.888-3.401 1.954.05 4.542 2.259 7.105 3.35 0 0-6.725.914-7.993.051zm6.572 13.456c1.396 1.344 5.582.837 5.582.837l.153.837c-1.827 2.438-6.903 1.346-5.735-1.674zm5.633-2.768c-2.994 1.194-6.064-.432-5.126-2.361 1.396 1.27 5.278.635 5.278.635l-.152 1.726zm4.415-34.857l-5.735 20.894 1.954-33.714 8.881-7.592 4.516 9.927-11.417 32.75 3.019-22.036c.279-1.574-.965-1.753-1.218-.229zm.406 25.337s6.393-.305 8.195.38c1.32.559.432 2.793-1.294 2.54-1.801-.229-6.901-2.92-6.901-2.92zm10.022 5.077l6.953.864c.532 3.807-.457 10.256-2.944 13.861l-6.724-1.955c1.777-4.24 2.208-8.225 2.715-12.77zm112.227 92.741c0 16.146-7.459 28.408-19.867 35.213l4.441-9.038h-4.314l-5.71 11.576c-5.911 2.234-12.61 3.478-20.019 3.478-22.633 0-28.622.914-36.995 9.267-8.398-8.353-14.386-9.267-36.994-9.267-7.358 0-14.058-1.193-19.944-3.428h.153l5.708-11.626h-4.288l-4.999 10.18a40.644 40.644 0 01-3.475-1.829l4.11-8.351h-4.262l-3.046 6.22c-9.692-7.134-15.401-18.305-15.401-32.395v-50.775h164.852v50.775h.05zm4.593-153.823c-2.562 6.652-4.618 13.861-4.618 21.072v77.432h-9.008c-4.084-3.961-7.535-17.163-7.535-17.163-2.234 4.748.33 14.37 2.714 17.163h-11.596c-2.867-3.884-5.353-17.645-5.353-17.645-3.477 3.961-1.268 14.648.888 17.645h-7.714c-.482-5.51 1.092-11.501 1.092-11.501-4.034-.736-8.323-2.869-8.298-7.337 2.03 1.904 2.867 1.879 5.684 1.827l3.273-2.588c-10.859.355-11.367-11.577-2.741-17.162-8.6.278-15.02-4.849-11.899-13.989-6.116-3.173-8.272-13.532-3.756-18.076-3.272-3.554-3.806-10.536-1.725-15.283-4.339 0-9.21-1.726-11.926-4.696-.203.1-.456.177-.685.253 5.431-2.209 10.022-5.661 13.118-9.926h60.085v-.026zm-32.833-37.269c-8.932 1.549-16.62 12.49-22.913 22.367l-.71 1.142h-6.725l-.025 1.168c-.685 7.616-7.916 17.949-23.851 17.949-7.358 0-12.915-2.26-16.72-5.331-3.299-2.692-5.38-6.017-6.395-9.19a15.304 15.304 0 01-.71-3.428l-.05-1.168h-6.675l-.71-1.142c-6.318-9.85-14.006-20.793-22.911-22.367l24.333-14.141 29.889 16.249 29.84-16.249 24.333 14.141zm-27.861-21.122l-23.826 12.541v-50.698l32.378-11.019-8.552 49.176zm-26.337-43.692l-35.396-13.989c2.994-7.108 16.873-13.175 35.396-13.175 18.497 0 32.35 6.067 35.345 13.175l-35.345 13.989z" fill="#000"/><path fill-rule="evenodd" clip-rule="evenodd" d="M349.066 251.945l.077-3.884c-11.901-.28-14.641-14.319-14.641-14.319-3.476 10.332 5.608 18.051 14.564 18.203zm-15.021 23.788l-1.192-3.681c-10.149 2.589-15.401-13.506-15.401-13.506-3.248 11.703 8.068 19.98 16.593 17.187zm7.053-14.929c-12.128 1.931-17.101-12.185-17.101-12.185-1.346 7.693 3.628 15.487 11.672 16.299-1.827 10.028 7.485 15.181 15.554 11.601l-1.168-3.502c-7.003 2.36-13.574-4.571-8.957-12.213zm-7.254-40.288l.1-3.885c-16.01-3.3-14.665-14.319-14.665-14.319-3.45 10.384 5.633 18.051 14.565 18.204zM232.395 381.904l-5.734 11.626h4.314l5.708-11.626h-4.288zm8.655 0l-5.71 11.626h4.34l5.658-11.626h-4.288zm34.659 0L270 393.53h4.287l5.735-11.626h-4.313zm8.683 0l-5.76 11.626h4.339l5.683-11.626h-4.262zm-17.337 0l-5.734 11.626h4.314l5.709-11.626h-4.289zm50.624 11.626h4.313l5.709-11.626h-4.314l-5.708 11.626zm-67.958-11.626l-5.71 11.626h4.313l5.71-11.626h-4.313zm8.637 0l-5.709 11.626h4.339l5.709-11.626h-4.339zM238.767 319.4c-.787 0-1.472.762-1.472 1.753 0 .964.685 1.751 1.472 1.751.812 0 1.522-.787 1.522-1.751-.025-.991-.71-1.753-1.522-1.753zm31.634-262.43c17.762 0 31.996 5.89 39.837 12.212 0 0 2.359-14.116 10.301-26.505l-14.31 1.6-7.486-15.944-14.386 7.49-13.956-13.862-13.955 13.862-14.438-7.49-7.485 15.943-14.311-1.599c7.967 12.389 10.302 26.505 10.302 26.505 7.867-6.323 22.126-12.213 39.887-12.213zm-33.417-6.346l6.826-14.472 12.636 6.728 13.955-13.785 13.956 13.785 12.636-6.728 6.749 14.471 8.399-1.295c-2.157 4.036-3.781 7.566-5.278 12.517-9.185-5.358-22.836-9.495-36.462-9.495-13.676 0-27.301 4.137-36.486 9.495-1.523-4.951-3.122-8.48-5.304-12.517l8.373 1.295z" fill="#000"/><path fill-rule="evenodd" clip-rule="evenodd" d="M285.022 28.46c2.08.177 3.932-1.397 4.109-3.454.204-2.082-2.841-7.615-2.841-7.615s-4.542 4.899-4.694 6.98c-.203 2.031 1.37 3.885 3.426 4.088zm23.444 8.502c1.853.99 4.11.254 5.1-1.6 1.015-1.828.355-8.098.355-8.098s-6.039 2.716-7.028 4.57c-.965 1.828-.253 4.112 1.573 5.128zm-52.701-8.502c2.106-.204 3.654-2.031 3.476-4.089-.202-2.081-4.693-6.98-4.693-6.98s-3.02 5.559-2.842 7.615c.152 2.057 2.004 3.631 4.059 3.453zm-23.419 8.502c1.852-1.016 2.537-3.3 1.572-5.129-.964-1.853-7.028-4.569-7.028-4.569s-.634 6.27.381 8.099a3.72 3.72 0 005.075 1.599zm281.269 128.969c4.999-1.778 8.855-6.55 10.783-10.968-12.712-1.827-46.484-16.02-74.243-4.467 10.404-9.877 19.741-11.146 20.629-25.363 4.313 3.098 11.596 4.849 15.707-2.54-2.867-8.453-10.099-1.599-11.114-3.934-1.422-3.25 9.109.991 11.367-10.003-8.196-2.818-10.632 3.885-12.103 2.336-1.346-1.472 5.202-4.291.381-13.15-8.526 5.001-4.086 10.612-5.887 11.246-2.183.863-.457-6.017-9.896-5.687-.939 10.129 8.855 10.459 7.257 12.06-1.954 1.954-4.491-5.815-11.621-1.879.127 8.174 6.749 12.668 13.574 10.739-1.115 15.536-15.376 12.643-25.982 30.16 22.481 11.526 32.655 31.632 46.485 45.544 4.567-3.248 12.382-17.669 12.382-17.669 14.97 11.603 25.5.05 25.5.05-5.151-5.28-5.354-9.29-13.219-16.475zm-21.821 2.818c1.547 3.427 4.617 15.384-2.716 24.499-8.348-16.68-19.817-30.974-29.104-37.142-2.029-1.321 1.117-3.631 6.852-4.393 17.279-3.275 37.552 4.037 47.194 6.602-4.491 3.35-8.145 4.874-12.736 5.433 7.003 5.889 12.127 10.865 15.731 16.4-6.776 1.701-10.607-2.59-25.221-11.399zM347.439 428.058v-18.99c-14.666 6.728-33.316 12.186-57.319 14.344l-1.092 6.779c2.03.279 4.619.533 8.07.762-8.882 1.218-20.376 1.802-26.667 1.802-6.318 0-17.787-.584-26.694-1.802 3.426-.229 6.013-.483 8.044-.762l-1.092-6.779c-24.003-2.158-42.677-7.616-57.318-14.344v18.99l-19.893 8.174c14.742 7.669 31.692 13.914 51.279 18.965l-2.334 7.947c11.216 3.3 29.154 6.651 47.956 6.651 18.802 0 36.716-3.376 47.956-6.651l-2.309-7.947c19.563-5.051 36.563-11.296 51.306-18.965l-19.893-8.174zm-163.33 8.606l13.423-5.408v-15.46c8.626 3.326 19.943 6.779 36.183 10.155l-7.613 24.804c-16.568-3.809-30.651-8.937-41.993-14.091zm86.295 28.587c-15.148 0-29.94-2.26-42.576-5.382l8.043-26.023c5.329 1.245 18.675 2.869 34.533 2.869 15.885 0 29.155-1.65 34.509-2.869l8.068 26.023c-12.686 3.122-27.454 5.382-42.577 5.382zm44.329-14.496l-7.613-24.804c16.239-3.351 27.555-6.829 36.182-10.155v15.46l13.398 5.408c-11.341 5.154-25.374 10.282-41.967 14.091zM39.482 182.356s7.815 14.421 12.356 17.669c13.854-13.886 24.054-33.993 46.51-45.544-10.632-17.517-24.891-14.572-25.958-30.16 6.826 1.929 13.423-2.59 13.576-10.739-7.156-3.936-9.693 3.884-11.622 1.879-1.597-1.651 8.17-1.931 7.258-12.06-9.44-.305-7.715 6.55-9.922 5.687-1.777-.634 2.664-6.27-5.886-11.246-4.796 8.885 1.775 11.678.405 13.15-1.445 1.549-3.932-5.128-12.103-2.336 2.208 10.994 12.788 6.753 11.368 10.003-1.015 2.335-8.222-4.519-11.064 3.934 4.061 7.414 11.369 5.663 15.656 2.565.914 14.242 10.226 15.436 20.654 25.338-27.783-11.553-61.555 2.64-74.319 4.492 1.954 4.393 5.811 9.165 10.81 10.891-7.866 7.262-8.07 11.273-13.22 16.527 0 0 10.505 11.553 25.5-.05zm-15.733-2.183c3.629-5.534 8.73-10.536 15.783-16.4-4.618-.584-8.247-2.108-12.763-5.458 9.667-2.565 29.966-9.902 47.27-6.602 5.684.762 8.882 3.072 6.8 4.393-9.286 6.168-20.78 20.462-29.128 37.142-7.308-9.115-4.212-21.047-2.715-24.474-14.59 8.784-18.396 13.075-25.247 11.399zm234.505-8.403v8.352c2.868-3.478 8.45-2.792 8.45-2.792v12.059s-.203 5.94-2.284 8.479h12.028c-2.107-2.539-2.284-8.479-2.284-8.479v-12.034s5.556-.686 8.424 2.793v-8.353h-24.334v-.025z" fill="#000"/><path d="M713.064 308.278v-80.663h47.613v-29.352H630.783v29.352h47.612v80.663h34.669zm96.157-110.015h-34.67v110.015h34.67V198.263zm25.369 0v110.015h31.896v-60.785l59.4 60.785h29.584V198.263h-31.896v60.324l-58.013-60.324H834.59zm189.02 68.413l39.98 41.602h44.61l-55.7-57.319 53.62-52.696h-42.06l-40.45 41.371h-9.25v-41.371h-33.51v110.015h33.51v-41.602h9.25zm153.55-71.418c-45.07 0-72.11 25.423-72.11 58.244 0 32.82 27.04 58.243 72.11 58.243 44.84 0 71.88-25.423 71.88-58.243 0-32.821-27.04-58.244-71.88-58.244zm0 89.677c-22.42 0-36.75-13.406-36.75-31.433 0-18.028 14.33-31.202 36.75-31.202 22.19 0 36.75 13.174 36.75 31.202 0 18.027-14.56 31.433-36.75 31.433zm198.97-86.672h-111.16v110.015h33.5v-38.367h72.82v-24.268h-72.82v-19.415h77.66v-27.965zm126.18 0h-111.18v110.015h33.52v-38.367h72.81v-24.268h-72.81v-19.415h77.66v-27.965z" fill="#000"/></svg><svg version="1.1" id="upt_logo" x="0" y="0" viewBox="0 0 732.6 467" xml:space="preserve" xmlns="http://www.w3.org/2000/svg"><style>.kst1{fill:#fff}.kst2{fill:#054798}</style><g id="kUPT"><g id="kIcons" transform="translate(-176 -284)"><g id="klogo" transform="translate(176 284)"><g id="kUpt_logo" transform="translate(1 1)"><path id="kShape" d="M56 3.5h615.1c24.3 0 44 19.6 44 43.9v368.3c0 24.2-19.7 43.8-44 43.8H56c-24.3 0-44-19.6-44-43.8V47.4C11.9 23.1 31.6 3.5 56 3.5z" fill="#eb5b1d"/><path id="kShape_1_" class="kst1" d="M79.6 106.3c33.9-38.2 82.6-64.7 124.6-70.9h-12.4c-6.6.3-13.2 1-19.6 2.1-30.4 5-65.2 24.3-89.6 51.8-6.1 6.8-11.5 14.3-16.1 22.3-1.8 3.3-4 7.7-5.6 11-3 6.7-5.6 13.6-7.6 20.6-.4 1.6-.8 2.9-1.1 4.2 6.9-15 16.1-28.9 27.4-41.1z"/><path id="kShape_2_" class="kst2" d="M102.3 139.3s45.4-51.8 112-68.8c17.6-5.2 36.2-6.8 54.5-4.7 7.8.6 15.6 1.8 23.2 3.5-4.2-3.5-7.8-5.9-15.5-11.1-2.9-1.8-7.1-4-10-5.7-2.9-1.4-5.8-2.6-8.9-3.6-45.9-15.4-120.5 13.7-168.8 65.4-1.2-2.9-2.3-5.8-3.1-8.8C72 127.9 63 152.9 59.3 178.8c17.3-13.7 40.3-22.9 51.4-27.4l-1.8-2.6c-2.4-3.2-4.4-6.4-6.6-9.5z"/><path id="kShape_3_" class="kst1" d="M337.5 134.4v-.6c-2.7-6.5-6.5-15-9.7-21.3-6.8-11.8-18-20.5-31.1-24.4-50.5-17-133.4 16.4-185.1 74.5-41.1 46.1-50.2 94.2-26.7 120.6 3.6 4 8.9 9 12.8 12.7 3.6 2.9 6 5 8.3 6.7-5.9-14.2-7.4-29.9-4.3-45 3.5-16.2 10.2-31.4 19.7-45 34-50.7 96.1-87.5 146.3-94.1-.1.1 37.7-7.9 69.8 15.9z"/><path id="kShape_4_" class="kst2" d="M273.8 133.6c1.4 3.4 2.6 6.8 3.6 10.3-40.1 4.3-88.1 29.5-121 66.7-44.1 49.6-44.9 101.5-1.8 116 1.5.5 3 .9 4.6 1.3 5.7 1.3 13.2 2.7 18.9 3.5 4.8.5 7.8.8 10.7 1-39.4-14.8-26.1-53.2-26.1-53.2 4.8-15.8 13.2-30.3 24.6-42.3 26.3-29.5 64.4-49.6 96.3-53 0 1.8.2 3.5.3 5.6v3.5c19.1-6.5 39.1-10.1 59.2-10.7-.1.1-17.6-34-69.3-48.7z"/><path id="kShape_5_" class="kst1" d="M306.2 284.6c26.6-30.5 26.9-62.2.4-71.1-26.5-8.9-70.6 8.7-98 39.4s-27.9 63-1.1 72c6.9 2.1 14.2 2.8 21.4 2.1v-31.3c0-7.1 3.6-15.4 10.7-23.7 14.2-16 37.1-25.2 50.9-20.5 6.9 2 11.3 8.7 10.2 15.8v23.1c1.3-1.3 4.5-4.9 4.6-4.9l.4-.5c-.2 0 .5-.4.5-.4z"/><path id="kShape_6_" class="kst1" d="M366.9 271.8v81c0 27.7-20.5 40.1-40.6 40.1s-40.3-12.4-40.6-40.1v-81.1h-16.8c-9.8 0-17.8 7.9-17.8 17.7v63.3c0 28.8 13 46.1 23.9 55.9 14.2 12.3 32.5 19 51.4 18.8 37.4 0 75.2-25.7 75.4-74.7v-81h-34.9z"/><path id="kShape_7_" class="kst1" d="M541.5 291.3c-11.1-12-26.9-18.7-43.3-18.3H419v153.7h16.9c9.8 0 17.8-7.9 17.8-17.7v-20.8h44.5c16.4.4 32.2-6.3 43.3-18.4 19.3-22.5 19.3-55.7 0-78.3v-.2zm-26 55.3c-4.5 4.7-10.8 7.1-17.3 6.7h-44.4v-45.8h44.4c17 0 23 12.3 23 22.9.1 5.9-1.9 11.6-5.7 16.2z"/><path id="kShape_8_" class="kst1" d="M613.8 273h-89.5c8 3.3 15.2 8.4 21 14.9 5.1 5.8 9.1 12.4 11.7 19.7h30.4v118.8h16.9c9.8 0 17.8-7.9 17.8-17.7V307.5H657c9.8 0 17.8-7.9 17.8-17.7V273h-61z"/><path id="kShape_9_" class="kst1" d="M380.9 250.9H375l-4.7-13-.3 16.3h-5.1l1.1-25.1h5.4l6.6 17.7 6.5-17.7h5.3l1.2 25.1h-4.9l-.4-16.3z"/><path id="kShape_10_" class="kst1" d="M414.7 246.8c0 4.2-2.4 7.7-9.5 7.7s-9.5-3.5-9.5-7.7v-10.4c0-4.2 2.4-7.7 9.5-7.7s9.5 3.5 9.5 7.7v10.4zm-14.2-.2c0 2.4 1.2 3.8 4.8 3.8 3.6 0 4.8-1.4 4.8-3.8v-9.9c0-2.4-1.2-3.8-4.8-3.8-3.6 0-4.8 1.4-4.8 3.8v9.9z"/><path id="kShape_11_" class="kst1" d="M424.5 235.1v19.1h-4.7v-25.1h6.4l9.6 19v-19h4.6v25.1h-6.3z"/><path id="kShape_12_" class="kst1" d="M446.2 229.1h15.4v4.2H451v6h9.8v4.2H451v6.5h10.6v4.2h-15.4z"/><path id="kShape_13_" class="kst1" d="M480 229.1h5.1l-8.1 17.7v7.1h-4.8v-7.1l-8.2-17.7h5.1l5.6 12.6z"/><path id="kShape_14_" class="kst1" d="M501.2 233.3h-7.1v-4.2H513v4.2h-7.1v20.9h-4.8z"/><path id="kShape_15_" class="kst1" d="M532 254.2l-5.8-8.3h-4.6v8.3h-4.8v-25.1h10.4c5.8 0 8 2.4 8 6.8v3.3c.3 2.7-1.2 5.2-3.8 6.1l6.2 9H532zm-5-20.9h-5.4v8.5h5.4c2.6 0 3.6-1 3.6-3.1v-2.5c-.2-2.1-1.1-2.9-3.6-2.9z"/><path id="kShape_16_" class="kst1" d="M555.9 249h-9.4l-1.6 5.2h-5l8-25.1h6.7l7.9 25.1h-5l-1.6-5.2zm-8.2-4.1h7.1l-3.6-11.9-3.5 11.9z"/><path id="kShape_17_" class="kst1" d="M571 235.1v19.1h-4.7v-25.1h6.4l9.6 19v-19h4.6v25.1h-6.4z"/><path id="kShape_18_" class="kst1" d="M599.4 254.6c-2.7 0-5.4-.5-7.9-1.5l.8-3.8c2.3.7 4.7 1.1 7.1 1.2 3.6 0 4-.7 4-3.1s0-3-4.6-4c-6.1-1.3-7.1-2.5-7.1-7.8 0-4.6 2.1-6.8 8.5-6.8 2.5 0 4.9.3 7.3.8l-.5 4c-2.2-.5-4.5-.8-6.7-.8-3.2 0-3.8.7-3.8 2.9 0 2.9 0 2.9 4.4 4 6.8 1.6 7.1 2.7 7.1 7.7s-1.1 7.2-8.6 7.2z"/><path id="kShape_19_" class="kst1" d="M613 254.2v-25.1h15.6v4.2H618v6.6h9.7v4.2h-10v10.1z"/><path id="kShape_20_" class="kst1" d="M632.8 229.1h15.4v4.2h-10.6v6h9.8v4.2h-9.8v6.5h10.6v4.2h-15.4z"/><path id="kShape_21_" class="kst1" d="M668.3 254.2l-5.8-8.3H658v8.3h-4.8v-25.1h10.3c5.9 0 8 2.4 8 6.8v3.3c.3 2.7-1.3 5.2-3.8 6.1l6.3 9h-5.7zm-5-20.9H658v8.5h5.4c2.6 0 3.6-1 3.6-3.1v-2.5c-.1-2.1-1.1-2.9-3.7-2.9z"/></g></g></g></g></svg><svg viewBox="0 0 1155 574" id="zolotayakorona" xmlns="http://www.w3.org/2000/svg"><path fill="#df212f" d="M0 0h1155v574H0V0z"/><path fill="#f8bd15" d="M198.29 71.99c6.56-6.52 12.96-13.21 19.68-19.55C225 58.92 231.9 65.55 238.95 72c-7.08 6.41-13.94 13.06-20.96 19.54-6.75-6.32-13.12-13.04-19.7-19.55zM178 102.94c11.36-2.99 23.09-4.2 34.79-4.91.04 37.35.01 74.7.01 112.05-12.62.07-25.24.09-37.86.01-4.26.11-7.83-3.2-9.36-6.96-9.16-21.52-17.97-43.19-27.29-64.64-2.43 1.72-4.89 3.42-7.41 5.02 8.54 22.39 18.26 44.34 27.11 66.61-6.59-.06-13.19.19-19.77-.17-6.8-24.67-17.47-48-27.19-71.6 19.11-16.88 42.11-29.48 66.97-35.41zm45.1-4.93c16.33.9 32.67 3.36 48.13 8.85 19.79 6.57 37.78 17.77 53.53 31.33-8.59 24.51-19.43 48.15-29.86 71.92-5.67.03-11.33.03-17 0 7.59-18.5 15.24-36.97 22.84-55.47 1.53-3.67 3.15-7.32 4.31-11.12-2.5-1.72-5.04-3.38-7.67-4.89-8.77 21.37-17.88 42.6-26.76 63.92-1.52 3.99-5.11 7.66-9.64 7.54-12.63.11-25.26.01-37.89.03.07-37.37.01-74.74.01-112.11z"/><path fill="#df212f" d="M155.42 130.73c12.47-5.49 25.65-9.29 39.04-11.82.06 25.56-.08 51.12.07 76.68-4.88.01-11.68 1.71-14.23-3.86-8.52-20.23-16.45-40.73-24.88-61zm85.98-11.79c13.16 2.45 26.18 6.07 38.4 11.56.48 2.11-1.25 4.25-1.82 6.31-6.69 16.41-13.3 32.86-19.94 49.3-1.4 3.51-2.55 7.84-6.45 9.36-3.36.55-6.79.2-10.18.23.1-25.59.06-51.18-.01-76.76z"/><path fill="#fefafa" d="M331.31 143.74c14.07-12.15 33.67-15.33 51.69-14.14 12.79 1.33 26.61 3.89 36.12 13.3 8.05 7.56 9.94 19.66 7.85 30.1-1.78 9.1-7.86 17.13-16.07 21.41 7.6 4.32 15.11 10.02 18.02 18.64 3.12 10.13.85 21.35-4.13 30.51-6.51 11.79-18.88 19.21-31.71 22.26-13.34 3.08-27.37 1.55-40.3-2.59-9.24-3.06-18.08-7.6-25.41-14.06 2.87-4.11 5.39-8.44 8.13-12.63 1.43-2.26 3.55-4.38 6.38-4.56 4.76-.74 8.79 2.31 12.79 4.35 9.98 5.44 21.89 7.9 33.09 5.36 5.33-1.14 10.08-5.06 11.5-10.42 1.49-5.5 1.94-12.05-1.59-16.89-3.88-5.37-10.76-7.31-17.03-7.94-7.76-.46-15.53-.01-23.28-.26.16-7.82-.06-15.65.1-23.46 8.52-.16 17.1.53 25.57-.69 4.9-.63 9.95-3.17 12.19-7.78 2.31-5.86 1.69-13.96-4.06-17.62-6.69-4.32-15.15-4.26-22.74-3.02-6.89 1.19-12.85 4.99-19.21 7.63-3.4 1.49-7.68.34-9.66-2.86-3-4.73-5.36-9.83-8.24-14.64zm148.22 24.1c14.01-1.98 29.33.11 40.87 8.79 9.71 7.16 15.78 18.49 17.49 30.33 1.92 13.46.09 27.96-7.43 39.52-6.37 10-16.87 17.02-28.4 19.56-14.06 3.04-29.47 1.35-41.89-6.17-11.1-6.83-18.57-18.73-20.85-31.47-2.05-11.73-1.29-24.31 4.06-35.1 6.54-14.03 20.96-23.52 36.15-25.46zm206.06-.01c14.65-2.08 30.8.4 42.42 10.13 9.07 7.38 14.5 18.51 15.96 30.01 1.74 13.82-.45 28.71-8.74 40.21-6.39 9.12-16.34 15.43-27.17 17.85-14.19 3.12-29.96 1.36-42.14-6.93-9.85-6.66-16.54-17.39-18.97-28.95-2.86-13.71-1.64-28.71 5.46-41 6.96-11.79 19.69-19.58 33.18-21.32zm159.28 3.16c13.03-1.63 26.04-4.1 39.23-3.76 9.78.28 19.35 4.43 26.36 11.24 7.54 7.5 12.11 17.91 12.66 28.52.01 20.16 0 40.33 0 60.5-5.67-.12-11.36.27-17.01-.17-5.19-.5-5.36-6.83-7.78-10.32-6.5 3.6-12 9.22-19.44 10.91-10.22 2.57-21.81 1.68-30.75-4.23-7.35-4.98-10.6-14.1-11.02-22.65-.6-10.11 4.2-20.47 12.57-26.23 6.12-3.91 13.04-6.29 19.92-8.51 7.63-2.17 15.62-2.53 23.51-2.67.24-5.6-2.86-11.44-8.48-13.03-9.52-2.55-19.19.79-28.7 1.65-3.76.54-7.41-1.68-9.06-5.01-2.47-5.03-2.19-10.8-2.01-16.24zm-287 51.79c3.2-17.5 1.81-35.37 2.87-53.04 24.77-.01 49.54-.01 74.31 0-.04 32.59.05 65.17-.05 97.76-9.54 0-19.08-.01-28.61.01-.06-25.21-.01-50.42-.03-75.62-6.95-.02-13.91-.01-20.86 0-.83 14.59-1.2 29.3-4.28 43.64-2.02 9.22-5.37 18.64-12.2 25.42-7.18 7.37-18.09 9.54-28.01 9.1-2.29.05-4.94-1.4-4.89-3.96-.31-6-.03-12.03-.12-18.04 4.45-.37 9-1.77 12.52-4.58 5.34-5.58 8.08-13.18 9.35-20.69zm185.36-53.03c30.42-.03 60.85-.01 91.27-.01.01 6.92.01 13.84 0 20.75-10 .01-19.99 0-29.99.01-.02 25.21.01 50.41-.01 75.62-10 .01-20 .01-30 0-.02-25.21.01-50.41-.01-75.62-10.42-.02-20.84.02-31.26-.02.01-6.91 0-13.82 0-20.73zm201.33 8.8c8.83-6.25 19.8-8.72 30.49-8.78 13.11-.09 26.22-.01 39.33-.03 0 32.13.01 64.25 0 96.38-9.13.01-18.26 0-27.38 0-.05-12.64.1-25.29-.09-37.93-3.54.27-7.63.65-9.84 3.83-6.55 8.27-8.43 19.12-14.06 27.93-2.78 4.39-8.16 5.93-13.07 6.08-7.63.21-15.26.05-22.89.07 7.02-11.66 13.94-23.39 21.08-34.97 2.47-4.16 6.64-6.96 11.33-8.02-9.04-1.86-18.53-6.45-22.58-15.24-4.73-10.03-.6-22.48 7.68-29.32z"/><path fill="#df212f" d="M971.08 189.11c5.08-1.83 10.63-.88 15.92-1.11-.01 8.25.01 16.49-.01 24.74-6.38-.41-14.17 1.66-19.11-3.59-6.11-5.32-4.65-17.18 3.2-20.04zm-489.7 1.57c5.95-1.94 13.01-1.87 18.42 1.56 6.4 4.31 8.1 12.59 8.62 19.79.42 8.87.43 18.39-4.01 26.37-5.77 10.15-21.71 10.71-29.33 2.47-4.65-5.43-5.97-12.89-5.73-19.84.27-7.51.12-15.4 3.48-22.32 1.65-3.66 4.76-6.65 8.55-8.03zm206.03-.04c7.35-2.38 16.9-1.62 21.92 4.92 5.41 7.59 5.28 17.45 5.13 26.37-.45 8.04-2.18 17.4-9.51 22.05-7.41 4.16-17.93 3.34-23.85-3.05-4.68-5.42-6.05-12.88-5.77-19.85.26-7.53.04-15.46 3.44-22.39 1.69-3.68 4.81-6.69 8.64-8.05z"/><path fill="#f8bd15" d="M142 218.99c51 0 102-.01 153 0V237H142v-18.01z"/><path fill="#df212f" d="M866.43 227.41c7.7-4.26 16.84-3.94 25.37-4.32.16 4.89 1.5 9.85.9 14.7-6.29 7.02-16.92 10.77-25.99 7.43-7.48-2.68-6.9-14.46-.28-17.81z"/><path fill="#fefafa" d="M142.37 249.23c15.21-.01 30.42.01 45.63 0 .01 25.62-.01 51.25.01 76.88 5.28.14 10.65-.04 15.76-1.54 2.17-.89 3.79-2.73 5.21-4.53 11.25-15.12 17.4-33.32 28.68-48.43 4.41-6.16 9.83-11.84 16.72-15.19 12.7-5.62 26.83-6.3 40.51-5.93-.02 9.19.06 18.38-.02 27.57.13 3.32-1.33 6.78-4.25 8.51-4.4 2.53-9.64 2.87-14.21 4.99-3.99 1.66-7.21 4.74-9.64 8.25-7.44 10.2-10.24 22.99-17.83 33.1-2.55 3.39-6.12 5.8-9.91 7.61 5.91 1.45 11.52 4.26 15.98 8.43 4.92 4.91 8.69 10.82 12.22 16.77 13.92 24.61 28.02 49.13 41.9 73.77-13.71.02-27.42 0-41.13.02-4.62.12-9.56-1.23-12.62-4.89-3.02-3.01-4.18-7.21-6.33-10.78-10.78-18.86-21.48-37.78-32.27-56.63-2.13-3.76-5.61-6.78-9.89-7.71-6.21-1.28-12.6-.57-18.89-.74v79.49c-13.99.02-27.97-.04-41.96.03-1.11-.36-4.05.78-3.66-1.3-.04-62.58-.01-125.16-.01-187.75z"/><path fill="#fefafa" d="M357.54 296.79c17.36-1.84 35.73.74 50.75 10.08 12.64 7.77 22.13 20.26 26.81 34.3 4.53 13.08 5.19 27.22 3.77 40.89-.68 7.44-3.08 14.61-6.59 21.18-5.56 12.01-14.75 22.37-26.16 29.12-15.61 9.03-34.47 11.32-52.12 8.55-15.66-2.32-30.64-9.81-41.32-21.6-9.05-10.39-15.31-23.36-16.98-37.1-2.2-17.85-.13-36.75 8.86-52.59 10.41-19.28 31.53-30.94 52.98-32.83zm158.37 1.75c11.02-2.9 23.15-3.58 33.91.67 13.67 5.53 23.1 17.98 28.79 31.16 4.7 9.85 6.06 20.87 6.64 31.65.9 19.85-4.04 40.26-15.58 56.6-7.92 11.26-19.97 19.7-33.55 22.35-11.4 2.21-23.69 1.24-34.12-4.1-3.67-1.76-6.95-4.2-10.34-6.42.03 17.79.07 35.58.02 53.38-13.89.52-27.78.95-41.68 1.32V298.74c8.64.04 17.29-.1 25.94.05 4.14-.05 8.64 1.93 10.23 5.99 1.24 3.57 1.92 7.3 2.91 10.94 7.25-7.93 16.36-14.36 26.83-17.18zm140.7-1.71c18.83-2.1 38.97.9 54.78 11.89 14.1 9.67 23.13 25.55 26.19 42.19 2.99 16.58 2.26 34.16-3.92 49.95-5.7 15.16-17.61 27.9-32.43 34.47-15.03 6.75-32.1 8.08-48.27 5.56-16.21-2.59-31.88-10.52-42.26-23.43-11.84-14.21-16.67-33.21-15.99-51.46.49-17.87 6.31-36.3 19.16-49.16 11.08-11.78 26.88-18.18 42.74-20.01zm248.31 4.49c19.19-3.17 38.62-5.62 58.12-5.01 16.91.7 33.73 9.19 43.15 23.48 7.3 10.5 9.92 23.57 9.45 36.2-.02 28.29 0 56.58 0 84.88-7.24-.04-14.48.14-21.71-.09-3.73-.12-8.02-1.13-10.09-4.55-2.21-3.8-3.21-8.14-4.7-12.24-15.66 17.9-42.99 24.17-64.87 14.85-7.64-3.15-13.9-9.33-17.16-16.92-5.28-12.1-6.38-26.26-2.17-38.85 5.11-13.1 16.87-22.83 30.1-27.09 8.52-2.57 17.03-5.39 25.91-6.45 7.64-.98 15.36-1.15 23.06-1.22.78-8.34-4.69-16.94-13.1-18.62-9.31-1.78-18.85.07-28.06 1.64-5.96.95-12.21 3.14-18.13.93-4.54-1.63-7.39-6.01-8.6-10.49-1.71-6.67-1.67-13.63-1.2-20.45zm-153.88-2.59c13.91.02 27.82-.01 41.73.01-.03 16.93.05 33.86-.05 50.78 14.75.22 29.5 0 44.25.12.17-16.97.02-33.94.07-50.91 13.93.02 27.86-.02 41.79.02v140.72c-13.93.07-27.86-.01-41.79.04-.01-19.54.01-39.08-.01-58.63-14.75 0-29.51 0-44.26.01.02 19.51-.06 39.03.04 58.55-13.92.14-27.84 0-41.77.07V298.73z"/><path fill="#df212f" d="M358.53 328.67c7.97-2.04 16.96-1.69 24.19 2.53 5.9 3.65 9.42 10.15 11.33 16.64 2.63 10.13 2.82 20.74 2.01 31.12-.87 9.51-3.37 19.7-10.78 26.29-7.38 6.01-17.81 6.64-26.73 4.4-6.27-1.58-11.52-5.98-14.52-11.66-4.89-8.76-5.24-19.16-4.85-28.94.14-10.17.79-20.9 5.97-29.93 2.85-5.1 7.73-8.94 13.38-10.45zm299.88-.02c8.45-2.14 18.16-1.62 25.49 3.49 6.95 5.31 10.08 14.09 11.37 22.46 1.38 9.86 1.4 19.97-.12 29.82-1.38 8.28-4.62 16.98-11.71 22.03-7.58 5.03-17.49 5.39-26.02 2.89-6.81-1.99-11.94-7.67-14.47-14.14-4.13-10.21-4.16-21.47-3.85-32.31.53-9.12 1.89-18.81 7.54-26.31 2.83-3.93 7.11-6.68 11.77-7.93zm-166.8 13.17c5.28-6.1 12.18-11.24 20.34-12.47 6.9-1.15 15.22-1.02 20.29 4.54 7.61 7.97 8.52 19.73 8.86 30.18.17 12.89-.51 26.94-8.28 37.81-4.61 6.6-13.02 9.48-20.84 8.87-7.58-.23-15.45-3.43-20.21-9.4-.27-19.84.09-39.69-.16-59.53zm447.23 39.85c11.29-3.81 23.3-4.45 35.05-5.95-.03 7.22.14 14.45-.07 21.67-3.84 2.2-6.38 6.04-10.27 8.16-5.62 3.17-12.2 4.13-18.56 4.34-5.33-.07-11.69-1.4-14.47-6.48-3.91-7.76-.13-18.83 8.32-21.74z"/></svg></svg>