<?xml version="1.0" ?><svg viewBox="0 0 96 96" xmlns="http://www.w3.org/2000/svg" xmlns:xlink="http://www.w3.org/1999/xlink"><style>:root>svg{display:none}:root>svg:target{display:block}</style><svg viewBox="0 0 96 96" id="about" xmlns="http://www.w3.org/2000/svg"><path d="M55.88 32.5A11.52 11.52 0 0048 35.56a11.62 11.62 0 00-16.06 16.78l15.72 15.72a.51.51 0 00.36.15.5.5 0 00.35-.15L64.1 52.34a11.62 11.62 0 00-8.22-19.84zm7.51 19.13L48 67 32.64 51.63a10.62 10.62 0 0115-15 .51.51 0 00.71 0 10.62 10.62 0 0115 15z"/><path d="M48 16a32 32 0 1032 32 32 32 0 00-32-32zm0 63a31 31 0 1131-31 31 31 0 01-31 31z"/></svg><svg viewBox="0 0 96 96" id="buying" xmlns="http://www.w3.org/2000/svg"><path d="M35 64a6 6 0 106 6 6 6 0 00-6-6zm0 11a5 5 0 115-5 5 5 0 01-5 5zM63 64a6 6 0 106 6 6 6 0 00-6-6zm0 11a5 5 0 115-5 5 5 0 01-5 5zM67.79 55a.49.49 0 00.46-.31l11.6-29a.5.5 0 00-.46-.69H23.92L23 21.39a.55.55 0 00-.08-.15v-.05l-.08-.07H16.5a.5.5 0 00-.5.5v4a.5.5 0 00.5.5h6.64l8 31.14A3 3 0 0032 63h36.5a.5.5 0 00.5-.5v-5a.5.5 0 00-.5-.5H32.15l-.52-2zm10.86-29l-11.2 28H31.62l-7.23-28zM17 25v-3h5.11l.75 3zm51 37H32a2 2 0 010-4h36z"/><path d="M50 50a10 10 0 10-10-10 10 10 0 0010 10zm0-19a9 9 0 11-9 9 9 9 0 019-9z"/><path d="M45 40.5h4.5V45a.5.5 0 001 0v-4.5H55a.5.5 0 000-1h-4.5V35a.5.5 0 00-1 0v4.5H45a.5.5 0 000 1z"/></svg><svg viewBox="0 0 96 96" id="feedback" xmlns="http://www.w3.org/2000/svg"><path d="M39.5 36h-5a.5.5 0 00-.5.5v19a.5.5 0 00.5.5h5a.5.5 0 00.5-.5v-19a.5.5 0 00-.5-.5zM39 55h-4V37h4zM62.5 36h-12l1.16-5.81a3.48 3.48 0 00-1.77-3.76l-.68-.37a.51.51 0 00-.68.2l-5.5 10a.5.5 0 00-.06.24v17A2.5 2.5 0 0045.5 56h12.29a6.48 6.48 0 005.83-3.62L67 44.7a.45.45 0 000-.2v-4a4.51 4.51 0 00-4.5-4.5zm3.5 8.4L62.71 52a5.48 5.48 0 01-4.92 3H45.5a1.5 1.5 0 01-1.5-1.5V36.63l5.2-9.45.24.13A2.5 2.5 0 0150.71 30l-1.28 6.4a.53.53 0 00.1.42.53.53 0 00.39.18H62.5a3.5 3.5 0 013.5 3.5z"/><path d="M69.54 20H26.46A10.47 10.47 0 0016 30.46v24.08A10.47 10.47 0 0026.46 65h11.8l9.35 11.81a.5.5 0 00.78 0L57.74 65h11.8A10.47 10.47 0 0080 54.54V30.46A10.47 10.47 0 0069.54 20zM79 54.54A9.48 9.48 0 0169.54 64h-12a.49.49 0 00-.39.19L48 75.69l-9.11-11.5a.49.49 0 00-.39-.19h-12a9.48 9.48 0 01-9.5-9.46V30.46A9.48 9.48 0 0126.46 21h43.08A9.48 9.48 0 0179 30.46z"/></svg><svg viewBox="0 0 26 26" id="instagram" xmlns="http://www.w3.org/2000/svg"><path d="M13 8.834A4.174 4.174 0 008.834 13 4.174 4.174 0 0013 17.166 4.174 4.174 0 0017.166 13 4.174 4.174 0 0013 8.834zM25.494 13c0-1.725.015-3.434-.082-5.156-.096-2-.553-3.775-2.015-5.238C21.93 1.141 20.159.687 18.159.591 16.434.494 14.725.509 13.003.509c-1.725 0-3.434-.015-5.156.082-2 .096-3.775.553-5.238 2.015C1.144 4.072.691 5.844.594 7.844.497 9.569.512 11.278.512 13c0 1.722-.015 3.434.082 5.156.097 2 .553 3.775 2.015 5.238 1.466 1.465 3.238 1.919 5.238 2.015 1.725.097 3.434.082 5.156.082 1.725 0 3.434.015 5.156-.082 2-.096 3.775-.553 5.238-2.015 1.465-1.466 1.919-3.238 2.015-5.238.1-1.722.082-3.431.082-5.156zM13 19.41A6.4 6.4 0 016.59 13 6.4 6.4 0 0113 6.59 6.4 6.4 0 0119.41 13 6.4 6.4 0 0113 19.41zm6.672-11.585a1.495 1.495 0 01-1.497-1.497c0-.828.669-1.497 1.497-1.497a1.495 1.495 0 011.383 2.07 1.495 1.495 0 01-1.383.924z"/></svg><svg viewBox="0 0 96 96" id="start" xmlns="http://www.w3.org/2000/svg"><path d="M79.5 72H79V47a3.57 3.57 0 003.25-3.54.4.4 0 00-.07-.18L76 34.34V31h.5a.5.5 0 00.5-.5v-3a.5.5 0 00-.5-.5H68v-5.5a2.5 2.5 0 00-2.5-2.5h-35a2.5 2.5 0 00-2.5 2.5V27h-8.5a.5.5 0 00-.5.5v3a.5.5 0 00.5.5h.5v3.34l-6.16 8.87a.4.4 0 00-.07.18A3.57 3.57 0 0017 47v25h-.5a2.5 2.5 0 00-2.5 2.5v2a.5.5 0 00.5.5h67a.5.5 0 00.5-.5v-2a2.5 2.5 0 00-2.5-2.5zm-.77-25.94a.56.56 0 00-.23-.06.39.39 0 00-.18 0 2.59 2.59 0 01-2.16-2h5a2.57 2.57 0 01-2.43 2.06zM29.75 35l-3.55 8h-5l4.44-8zm20.82 0v8h-5.14v-8zm5.19 0l.89 8h-5.08v-8zm14.56 0l4.44 8h-4.93l-3.56-8zm-5.15 0l3.56 8h-5L61 35zM60 35l2.67 8h-5l-.89-8zm-15.57 8h-5.08l.89-8h4.19zm-6.08 0h-5L36 35h3.22zm-6.05 0h-5l3.56-8H35zM26 44a2.56 2.56 0 01-5 0zm6.14 0a2.57 2.57 0 01-5 0zm6.14 0a2.57 2.57 0 01-5 0zm6.13 0a2.57 2.57 0 01-5 0zm6.14 0a2.57 2.57 0 01-5 0zm6.14 0a2.57 2.57 0 01-5 0zm6.13 0a2.57 2.57 0 01-5 0zm6.14 0a2.57 2.57 0 01-5 0zm6.13 0a2.56 2.56 0 01-5 0zm.85-1l-4.45-8h3.78l5.55 8zM76 28v2h-8v-2zm-47-6.5a1.5 1.5 0 011.5-1.5h35a1.5 1.5 0 011.5 1.5V30H29v-8.5zM20 28h8v2h-8zm8.5 3H75v3H21v-3zm-7.74 4h3.78l-4.45 8h-4.88zm-6 9h5a2.59 2.59 0 01-2.16 2 .39.39 0 00-.18 0 .56.56 0 00-.23.06A2.57 2.57 0 0114.8 44zM18 47a3.58 3.58 0 002.39-1.71 3.53 3.53 0 006.13 0 3.54 3.54 0 006.14 0 3.54 3.54 0 006.14 0 3.53 3.53 0 006.13 0 3.54 3.54 0 006.14 0 3.53 3.53 0 006.13 0 3.54 3.54 0 006.14 0 3.54 3.54 0 006.14 0 3.53 3.53 0 006.13 0A3.58 3.58 0 0078 47v25H41V54.5a2.5 2.5 0 00-2.5-2.5h-10a2.5 2.5 0 00-2.5 2.5V72h-8zm22 25H27V54.5a1.5 1.5 0 011.5-1.5h10a1.5 1.5 0 011.5 1.5zm41 4H15v-1.5a1.5 1.5 0 011.5-1.5h63a1.5 1.5 0 011.5 1.5z"/><path d="M46.5 67h23a.5.5 0 00.5-.5v-10a4.51 4.51 0 00-4.5-4.5h-15a4.51 4.51 0 00-4.5 4.5v10a.5.5 0 00.5.5zm.5-10.5a3.5 3.5 0 013.5-3.5h15a3.5 3.5 0 013.5 3.5V66H47z"/><circle cx="35" cy="22" r="1"/><circle cx="35" cy="28" r="1"/><circle cx="60" cy="22" r="1"/><circle cx="60" cy="28" r="1"/></svg><svg viewBox="0 0 26 26" id="telegram" xmlns="http://www.w3.org/2000/svg"><path fill-rule="evenodd" clip-rule="evenodd" d="M26 13c0 7.18-5.82 13-13 13S0 20.18 0 13 5.82 0 13 0s13 5.82 13 13zM13.466 9.597c-1.264.526-3.792 1.614-7.581 3.265-.616.245-.938.485-.968.719-.05.396.447.552 1.12.763l.285.091c.664.216 1.557.468 2.02.478.422.009.892-.165 1.411-.52 3.54-2.39 5.368-3.599 5.483-3.625.081-.018.194-.042.27.026.076.067.068.195.06.23-.05.21-1.993 2.017-3 2.953a30.38 30.38 0 00-.582.546c-.102.105-.206.206-.306.302-.617.594-1.079 1.04.026 1.768.531.35.956.64 1.38.928.462.315.924.63 1.521 1.021.152.1.297.203.44.304.538.384 1.022.729 1.62.675.347-.033.706-.359.888-1.333.43-2.303 1.277-7.29 1.474-9.347a2.29 2.29 0 00-.022-.511.548.548 0 00-.186-.352c-.155-.127-.396-.154-.504-.152-.489.009-1.238.27-4.85 1.771z"/></svg><svg viewBox="0 0 26 26" id="whatsap" xmlns="http://www.w3.org/2000/svg"><path d="M23.88 6.12C20.04.2 12.2-1.56 6.12 2.12.2 5.8-1.72 13.8 2.12 19.72l.32.48L1.16 25l4.8-1.28.48.32c2.08 1.12 4.32 1.76 6.56 1.76 2.4 0 4.8-.64 6.88-1.92 5.92-3.84 7.68-11.68 4-17.76zm-3.36 12.32c-.64.96-1.44 1.6-2.56 1.76-.64 0-1.44.32-4.64-.96-2.72-1.28-4.96-3.36-6.56-5.76-.96-1.12-1.44-2.56-1.6-4 0-1.28.48-2.4 1.28-3.2.32-.32.64-.48.96-.48h.8c.32 0 .64 0 .8.64.32.8 1.12 2.72 1.12 2.88.16.16.16.48 0 .64.16.32 0 .64-.16.8-.16.16-.32.48-.48.64-.32.16-.48.48-.32.8.64.96 1.44 1.92 2.24 2.72.96.8 1.92 1.44 3.04 1.92.32.16.64.16.8-.16.16-.32.96-1.12 1.28-1.44.32-.32.48-.32.8-.16l2.56 1.28c.32.16.64.32.8.48.16.48.16 1.12-.16 1.6z"/></svg></svg>