<?xml version="1.0" encoding="utf-8"?><svg viewBox="0 0 1540 800" xmlns="http://www.w3.org/2000/svg" xmlns:xlink="http://www.w3.org/1999/xlink"><style>:root>svg{display:none}:root>svg:target{display:block}</style><svg viewBox="0 0 630 800" id="cook" xmlns="http://www.w3.org/2000/svg"><path d="M515.09 56.84c-23.44-52.5-194.69-90-280.81 35.42-54.43 79.26-44.46 190.04-44.46 190.04l25.085 87.04h-7.82s15.625 105.625 123.75 160.625l151.875-3.125c100-64.375 111.685-136.395 116.525-153.685l.635-.32 11.465-93.605C626.125 67.355 515.09 56.84 515.09 56.84" fill="#744C45"/><path d="M203.645 677.66s-21.25-59.06-23.435-65c-2.19-5.935-3.75-5.31-11.25-5.31s-20.935 10.935-34.375 21.56c-13.44 10.625-16.25 28.44-16.25 28.44s7.81 20.31 11.875 28.125c4.06 7.81 18.125 57.81 21.25 65 3.125 7.185 15.31 19.06 24.06 22.81 8.75 3.75 21.995 1.335 21.995 1.335 29.175-10.665 87.645-98.42 87.645-98.42l1.195 8.84c5.845 42.665 13.21 92.885 17.205 106.41h199.37c3.02-10.23 7.975-41.45 12.735-74.52l2.025-14.255L538.1 796.5h52.735s-19.07-163.835-23.745-199.19c-4.675-35.35-31.235-51.625-48.63-56.11-17.395-4.485-89.575-27.265-89.575-27.265l-51.28 4.51s-56.09 19.95-70.675 22.755c-14.59 2.81-34.79 13.465-42.08 29.18l-61.205 107.28" fill="#FFE584"/><path d="M429.275 515.16l-1.46-12.445 1.07-13.135-50.215 2.99v10.145l-1.065 19.97-87.07 22.635s29.535 35.665 112.66 35.665c95.18 0 120.685-37.79 120.685-37.79l-94.605-28.035" fill="#F8D4B3"/><path d="M378.8 483.375h49.145l.41 23.915s-3.635 19.15-38.35 15.395c-11.56-1.25-12.775-11.03-12.775-11.03l1.57-28.28" fill="#CF957E"/><path d="M247.505 119.34c120.83-162.5 347.5-29.165 363.33 70-14.165-112.5-95.745-132.5-95.745-132.5-23.44-52.5-194.69-90-280.81 35.42-54.43 79.26-44.46 190.04-44.46 190.04s14.77 7.565 14.35 7.875c-5-50 9.08-124.77 43.335-170.835" fill="#C99B88"/><path d="M233.34 290.895s-10.1-19.595-29.095-13.655c-39.63 12.385-26.92 98.28 38.56 105.69m328.365-91.705s10.1-19.595 29.1-13.655c39.625 12.38 29.095 98.28-37.41 105.69" fill="#F7CCAA"/><path d="M569.545 272.4c.81 33.21.33 86.185-14.035 129.185-26.875 80.45-112.63 98.68-153.335 98.68-40.71 0-126.46-18.23-153.335-98.68-15.19-45.445-15.71-102.075-13.745-134.66 0 0-.815-25.085 30.74-47.585 30.28-21.585 129.235-33.72 161.98-48.75 57.21-26.25 63.645-57.5 63.645-57.5s75.625 58.75 78.085 159.31" fill="#F7CCAA"/><path d="M357.76 304.73c0 24.825-15.43 44.955-34.46 44.955-19.035 0-34.47-20.13-34.47-44.955 0-24.83 15.435-44.96 34.47-44.96 19.03 0 34.46 20.13 34.46 44.96m159.605 0c0 24.825-15.43 44.955-34.465 44.955-19.035 0-34.465-20.13-34.465-44.955 0-24.83 15.43-44.96 34.465-44.96 19.035 0 34.465 20.13 34.465 44.96" fill="#FFFFFE"/><path d="M352.39 311.215c0 16.915-9.515 30.625-21.25 30.625s-21.25-13.71-21.25-30.625c0-16.91 9.515-30.625 21.25-30.625s21.25 13.715 21.25 30.625m100.825 0c0 16.915 9.51 30.625 21.25 30.625 11.735 0 21.25-13.71 21.25-30.625 0-16.91-9.515-30.625-21.25-30.625-11.74 0-21.25 13.715-21.25 30.625" fill="#1A1919"/><path d="M403.215 472.21c-52.5 0-56.25-61.25-56.875-75 0 0 55.835 17.5 111.67 0-.625 13.75-4.375 75-56.875 75" fill="#DF7370"/><path d="M304.155 354.75c0 7.77-13.11 14.07-29.275 14.07-16.17 0-29.28-6.3-29.28-14.07 0-7.775 13.11-14.075 29.28-14.075 16.165 0 29.275 6.3 29.275 14.075m254.87 0c0 7.77-13.11 14.07-29.28 14.07s-29.275-6.3-29.275-14.07c0-7.775 13.105-14.075 29.275-14.075 16.17 0 29.28 6.3 29.28 14.075" fill="#EC9896"/><path d="M352.015 300.96a6.277 6.277 0 01-6.28 6.275 6.271 6.271 0 01-6.27-6.275 6.271 6.271 0 016.27-6.275c3.47 0 6.28 2.81 6.28 6.275m142.055 0a6.276 6.276 0 01-6.275 6.275c-3.47 0-6.28-2.81-6.28-6.275a6.277 6.277 0 016.28-6.275 6.276 6.276 0 016.275 6.275" fill="#FFFFFE"/><path d="M238.005 360.175l-2.915-33.75s-8.215-20.93-20.835-24.165c-16.25-4.17-16.575 23.795-5.415 39.58 17.08 24.17 29.165 18.335 29.165 18.335m330.835 0l2.92-33.75s8.21-20.93 20.83-24.165c16.25-4.17 16.58 23.795 5.42 39.58-17.08 24.17-29.17 18.335-29.17 18.335" fill="#CF957E"/><path d="M398.925 418.04c19.75 0 37.405 9.23 49.205 23.72 8.37-17.52 9.555-37.42 9.88-44.55-55.835 17.5-111.67 0-111.67 0 .295 6.475 1.285 23.505 7.745 39.71 11.59-11.665 27.39-18.88 44.84-18.88" fill="#C2614F"/><path d="M326.335 270.785c7.985 0 15.595 1.45 22.615 3.99-6.315-9.19-15.45-15.005-25.65-15.005-11.52 0-21.69 7.4-27.95 18.72 9.135-4.875 19.695-7.705 30.985-7.705m153.75 0c-7.985 0-15.595 1.45-22.61 3.99 6.31-9.19 15.445-15.005 25.645-15.005 11.525 0 21.69 7.4 27.95 18.72-9.135-4.875-19.7-7.705-30.985-7.705" fill="#D2E0EB"/><path d="M169.585 626.1l-18.125-41.25s6.565-26.875 5-40.94c-1.565-14.06-12-26.63-19.375-33.75-9.065-8.75-13.75-15.315-15.31-20-1.565-4.69-2.19-24.375-2.19-24.375s-10 .625-12.815 3.435c-2.81 2.815-3.435 15.625-4.375 19.69-.405 1.765-37.185 82.5-37.185 82.5l10.31 17.815 41.565 22.81L134.9 657.66s27.495-6.875 34.685-31.56" fill="#F7CCAA"/><path d="M227.58 119.335c4.99 21.99 153.215 31.7 190.77 22.135 20.955-5.34 13.36-11.6-1.065-12.045-136.505-4.16-149.855-41.8-149.855-41.8l-39.85 31.71" fill="#C99B88"/><path d="M352.59 222.835c-13.125-10-46.25-15-64.375 6.875" stroke="#1A1919" stroke-width="7" stroke-linecap="round" stroke-linejoin="round" fill="none"/><path d="M354 278.67c-14.47-30.49-75.065-30.625-66.41 41.295" stroke="#1A1919" stroke-width="8" stroke-linecap="round" stroke-linejoin="round" fill="none"/><path d="M233.34 290.895s-10.1-19.595-29.095-13.655c-39.63 12.385-26.92 98.28 38.56 105.69m-37.85-82.535s13.06-8.905 29.095 26.125m335.495-54.12c.81 33.21.33 86.185-14.035 129.185-26.875 80.45-112.63 98.68-153.335 98.68-40.71 0-126.46-18.23-153.335-98.68-15.19-45.445-15.71-102.075-13.745-134.66 0 0-.815-25.085 30.74-47.585 30.28-21.585 129.235-33.72 161.98-48.75 57.21-26.25 63.645-57.5 63.645-57.5s75.625 58.75 78.085 159.31zm-118.83-49.565c13.125-10 46.25-15 64.375 6.875" stroke="#1A1919" stroke-width="7" stroke-linecap="round" stroke-linejoin="round" fill="none"/><g stroke="#1A1919" stroke-linecap="round" stroke-linejoin="round" fill="none"><path d="M450.785 281.62c11.82-33.365 76.56-35.83 67.635 38.345" stroke-width="8"/><path d="M571.17 291.225s10.1-19.595 29.1-13.655c39.625 12.38 29.095 98.28-37.41 105.69m36.32-82.535s-13.055-8.905-29.09 26.125m-294.375-28.135l11.03 6.875m232.515 0l14.785-6.875m-131.87 79.12v-10M190.92 286.1s-11.07-114.58 43.36-193.84C320.4-33.16 491.65 4.34 515.09 56.84c0 0 110.675 13.435 95.885 225.31M134.51 656.805s-15.965-47.29-26.445-57.945m43.76-16.17s5.905 29.305 17.02 42.445m-7.125-16.245s15.08-8.23 17.79 2.395c2.365 9.295 29.06 87.025 38.945 101.06M174.06 618.48c-3.87 10.06-16.825 37.12-45.975 43.03m-1.435-25.5c-4.3 6.21-12.52 19.845-7.43 26.86 6.705 9.25 26.975 67.495 33.02 86.47 6.05 18.995 29.6 31.875 45.16 23.165 34.06-19.075 87.76-96.305 87.76-96.305m92.445-157.755s-56.09 19.95-70.675 22.755c-14.59 2.81-34.79 13.465-42.08 29.18-7.3 15.71-59.895 107.595-59.895 107.595m223.93-162.895s72.18 22.78 89.575 27.27c17.395 4.485 43.955 19.61 48.63 54.96 4.675 35.355 23.745 199.19 23.745 199.19M277.75 619.755c6.72 53.31 11 87.29 14.075 110.12m242.69-108.785s-7.715 61.25-15.145 111.315m5.245 11.93L538.1 796.5M377.605 522.685l1.065-19.97m50.215 19.97l-1.07-19.97m-24.6-30.505c-52.5 0-56.25-61.25-56.875-75 0 0 55.835 17.5 111.67 0-.625 13.75-4.375 75-56.875 75" stroke-width="7"/></g><path d="M352.39 311.215c0 16.915-9.515 30.625-21.25 30.625s-21.25-13.71-21.25-30.625c0-16.91 9.515-30.625 21.25-30.625s21.25 13.715 21.25 30.625m100.825 0c0 16.915 9.51 30.625 21.25 30.625 11.735 0 21.25-13.71 21.25-30.625 0-16.91-9.515-30.625-21.25-30.625-11.74 0-21.25 13.715-21.25 30.625" fill="#1A1919"/><path d="M352.015 300.96a6.277 6.277 0 01-6.28 6.275 6.271 6.271 0 01-6.27-6.275 6.271 6.271 0 016.27-6.275c3.47 0 6.28 2.81 6.28 6.275m142.055 0a6.276 6.276 0 01-6.275 6.275c-3.47 0-6.28-2.81-6.28-6.275a6.277 6.277 0 016.28-6.275 6.276 6.276 0 016.275 6.275" fill="#FFFFFE"/><path d="M205.21 367.465s9.375 94.375 125.205 161.875m267.715-160s-4.795 88.34-117.5 157.5" stroke="#1A1919" stroke-width="7" stroke-linecap="round" stroke-linejoin="round" fill="none"/><path d="M522.23 543.905s-26.38 37.08-118.6 37.08c-85.25 0-109.785-34.48-109.785-34.48" stroke="#1A1919" stroke-width="6" stroke-linecap="round" stroke-linejoin="round" fill="none"/><path d="M121.285 572.35s-19.55-23.3-7.175-48.155c-6.565-7-13.8-25.6-12.135-37.68 1.46-10.575 2.915-19.55 13.96-21.63 1.58-.3 4.71 1.64 4.225 4.915-1.075 7.225.185 18.865 7.65 29.12 8.065 11.095 25.525 22.785 28.495 41.745 2.935 18.715-6.72 47.62-6.72 47.62m-82.19-11.875s10.625 30.835 43.44 28.025" stroke="#1A1919" stroke-width="7" stroke-linecap="round" stroke-linejoin="round" fill="none"/><path d="M107.88 319.725c-.105 4.05-3.525 7.25-7.65 7.165-4.11-.09-7.38-3.44-7.27-7.48l2.99-121.275c.105-4.025 3.53-7.22 7.645-7.13 4.115.08 7.375 3.43 7.28 7.475l-2.995 121.245zm-31.725 8.52c-4.105.255-7.64-2.8-7.895-6.84L60.785 200.34c-.245-4.015 2.89-7.5 6.995-7.755 4.12-.25 7.66 2.82 7.905 6.835l7.475 121.06c.255 4.045-2.88 7.51-7.005 7.765zM50.61 329.95c-4.08.6-7.865-2.16-8.47-6.165l-17.89-119.96c-.605-3.995 2.225-7.725 6.3-8.31 4.08-.595 7.87 2.155 8.465 6.135L56.91 321.635c.595 3.995-2.225 7.72-6.3 8.315zm63.37-166.085c-15.54-16.355-47.605-31.415-88.285-15.3-23.09 9.155-26.27 28.955-19.655 51.59l27.82 152.21 43.485 10.92 43.71-17.805s7.155-133.38 7.38-133.395c1.455-18.535-1.425-34.5-14.455-48.22" fill="#B4B5B4"/><path d="M107.88 319.725c-.105 4.05-3.525 7.25-7.65 7.165-4.11-.09-7.38-3.44-7.27-7.48l2.99-121.275c.105-4.025 3.53-7.22 7.645-7.13 4.115.08 7.375 3.43 7.28 7.475l-2.995 121.245zm-31.725 8.52c-4.105.255-7.64-2.8-7.895-6.84L60.785 200.34c-.245-4.015 2.89-7.5 6.995-7.755 4.12-.25 7.66 2.82 7.905 6.835l7.475 121.06c.255 4.045-2.88 7.51-7.005 7.765zM50.61 329.95c-4.08.6-7.865-2.16-8.47-6.165l-17.89-119.96c-.605-3.995 2.225-7.725 6.3-8.31 4.08-.595 7.87 2.155 8.465 6.135L56.91 321.635c.595 3.995-2.225 7.72-6.3 8.315zm63.37-166.085c-15.54-16.355-47.605-31.415-88.285-15.3-23.09 9.155-26.27 28.955-19.655 51.59l27.82 152.21 43.485 10.92 43.71-17.805s7.155-133.38 7.38-133.395c1.455-18.535-1.425-34.5-14.455-48.22z" stroke="#1A1919" stroke-width="6" stroke-linecap="round" stroke-linejoin="round" fill="none"/><path d="M121.055 345.48S88.45 373.6 91.66 408.17c3.22 34.58 20.705 208.135 21.45 213.455 2.66 19.08-33.67 23.645-35.005 1.295-.325-5.365-3.105-178.945-4.175-213.655-1.06-34.705-40.07-56.9-40.07-56.9s60.79 2.455 87.195-6.885" fill="#86BF55"/><path d="M121.055 345.48S88.45 373.6 91.66 408.17c3.22 34.58 20.705 208.135 21.45 213.455 2.66 19.08-33.67 23.645-35.005 1.295-.325-5.365-3.105-178.945-4.175-213.655-1.06-34.705-40.07-56.9-40.07-56.9s60.79 2.455 87.195-6.885z" stroke="#1A1919" stroke-width="6" stroke-linecap="round" stroke-linejoin="round" fill="none"/><path d="M62.195 553.405s-7.89 4.46-7.755 10.26c.135 5.81 3.05 11.67 13.06 11.39 10.02-.275 29.265-3.38 33.3-5.315 6.64-3.18 6.2-15.03-1.125-17.02-10.055-2.735-22.07-2.785-37.48.685" fill="#F7CCAA"/><path d="M62.195 553.405s-7.89 4.46-7.755 10.26c.135 5.81 3.05 11.67 13.06 11.39 10.02-.275 29.265-3.38 33.3-5.315 6.64-3.18 6.2-15.03-1.125-17.02-10.055-2.735-22.07-2.785-37.48.685z" stroke="#1A1919" stroke-width="7" stroke-linecap="round" stroke-linejoin="round" fill="none"/><path d="M54.565 529.025s-9.245 4.25-9.645 10.755c-.4 6.505 2.31 13.34 13.54 13.975 11.235.635 33.055-1.025 37.755-2.81 7.73-2.925 8.36-16.225.345-19.155-10.99-4.005-24.425-5.195-41.995-2.765" fill="#F7CCAA"/><path d="M54.565 529.025s-9.245 4.25-9.645 10.755c-.4 6.505 2.31 13.34 13.54 13.975 11.235.635 33.055-1.025 37.755-2.81 7.73-2.925 8.36-16.225.345-19.155-10.99-4.005-24.425-5.195-41.995-2.765z" stroke="#1A1919" stroke-width="7" stroke-linecap="round" stroke-linejoin="round" fill="none"/><path d="M39.495 479.22c4.77-2.245 19.3.085 26.905 1.795 10.625 2.385 17.625 19.53 3.25 21.405s-27.91 1.89-33.465-.385c-6.875-2.815-7.315-17.815 3.31-22.815" fill="#F7CCAA"/><path d="M39.495 479.22c4.77-2.245 19.3.085 26.905 1.795 10.625 2.385 17.625 19.53 3.25 21.405s-27.91 1.89-33.465-.385c-6.875-2.815-7.315-17.815 3.31-22.815z" stroke="#1A1919" stroke-width="7" stroke-linecap="round" stroke-linejoin="round" fill="none"/><path d="M44.885 507.405s-8.555-.13-9.495 6.745c-.935 6.875 1.4 14.34 13.275 15.905 11.875 1.56 28.625 2.36 33.755.845 8.44-2.5 10.595-17.75 1.875-20.31-13.65-4.015-27.61-4.515-39.41-3.185" fill="#F7CCAA"/><path d="M44.885 507.405s-8.555-.13-9.495 6.745c-.935 6.875 1.4 14.34 13.275 15.905 11.875 1.56 28.625 2.36 33.755.845 8.44-2.5 10.595-17.75 1.875-20.31-13.65-4.015-27.61-4.515-39.41-3.185z" stroke="#1A1919" stroke-width="7" stroke-linecap="round" stroke-linejoin="round" fill="none"/><path d="M516.435 796.395l13.15-90.295c-36.25-36.25-46.425-90-46.425-90s-1.37-66.565-12.725-93.605l-21.79-8.75c14.085 52.545 12.76 99.405 12.76 99.405H352.59s-1.325-46.86 12.76-99.405l-21.79 8.75c-11.36 27.04-12.725 93.605-12.725 93.605s-12.5 56.25-48.75 92.5l14.58 87.05 219.77.745" fill="#F1A948"/><path d="M406.46 714.85c-85 0-107.5-25-107.5-23.75-2.405 2.84-14.22 14.84-16.875 17.5l14.58 87.05 219.77.745 13.15-90.295c-2.385-2.385-10.965-13.745-13.125-16.25 0 .625-25 25-110 25" fill="#D89145"/><path d="M516.435 796.395l13.15-90.295c-36.25-36.25-46.425-90-46.425-90s-1.37-66.565-12.725-93.605l-21.79-8.75c14.085 52.545 12.76 99.405 12.76 99.405H352.59s-1.325-46.86 12.76-99.405l-21.79 8.75c-11.36 27.04-12.725 93.605-12.725 93.605s-12.5 56.25-48.75 92.5l14.58 87.05" stroke="#1A1919" stroke-width="7" stroke-linecap="round" stroke-linejoin="round" fill="none"/></svg><svg viewBox="0 0 48 48" id="cream" xmlns="http://www.w3.org/2000/svg"><path fill="#F48FB1" d="M34.717 17.486c-.548 0-4.203-3.655-4.203-4.202l-1.04-5.653c0-.548.443-.99.989-.99 0 0 5.654-.36 8.455 2.441 2.802 2.801 2.441 8.454 2.441 8.454a.99.99 0 01-.99.99l-5.652-1.04z"/><path fill="#FF80AB" d="M34.413 25.744l-1.048-6.906c-.412-1.651-2.414-3.79-4.203-4.203l-6.714-1.012c-2.337-.55-4.811.551-5.773 2.749l-5.771 16.523 4.202 4.201 16.559-5.854c2.199-.963 3.436-3.3 2.748-5.498z"/><path fill="#F8BBD0" d="M33.365 17.437c-.387.388-3.189-2.414-2.802-2.802l5.554-8.354c.387-.387 2.101-.7 4.201 1.401 2.102 2.101 1.788 3.814 1.401 4.201l-8.354 5.554z"/><path fill="#9FA8DA" d="M12.304 38.497l-2.801-2.801L6 40.6 7.4 42z"/><path fill="#3F51B5" d="M8.803 34.996a.986.986 0 000 1.4l2.801 2.802a.987.987 0 001.4 0l2.102-2.102-4.202-4.201-2.101 2.101z"/><path d="M26.464 18.958c-.796.416-2.757.477-3.125-.295-.564-.768.645-1.784 1.636-2.207 1.188-.428 5.272-.637 5.272-.637s-2.398 2.704-3.783 3.139zm5.717-1.205s-.208 4.085-.637 5.272c-.423.991-1.439 2.2-2.208 1.636-.771-.368-.71-2.328-.294-3.125.435-1.385 3.139-3.783 3.139-3.783zm-1.668-4.469l4.201 4.202-1.4 1.4-4.201-4.202z" fill="#E91E63"/></svg><svg viewBox="0 0 286.559 283.246" version="1.0" id="electriÑ" xmlns="http://www.w3.org/2000/svg"><path d="M286.56 252.3c0 3.11-2.545 5.657-5.656 5.657H5.664c-3.115 0-5.66-2.55-5.66-5.66V25.887c0-3.111 2.545-5.657 5.657-5.657h275.25c3.111 0 5.656 2.545 5.656 5.657v226.41z" fill="#231F20"/><path d="M28.655 234.29a4.774 4.774 0 01-3.33-1.362 4.663 4.663 0 01-1.378-3.294V78.894c0-1.228.5-2.428 1.378-3.293a4.762 4.762 0 013.33-1.363h229.25c1.24 0 2.451.496 3.33 1.363a4.656 4.656 0 011.379 3.293v150.73a4.669 4.669 0 01-1.379 3.294 4.78 4.78 0 01-3.33 1.362H28.665l-.005.01zm229.24-4.66v-4.654 4.65z" fill="#FFF"/><path d="M61.405 105.65c-2.514 0-4.548-2.01-4.548-4.496 0-2.481 2.034-4.496 4.548-4.496h163.75c2.51 0 4.549 2.014 4.549 4.496 0 2.486-2.039 4.496-4.549 4.496H61.395h.005zM255.86 277.59c0 3.111-2.545 5.657-5.658 5.657h-19.385c-3.113 0-5.658-2.546-5.658-5.657v-8.917c0-3.112 2.545-5.657 5.658-5.657h19.38c3.113 0 5.658 2.545 5.658 5.657v8.92zm-194.455 0c0 3.111-2.546 5.657-5.657 5.657H36.359c-3.111 0-5.657-2.546-5.657-5.657v-8.917c0-3.112 2.546-5.657 5.657-5.657h19.389c3.111 0 5.657 2.545 5.657 5.657v8.92zM282.84 12.851c2.043 1.277 1.744 2.321-.664 2.321H4.376c-2.41 0-2.665-.969-.566-2.153L23.06 2.154C25.16.969 28.849 0 31.259 0h226.62c2.408 0 6.055 1.044 8.098 2.321l16.86 10.53z" fill="#231F20"/><path d="M75.731 45.899c0 8.59-7.042 15.555-15.733 15.555-8.692 0-15.735-6.965-15.735-15.555 0-8.586 7.043-15.556 15.735-15.556 8.691 0 15.733 6.97 15.733 15.556zm39.659 0c0 8.59-7.045 15.555-15.735 15.555-8.691 0-15.733-6.965-15.733-15.555 0-8.586 7.042-15.556 15.733-15.556 8.695 0 15.735 6.97 15.735 15.556zm87.25 0c0 8.59-7.045 15.555-15.734 15.555-8.693 0-15.738-6.965-15.738-15.555 0-8.586 7.045-15.556 15.738-15.556 8.69 0 15.73 6.97 15.73 15.556zm39.66 0c0 8.59-7.047 15.555-15.738 15.555-8.689 0-15.732-6.965-15.732-15.555 0-8.586 7.043-15.556 15.732-15.556 8.69 0 15.74 6.97 15.74 15.556z" fill="#FFF"/></svg><svg viewBox="0 0 209 228" id="ingredients" xmlns="http://www.w3.org/2000/svg"><path fill="#ECEFF9" d="M16 85h80v130H16z"/><path fill="#D5E3EF" d="M106 85h50v130h-50z"/><path fill="#FFF" d="M98.5 75L121 45H43.5L21 75z"/><path fill="#E2E7F0" d="M116 45L93.5 75h5L121 45z"/><path fill="#ECEFF9" d="M126 20c0-3-2.002-5-5-5H51c-3 0-5 2-5 5v15h80V20z"/><path fill="#B0C4D8" d="M111 75h40l-20-26.499z"/><path fill="#014463" d="M81 135H31c-3 0-5-2.002-5-5s2-5 5-5h50c3 0 5 2.002 5 5s-2 5-5 5m-10 20H41c-3 0-5-2.002-5-5s2-5 5-5h30c3 0 5 2.002 5 5s-2 5-5 5"/><path fill="#99B5CD" d="M131 48.501L111 75h12.998z"/><path fill="#FFF" d="M16 85h5v130h-5z"/><path fill="#D5E3EF" d="M91 97.002V205c0 2.998-2 5-5 5H38c-4.5 0-8.999 2.002-12 5h70V85.002c-3 2.996-5 7.5-5 12"/><path fill="#B0C4D9" d="M151 97.002V205c0 2.998-2.002 5-5 5h-27.998c-4.502 0-9.004 2.002-12.002 5h50V85.002c-2.998 2.996-5 7.5-5 12"/><path fill="#D5E3EF" d="M121 15v20h5V20c0-3-2.002-5-5-5"/><path fill="#014463" d="M164.999 77L136 38.501V20c0-8.501-6.499-15-15-15H51c-8.501 0-15 6.499-15 15v18.501L7.001 77C6.5 78 6 78.999 6 80v140c0 2.998 2 5 5 5h150c2.998 0 5-2.002 5-5V80c0-1.001-.498-2-1.001-3M151 75h-40l20-26.499L151 75zM46 20c0-3 2-5 5-5h70c2.998 0 5 2 5 5v15H46V20zm50 195H16V85h80v130zm2.5-140H21l22.5-30H121L98.5 75zM156 215h-50V85h50v130z"/><path fill="#C9D5E3" d="M196 157.002V125h-60v37.002c7.998 3.999 20 3.496 27.002-1.504 8.999-5.996 22.5-6.997 32.998-3.496"/><path fill="#FFF" d="M169.003 168.999c-9.004 6.001-22.002 7.5-33.003 3.999V205c0 5.498 4.502 10 10 10h40c5.503 0 10-4.502 10-10v-37.002c-7.998-4.497-20-3.999-26.997 1.001"/><path fill="#DDE1E3" d="M186 165v40c0 2.998-2.002 5-5 5h-43.501c1.499 2.998 5 5 8.501 5h40c5.498 0 10-4.502 10-10v-37.002c-2.998-1.499-6.499-2.5-10-2.998"/><path fill="#A7B0C4" d="M162.997 161.001c1.001-.503 2.002-1.001 3.003-1.499V125h-10v38.999c2.5-.498 5-1.499 6.997-2.998"/><path fill="#E2E7F0" d="M166 158.999c8.999-4.497 20.498-5.498 30-1.997V125h-30v33.999z"/><path fill="#C9D5E3" d="M186 125v30c3.501 0 7.002 1.001 10 2.002V125h-10z"/><path fill="#ECF0F9" d="M146 155c-2.998 0-5-2.002-5-5v-25h10v25c0 2.998-2.002 5-5 5"/><path fill="#014463" d="M201 115h-70c-2.998 0-5 2.002-5 5v85c0 11.001 8.999 20 20 20h40c11.001 0 20-8.999 20-20v-85c0-2.998-2.002-5-5-5m-65 10h60v32.002c-10.498-3.501-23.999-2.5-32.998 3.999-7.5 5-19.004 5.498-27.002 1.499V125zm60 80c0 5.498-4.502 10-10 10h-40c-5.498 0-10-4.502-10-10v-32.002c3.999 1.504 7.998 2.002 12.5 2.002 7.5 0 14.502-2.002 20.498-6.001 7.5-5 19.004-5.498 27.002-1.001V205z"/></svg><svg viewBox="0 0 128 128" id="mixer" xmlns="http://www.w3.org/2000/svg"><path fill="#E5E3E3" d="M11.5 54h80m-80-10h15.4M12.7 34h14.2"/><path fill="#A5A4AA" d="M23.5 17.6V4h6v5.4"/><path d="M94.5 4h-40c-22.1 0-40 17.9-40 40v10c0 5.5 4.5 10 10 10h80c5.5 0 10-4.5 10-10V24c0-11-9-20-20-20zm10 30h-45V24c0-5.5 4.5-10 10-10h25c5.5 0 10 4.5 10 10v10z" fill="#9FD9DA"/><path d="M24.5 54V44c0-22.1 17.9-40 40-40h-10c-22.1 0-40 17.9-40 40v10c0 5.5 4.5 10 10 10h10c-5.5 0-10-4.5-10-10z" opacity=".1"/><path fill="#E5E3E3" d="M31.5 64.7V104m-10-20v40m20-40v40"/><path d="M94 1.5H54c-7.8 0-15.2 2.1-21.5 5.9V4c0-1.4-1.1-2.5-2.5-2.5h-6c-1.4 0-2.5 1.1-2.5 2.5v12.7c-4 4.8-7.1 10.5-8.7 16.8v.1c-.9 3.3-1.3 6.9-1.3 10.5v10c0 6.9 5.6 12.5 12.5 12.5h7.5v15H22c-4.1 0-7.5 3.4-7.5 7.5v30c0 4.1 3.4 7.5 7.5 7.5h24c4.1 0 7.5-3.4 7.5-7.5v-30c0-4.1-3.4-7.5-7.5-7.5h-9.5v-15H104c6.9 0 12.5-5.6 12.5-12.5V24c0-12.4-10.1-22.5-22.5-22.5zM19.5 119V89c0-1.2.9-2.2 2-2.4v34.9c-1.1-.3-2-1.3-2-2.5zm29-30v30c0 1.2-.9 2.2-2 2.4V86.6c1.1.2 2 1.2 2 2.4zm-7-2.5v35h-15v-35h5V104c0 1.4 1.1 2.5 2.5 2.5s2.5-1.1 2.5-2.5V86.5h5zm-14-80v2.9c0 .4-.6 1.9-1 2.3V6.5h1zm84 47.5c0 4.1-3.4 7.5-7.5 7.5H24c-3.3 0-6-2.1-7.1-5H94c1.4 0 2.5-1.1 2.5-2.5s-1.1-2.5-2.5-2.5H16.5v-5h12.9c1.4 0 2.5-1.1 2.5-2.5s-1.1-2.5-2.5-2.5H16.6c.1-1.7.3-3.4.7-5h12.1c1.4 0 2.5-1.1 2.5-2.5s-1.1-2.5-2.5-2.5H18.7c5.1-14.5 19-25 35.3-25h40c9.6 0 17.5 7.9 17.5 17.5v30z" fill="#62355C"/><path d="M94 11.5H69c-6.9 0-12.5 5.6-12.5 12.5v10c0 1.4 1.1 2.5 2.5 2.5h45c1.4 0 2.5-1.1 2.5-2.5V24c0-6.9-5.6-12.5-12.5-12.5zm7.5 20h-40V24c0-4.1 3.4-7.5 7.5-7.5h25c4.1 0 7.5 3.4 7.5 7.5v7.5z" fill="#62355C"/></svg><svg viewBox="0 0 128 128" id="saucepan" xmlns="http://www.w3.org/2000/svg"><path d="M99 124H29c-5.5 0-10-4.5-10-10V44h90v70c0 5.5-4.5 10-10 10z" fill="#E5E3E3"/><path d="M19 114c0 5.5 4.5 10 10 10h70c5.5 0 10-4.5 10-10H19z" fill="#FDB915"/><path d="M34 114V44H19v70c0 5.5 4.5 10 10 10h15c-5.5 0-10-4.5-10-10z" opacity=".1"/><path fill="#E5E3E3" d="M62.8 114H20m-1-77v-5h90v5M4 49h15v6m90 0v-6h15"/><path d="M109 39.5c1.4 0 2.5-1.1 2.5-2.5v-5c0-1.4-1.1-2.5-2.5-2.5H77.8V22c0-1.4-1.1-2.5-2.5-2.5h-25c-1.4 0-2.5 1.1-2.5 2.5v7.5H19c-1.4 0-2.5 1.1-2.5 2.5v5c0 1.4 1.1 2.5 2.5 2.5s2.5-1.1 2.5-2.5v-2.5h85V37c0 1.4 1.1 2.5 2.5 2.5zm-56.2-10v-5h20v5h-20zm71.2 17h-12.5V44c0-1.4-1.1-2.5-2.5-2.5H19c-1.4 0-2.5 1.1-2.5 2.5v2.5H4c-1.4 0-2.5 1.1-2.5 2.5s1.1 2.5 2.5 2.5h12.5V114c0 6.9 5.6 12.5 12.5 12.5h70c6.9 0 12.5-5.6 12.5-12.5V51.5H124c1.4 0 2.5-1.1 2.5-2.5s-1.1-2.5-2.5-2.5zm-25 75H29c-3.3 0-6-2.1-7.1-5h40.8c1.4 0 2.5-1.1 2.5-2.5s-1.1-2.5-2.5-2.5H21.5v-65h85V114c0 4.1-3.4 7.5-7.5 7.5z" fill="#62355C"/></svg><svg viewBox="0 0 128 128" id="scales" xmlns="http://www.w3.org/2000/svg"><path d="M98.3 124H29c-2.9 0-5.2-2.5-5-5.4l2.1-29.7C27.6 69.2 43.9 54 63.7 54c19.7 0 36.1 15.2 37.5 34.9l2.1 29.7c.2 2.9-2.1 5.4-5 5.4z" fill="#F2E7AC"/><path d="M63.7 54C44 54 27.6 69.2 26.2 88.9L24 118.6c-.2 2.9 2.1 5.4 5 5.4h10c-2.9 0-5.2-2.5-5-5.4l2.1-29.7c1.3-18 10.1-32.2 27.5-34.6-1.6-.2 1.8-.3.1-.3z" opacity=".1"/><path d="M124 29c0 8.3-6.7 15-15 15H19c-8.3 0-15-6.7-15-15" fill="#A5A4AA"/><path d="M14 29H4c0 8.3 6.7 15 15 15h10c-8.3 0-15-6.7-15-15z" opacity=".1"/><path d="M38.7 92c0-13.8 11.2-25 25-25s25 11.2 25 25" fill="#F8F7FB"/><path d="M63.7 54c6.8 0 13.2 1.8 18.7 5h1.3V44h-40v15H45c5.5-3.2 11.9-5 18.7-5z" fill="#F2E7AC"/><path d="M43.7 44v15H45c2.7-1.6 5.7-2.8 8.7-3.6V44h-10z" opacity=".1"/><path d="M73.7 54c-1.7 0-3.4.1-5 .3 4.9.7 9.6 2.3 13.7 4.7h1.3v-3.6c-3.2-.9-6.6-1.4-10-1.4z" fill="#F2E7AC"/><path fill="#EFEB66" d="M53.7 92h10m25 0h-5m-2.4-17.7l-3.5 3.6M63.7 67v5M46 74.3l3.5 3.6M38.7 92h5M4 29h120"/><g fill="#62355C"><path d="M63.7 89.5h-10c-1.4 0-2.5 1.1-2.5 2.5s1.1 2.5 2.5 2.5h10c1.4 0 2.5-1.1 2.5-2.5s-1.2-2.5-2.5-2.5z"/><path d="M83 72.4c-5-4.9-11.8-7.9-19.3-7.9s-14.3 3-19.3 7.9c-.1 0-.1.1-.2.1 0 0-.1.1-.1.2-4.9 5-7.9 11.8-7.9 19.3 0 1.4 1.1 2.5 2.5 2.5h5c1.4 0 2.5-1.1 2.5-2.5s-1.1-2.5-2.5-2.5h-2.4c.5-4.3 2.2-8.3 4.8-11.5l1.7 1.7c.5.5 1.1.7 1.8.7s1.3-.2 1.8-.7c1-1 1-2.6 0-3.5l-1.7-1.7c3.2-2.6 7.2-4.3 11.5-4.8V72c0 1.4 1.1 2.5 2.5 2.5s2.5-1.1 2.5-2.5v-2.4c4.3.5 8.3 2.2 11.5 4.8L76 76.1c-1 1-1 2.6 0 3.5.5.5 1.1.7 1.8.7s1.3-.2 1.8-.7l1.7-1.7c2.6 3.2 4.3 7.2 4.8 11.5h-2.4c-1.4 0-2.5 1.1-2.5 2.5s1.1 2.5 2.5 2.5h5c1.4 0 2.5-1.1 2.5-2.5 0-7.5-3-14.3-7.9-19.3 0-.1-.1-.1-.1-.2-.1.1-.2.1-.2 0z"/><path d="M124 26.5H4c-1.4 0-2.5 1.1-2.5 2.5 0 9.7 7.9 17.5 17.5 17.5h22.2v12c-9.8 6.7-16.6 17.7-17.5 30.3l-2.1 29.7c-.1 2.1.6 4.1 2 5.6s3.4 2.4 5.5 2.4h69.3c2.1 0 4.1-.9 5.5-2.4 1.4-1.5 2.1-3.6 2-5.6l-2.1-29.7c-.9-12.6-7.7-23.6-17.5-30.3v-12H109c9.7 0 17.5-7.9 17.5-17.5 0-1.4-1.1-2.5-2.5-2.5zM98.7 89.1l2.1 29.7c0 .7-.2 1.4-.7 1.9-.5.5-1.1.8-1.8.8H29c-.7 0-1.4-.3-1.8-.8-.5-.5-.7-1.2-.7-1.9l2.1-29.7c1.3-18.3 16.7-32.6 35-32.6 18.4 0 33.8 14.3 35.1 32.6zM46.2 55.6v-9.1h35v9.1c-5.3-2.6-11.3-4.1-17.5-4.1-6.3 0-12.2 1.5-17.5 4.1zM109 41.5H19c-6 0-11.1-4.3-12.2-10h114.5c-1.2 5.7-6.3 10-12.3 10z"/></g></svg><svg viewBox="0 0 254.441 158.341" id="teflon" xmlns="http://www.w3.org/2000/svg"><path d="M33.367 156.493l-5.503-49.523L8.605 42.589l3.852-5.503 100.148-19.81L191.293 4.62l49.524-2.75.55 26.962 1.65 24.212 9.355 53.926-67.132 13.756L69.684 146.59l-17.608 4.952z" fill="#efa" fill-rule="evenodd" stroke="#000"/><path d="M236.14.003c-6.379-.055-17.253.574-29.992 1.813-6.325.615-13.3 1.201-15.5 1.303-4.89.224-23.144 3.037-32.568 5.02-3.81.8-9.516 1.733-12.68 2.07-3.163.336-5.999.761-6.3.947-.487.299-15.392 2.975-21.952 3.941-6.837 1.007-11.693 1.808-13.5 2.23-1.1.258-3.575.63-5.5.829-1.925.198-8.9 1.763-15.5 3.476-14.272 3.706-16.679 4.24-31 6.873-16.439 3.024-22.386 4.172-28.916 5.58-3.253.702-7.865 1.221-10.25 1.157-2.384-.065-4.336.246-4.336.691 0 .445-.56.48-1.248.078-.687-.402-.43.207.573 1.352 1.772 2.023 1.765 2.098-.25 2.738-1.14.362-2.073 1.266-2.073 2.008s-.562 1.576-1.25 1.853c-.687.278-.05.54 1.416.584 1.971.059 2.9.781 3.563 2.77.84 2.521.589 2.843-3.99 5.125L0 54.876l6.934 6.625c3.813 3.643 7.274 7.748 7.691 9.123.417 1.375 1.406 3.24 2.197 4.143.791.903 3.256 8.103 5.475 16 2.99 10.641 4.247 17.335 4.857 25.857 1.267 17.689 4.177 38.747 5.71 41.319.267.45 1.227.53 2.134.18.907-.352 3-.904 4.65-1.23 1.65-.324 4.051-1.27 5.336-2.1 2.14-1.384 4.65-2.003 15.414-3.803 2.063-.345 3.75-.99 3.75-1.434 0-.443.788-.78 1.75-.748 3.113.106 16.468-2.35 20.48-3.766 2.146-.757 7.359-1.64 11.585-1.964 4.226-.324 10.385-1.48 13.685-2.569 3.3-1.088 11.85-3.025 19-4.305 7.15-1.28 18.4-3.686 25-5.345 30.703-7.72 50.797-11.227 55.598-9.703 3.28 1.04 6.408 1.602 14.25 2.552 4.317.524 9.608 1.345 11.758 1.828 4.372.983 4.176 1.278 5.4-8.162.413-3.18 1.092-4.75 2.055-4.75 1.807 0 1.632.044 6.152-1.52 3.438-1.188 3.761-1.608 3.516-4.556-.149-1.786-1.193-6.86-2.32-11.277-1.128-4.417-2.237-9.406-2.465-11.088-.228-1.682-.655-4.184-.947-5.559-.293-1.375-1.449-8.575-2.569-16-1.12-7.425-2.263-14.85-2.539-16.5-.276-1.65-.677-12.225-.892-23.5-.216-11.275-.417-21.07-.446-21.77-.022-.538-2.23-.818-6.058-.85zm1.53 2.926c1.175-.051 1.404 3.685 1.937 22.195.317 11 .97 22.7 1.454 26 .482 3.3 1.411 10.05 2.064 15 .653 4.95 1.434 9.675 1.736 10.5.302.825.702 2.625.887 4 .185 1.375 1.437 7.675 2.783 14 1.346 6.325 2.148 11.763 1.781 12.082-2.033 1.775-40.13 9.624-58.003 11.952-4.586.597-11.111 1.93-14.5 2.962-3.39 1.032-8.955 2.372-12.37 2.977-3.414.605-10.614 2.44-16 4.074-5.385 1.635-12.716 3.246-16.29 3.58-3.576.334-10.326 1.722-15 3.084-4.676 1.362-13.9 3.334-20.5 4.383-21.29 3.384-24.873 4.012-32.5 5.69-4.126.907-12.32 3.308-18.208 5.337-7.846 2.704-10.948 3.382-11.61 2.536-1.538-1.963-3.947-17.855-5.177-34.157-.518-6.864-2.161-17.135-3.842-24-1.615-6.6-3.252-14.219-3.638-16.931-.387-2.713-2.223-9.473-4.08-15.024-1.963-5.864-3.133-11.024-2.795-12.318.401-1.535.138-2.227-.848-2.227-.786 0-2.038-1.545-2.78-3.435-1.652-4.213-1.564-4.872.698-5.184.978-.135 4.254-.733 7.28-1.328a550.133 550.133 0 0111-2.023c16.788-2.876 27.771-5.129 38.5-7.897 16.434-4.24 18.693-4.759 29-6.67 4.95-.918 9.9-1.85 11-2.07 1.1-.22 4.584-.616 7.744-.88 3.159-.266 9.009-1.19 13-2.054 3.99-.863 10.18-2.008 13.755-2.545 3.575-.536 13.025-2.285 21-3.888 16.729-3.362 37.034-5.531 60.2-6.43 5.885-.228 11.176-.709 11.757-1.068.21-.13.397-.216.565-.223z"/></svg><svg viewBox="0 0 64 64" id="thermometer" xmlns="http://www.w3.org/2000/svg"><circle cx="32" cy="32" fill="#ECEFF1" r="24"/><path d="M46.057 6.13L27.988 24.199a22.529 22.529 0 00-5.209 8.14l-2.328 6.32a12.013 12.013 0 01-2.775 4.337L5.751 54.92a2 2 0 002.829 2.828l11.925-11.925a12.004 12.004 0 014.337-2.775l6.319-2.328a22.535 22.535 0 008.141-5.208L57.37 17.444a5.001 5.001 0 000-7.071L53.127 6.13a4.998 4.998 0 00-7.07 0z" fill="#ECEFF1"/><path d="M57.37 10.373l-1.06-1.061a5.001 5.001 0 010 7.071L38.241 34.452A22.508 22.508 0 0130.1 39.66l-6.319 2.328a11.99 11.99 0 00-4.337 2.775L7.519 56.688a1.996 1.996 0 01-2.192.425c.097.231.237.448.425.635a2 2 0 002.829 0l11.925-11.925a12.004 12.004 0 014.337-2.775l6.319-2.328a22.535 22.535 0 008.141-5.208L57.37 17.444a5.001 5.001 0 000-7.071z" fill="#CFD8DC"/><path d="M6.812 55.981l11.925-11.925a11.986 11.986 0 002.775-4.337l2.328-6.32a22.529 22.529 0 015.209-8.14L47.117 7.19a5 5 0 017.071 0l-1.061-1.06a4.998 4.998 0 00-7.07 0L27.988 24.199a22.529 22.529 0 00-5.209 8.14l-2.328 6.32a12.013 12.013 0 01-2.775 4.337L5.751 54.92a2 2 0 00.636 3.254 1.996 1.996 0 01.425-2.193z" fill="#FFF"/><path d="M7.165 58.834c-.667 0-1.295-.26-1.768-.732-.473-.472-.732-1.1-.732-1.768s.26-1.296.732-1.768l11.925-11.925a11.427 11.427 0 002.66-4.156l2.328-6.32a23.186 23.186 0 015.324-8.321L45.703 5.776c1.038-1.039 2.42-1.611 3.889-1.611s2.851.572 3.889 1.611l4.243 4.243a5.507 5.507 0 010 7.778L39.655 35.866a23.191 23.191 0 01-8.321 5.324l-6.319 2.328a11.573 11.573 0 00-4.156 2.659L8.934 58.102a2.488 2.488 0 01-1.769.732zM49.592 5.166a4.47 4.47 0 00-3.182 1.318L28.342 24.552a22.201 22.201 0 00-5.094 7.959l-2.328 6.32a12.415 12.415 0 01-2.891 4.518L6.104 55.274c-.283.283-.439.66-.439 1.061s.156.777.439 1.061c.567.567 1.557.566 2.122 0L20.151 45.47a12.585 12.585 0 014.518-2.891l6.319-2.328a22.163 22.163 0 007.96-5.093L57.017 17.09a4.506 4.506 0 000-6.364l-4.243-4.243a4.47 4.47 0 00-3.182-1.317z" fill="#37474F"/><path d="M33.328 33L30.5 30.171a.999.999 0 010-1.414l7.778-7.778a1 1 0 011.414 0l2.828 2.829a.999.999 0 010 1.414L34.742 33a.999.999 0 01-1.414 0z" fill="#B2FF59"/><path d="M34.035 33.793c-.4 0-.777-.156-1.061-.439l-2.828-2.829a1.49 1.49 0 01-.439-1.061c0-.4.156-.777.439-1.061l7.778-7.778c.566-.566 1.555-.566 2.121 0l2.828 2.829c.283.283.439.66.439 1.061s-.156.777-.439 1.061l-7.778 7.778a1.485 1.485 0 01-1.06.439zm4.95-12.606a.5.5 0 00-.354.146l-7.778 7.778a.495.495 0 00-.146.354c0 .134.052.259.146.353l2.828 2.829a.513.513 0 00.707 0l7.778-7.779a.5.5 0 000-.708l-2.828-2.829a.498.498 0 00-.353-.144z" fill="#37474F"/><circle cx="44.996" cy="18.504" fill="#CFD8DC" r="2.5"/><path d="M44.996 21.504a2.978 2.978 0 01-2.122-.879 3.005 3.005 0 010-4.243c1.132-1.132 3.109-1.133 4.243 0 .566.567.879 1.32.879 2.122s-.313 1.555-.879 2.121a2.978 2.978 0 01-2.121.879zm0-5a1.99 1.99 0 00-1.415.585 2.004 2.004 0 000 2.829c.755.755 2.072.756 2.829 0 .378-.378.586-.88.586-1.414s-.208-1.037-.586-1.415a1.99 1.99 0 00-1.414-.585z" fill="#37474F"/><path d="M57.37 10.373L53.127 6.13a4.998 4.998 0 00-7.07 0l-1.414 1.414 11.313 11.314 1.414-1.414a5.001 5.001 0 000-7.071z" fill="#84FFFF"/><path d="M57.37 10.373l-1.06-1.061a5.001 5.001 0 010 7.071l-1.414 1.415 1.061 1.061 1.414-1.414a5.003 5.003 0 00-.001-7.072z" fill="#18FFFF"/><path d="M47.117 7.19a5 5 0 017.071 0l-1.061-1.06a4.998 4.998 0 00-7.07 0l-1.414 1.414 1.061 1.061 1.413-1.415z" fill="#FFF"/><path d="M55.956 19.565L43.936 7.544l1.768-1.768c1.038-1.039 2.42-1.611 3.889-1.611s2.851.572 3.889 1.611l4.243 4.243a5.507 5.507 0 010 7.778l-1.769 1.768zM45.35 7.544l10.606 10.607 1.061-1.061a4.506 4.506 0 000-6.364l-4.243-4.243c-.85-.85-1.979-1.318-3.182-1.318s-2.332.468-3.182 1.318l-1.06 1.061z" fill="#37474F"/><path d="M9.287 51.385L5.751 54.92a2 2 0 102.829 2.828l3.535-3.535-2.828-2.828z" fill="#84FFFF"/><path d="M11.055 53.152l-3.536 3.536a1.996 1.996 0 01-2.192.425c.097.231.237.448.425.635a2 2 0 002.829 0l3.535-3.535-1.061-1.061z" fill="#18FFFF"/><path d="M6.812 55.981l3.536-3.536-1.061-1.061-3.536 3.536a2 2 0 00.636 3.254 1.996 1.996 0 01.425-2.193z" fill="#FFF"/><path d="M7.166 58.834c-.668 0-1.296-.26-1.769-.732-.473-.472-.732-1.1-.732-1.768s.26-1.296.732-1.768l3.89-3.889 3.535 3.536-3.889 3.889c-.472.472-1.1.732-1.767.732zm2.121-6.742l-3.183 3.182c-.283.283-.439.66-.439 1.061s.156.777.439 1.061c.565.565 1.555.567 2.122 0l3.182-3.182-2.121-2.122z" fill="#37474F"/></svg><svg viewBox="0 0 1155 574" id="zolotayakorona" xmlns="http://www.w3.org/2000/svg"><path fill="#df212f" d="M0 0h1155v574H0V0z"/><path fill="#f8bd15" d="M198.29 71.99c6.56-6.52 12.96-13.21 19.68-19.55C225 58.92 231.9 65.55 238.95 72c-7.08 6.41-13.94 13.06-20.96 19.54-6.75-6.32-13.12-13.04-19.7-19.55zM178 102.94c11.36-2.99 23.09-4.2 34.79-4.91.04 37.35.01 74.7.01 112.05-12.62.07-25.24.09-37.86.01-4.26.11-7.83-3.2-9.36-6.96-9.16-21.52-17.97-43.19-27.29-64.64-2.43 1.72-4.89 3.42-7.41 5.02 8.54 22.39 18.26 44.34 27.11 66.61-6.59-.06-13.19.19-19.77-.17-6.8-24.67-17.47-48-27.19-71.6 19.11-16.88 42.11-29.48 66.97-35.41zm45.1-4.93c16.33.9 32.67 3.36 48.13 8.85 19.79 6.57 37.78 17.77 53.53 31.33-8.59 24.51-19.43 48.15-29.86 71.92-5.67.03-11.33.03-17 0 7.59-18.5 15.24-36.97 22.84-55.47 1.53-3.67 3.15-7.32 4.31-11.12-2.5-1.72-5.04-3.38-7.67-4.89-8.77 21.37-17.88 42.6-26.76 63.92-1.52 3.99-5.11 7.66-9.64 7.54-12.63.11-25.26.01-37.89.03.07-37.37.01-74.74.01-112.11z"/><path fill="#df212f" d="M155.42 130.73c12.47-5.49 25.65-9.29 39.04-11.82.06 25.56-.08 51.12.07 76.68-4.88.01-11.68 1.71-14.23-3.86-8.52-20.23-16.45-40.73-24.88-61zm85.98-11.79c13.16 2.45 26.18 6.07 38.4 11.56.48 2.11-1.25 4.25-1.82 6.31-6.69 16.41-13.3 32.86-19.94 49.3-1.4 3.51-2.55 7.84-6.45 9.36-3.36.55-6.79.2-10.18.23.1-25.59.06-51.18-.01-76.76z"/><path fill="#fefafa" d="M331.31 143.74c14.07-12.15 33.67-15.33 51.69-14.14 12.79 1.33 26.61 3.89 36.12 13.3 8.05 7.56 9.94 19.66 7.85 30.1-1.78 9.1-7.86 17.13-16.07 21.41 7.6 4.32 15.11 10.02 18.02 18.64 3.12 10.13.85 21.35-4.13 30.51-6.51 11.79-18.88 19.21-31.71 22.26-13.34 3.08-27.37 1.55-40.3-2.59-9.24-3.06-18.08-7.6-25.41-14.06 2.87-4.11 5.39-8.44 8.13-12.63 1.43-2.26 3.55-4.38 6.38-4.56 4.76-.74 8.79 2.31 12.79 4.35 9.98 5.44 21.89 7.9 33.09 5.36 5.33-1.14 10.08-5.06 11.5-10.42 1.49-5.5 1.94-12.05-1.59-16.89-3.88-5.37-10.76-7.31-17.03-7.94-7.76-.46-15.53-.01-23.28-.26.16-7.82-.06-15.65.1-23.46 8.52-.16 17.1.53 25.57-.69 4.9-.63 9.95-3.17 12.19-7.78 2.31-5.86 1.69-13.96-4.06-17.62-6.69-4.32-15.15-4.26-22.74-3.02-6.89 1.19-12.85 4.99-19.21 7.63-3.4 1.49-7.68.34-9.66-2.86-3-4.73-5.36-9.83-8.24-14.64zm148.22 24.1c14.01-1.98 29.33.11 40.87 8.79 9.71 7.16 15.78 18.49 17.49 30.33 1.92 13.46.09 27.96-7.43 39.52-6.37 10-16.87 17.02-28.4 19.56-14.06 3.04-29.47 1.35-41.89-6.17-11.1-6.83-18.57-18.73-20.85-31.47-2.05-11.73-1.29-24.31 4.06-35.1 6.54-14.03 20.96-23.52 36.15-25.46zm206.06-.01c14.65-2.08 30.8.4 42.42 10.13 9.07 7.38 14.5 18.51 15.96 30.01 1.74 13.82-.45 28.71-8.74 40.21-6.39 9.12-16.34 15.43-27.17 17.85-14.19 3.12-29.96 1.36-42.14-6.93-9.85-6.66-16.54-17.39-18.97-28.95-2.86-13.71-1.64-28.71 5.46-41 6.96-11.79 19.69-19.58 33.18-21.32zm159.28 3.16c13.03-1.63 26.04-4.1 39.23-3.76 9.78.28 19.35 4.43 26.36 11.24 7.54 7.5 12.11 17.91 12.66 28.52.01 20.16 0 40.33 0 60.5-5.67-.12-11.36.27-17.01-.17-5.19-.5-5.36-6.83-7.78-10.32-6.5 3.6-12 9.22-19.44 10.91-10.22 2.57-21.81 1.68-30.75-4.23-7.35-4.98-10.6-14.1-11.02-22.65-.6-10.11 4.2-20.47 12.57-26.23 6.12-3.91 13.04-6.29 19.92-8.51 7.63-2.17 15.62-2.53 23.51-2.67.24-5.6-2.86-11.44-8.48-13.03-9.52-2.55-19.19.79-28.7 1.65-3.76.54-7.41-1.68-9.06-5.01-2.47-5.03-2.19-10.8-2.01-16.24zm-287 51.79c3.2-17.5 1.81-35.37 2.87-53.04 24.77-.01 49.54-.01 74.31 0-.04 32.59.05 65.17-.05 97.76-9.54 0-19.08-.01-28.61.01-.06-25.21-.01-50.42-.03-75.62-6.95-.02-13.91-.01-20.86 0-.83 14.59-1.2 29.3-4.28 43.64-2.02 9.22-5.37 18.64-12.2 25.42-7.18 7.37-18.09 9.54-28.01 9.1-2.29.05-4.94-1.4-4.89-3.96-.31-6-.03-12.03-.12-18.04 4.45-.37 9-1.77 12.52-4.58 5.34-5.58 8.08-13.18 9.35-20.69zm185.36-53.03c30.42-.03 60.85-.01 91.27-.01.01 6.92.01 13.84 0 20.75-10 .01-19.99 0-29.99.01-.02 25.21.01 50.41-.01 75.62-10 .01-20 .01-30 0-.02-25.21.01-50.41-.01-75.62-10.42-.02-20.84.02-31.26-.02.01-6.91 0-13.82 0-20.73zm201.33 8.8c8.83-6.25 19.8-8.72 30.49-8.78 13.11-.09 26.22-.01 39.33-.03 0 32.13.01 64.25 0 96.38-9.13.01-18.26 0-27.38 0-.05-12.64.1-25.29-.09-37.93-3.54.27-7.63.65-9.84 3.83-6.55 8.27-8.43 19.12-14.06 27.93-2.78 4.39-8.16 5.93-13.07 6.08-7.63.21-15.26.05-22.89.07 7.02-11.66 13.94-23.39 21.08-34.97 2.47-4.16 6.64-6.96 11.33-8.02-9.04-1.86-18.53-6.45-22.58-15.24-4.73-10.03-.6-22.48 7.68-29.32z"/><path fill="#df212f" d="M971.08 189.11c5.08-1.83 10.63-.88 15.92-1.11-.01 8.25.01 16.49-.01 24.74-6.38-.41-14.17 1.66-19.11-3.59-6.11-5.32-4.65-17.18 3.2-20.04zm-489.7 1.57c5.95-1.94 13.01-1.87 18.42 1.56 6.4 4.31 8.1 12.59 8.62 19.79.42 8.87.43 18.39-4.01 26.37-5.77 10.15-21.71 10.71-29.33 2.47-4.65-5.43-5.97-12.89-5.73-19.84.27-7.51.12-15.4 3.48-22.32 1.65-3.66 4.76-6.65 8.55-8.03zm206.03-.04c7.35-2.38 16.9-1.62 21.92 4.92 5.41 7.59 5.28 17.45 5.13 26.37-.45 8.04-2.18 17.4-9.51 22.05-7.41 4.16-17.93 3.34-23.85-3.05-4.68-5.42-6.05-12.88-5.77-19.85.26-7.53.04-15.46 3.44-22.39 1.69-3.68 4.81-6.69 8.64-8.05z"/><path fill="#f8bd15" d="M142 218.99c51 0 102-.01 153 0V237H142v-18.01z"/><path fill="#df212f" d="M866.43 227.41c7.7-4.26 16.84-3.94 25.37-4.32.16 4.89 1.5 9.85.9 14.7-6.29 7.02-16.92 10.77-25.99 7.43-7.48-2.68-6.9-14.46-.28-17.81z"/><path fill="#fefafa" d="M142.37 249.23c15.21-.01 30.42.01 45.63 0 .01 25.62-.01 51.25.01 76.88 5.28.14 10.65-.04 15.76-1.54 2.17-.89 3.79-2.73 5.21-4.53 11.25-15.12 17.4-33.32 28.68-48.43 4.41-6.16 9.83-11.84 16.72-15.19 12.7-5.62 26.83-6.3 40.51-5.93-.02 9.19.06 18.38-.02 27.57.13 3.32-1.33 6.78-4.25 8.51-4.4 2.53-9.64 2.87-14.21 4.99-3.99 1.66-7.21 4.74-9.64 8.25-7.44 10.2-10.24 22.99-17.83 33.1-2.55 3.39-6.12 5.8-9.91 7.61 5.91 1.45 11.52 4.26 15.98 8.43 4.92 4.91 8.69 10.82 12.22 16.77 13.92 24.61 28.02 49.13 41.9 73.77-13.71.02-27.42 0-41.13.02-4.62.12-9.56-1.23-12.62-4.89-3.02-3.01-4.18-7.21-6.33-10.78-10.78-18.86-21.48-37.78-32.27-56.63-2.13-3.76-5.61-6.78-9.89-7.71-6.21-1.28-12.6-.57-18.89-.74v79.49c-13.99.02-27.97-.04-41.96.03-1.11-.36-4.05.78-3.66-1.3-.04-62.58-.01-125.16-.01-187.75z"/><path fill="#fefafa" d="M357.54 296.79c17.36-1.84 35.73.74 50.75 10.08 12.64 7.77 22.13 20.26 26.81 34.3 4.53 13.08 5.19 27.22 3.77 40.89-.68 7.44-3.08 14.61-6.59 21.18-5.56 12.01-14.75 22.37-26.16 29.12-15.61 9.03-34.47 11.32-52.12 8.55-15.66-2.32-30.64-9.81-41.32-21.6-9.05-10.39-15.31-23.36-16.98-37.1-2.2-17.85-.13-36.75 8.86-52.59 10.41-19.28 31.53-30.94 52.98-32.83zm158.37 1.75c11.02-2.9 23.15-3.58 33.91.67 13.67 5.53 23.1 17.98 28.79 31.16 4.7 9.85 6.06 20.87 6.64 31.65.9 19.85-4.04 40.26-15.58 56.6-7.92 11.26-19.97 19.7-33.55 22.35-11.4 2.21-23.69 1.24-34.12-4.1-3.67-1.76-6.95-4.2-10.34-6.42.03 17.79.07 35.58.02 53.38-13.89.52-27.78.95-41.68 1.32V298.74c8.64.04 17.29-.1 25.94.05 4.14-.05 8.64 1.93 10.23 5.99 1.24 3.57 1.92 7.3 2.91 10.94 7.25-7.93 16.36-14.36 26.83-17.18zm140.7-1.71c18.83-2.1 38.97.9 54.78 11.89 14.1 9.67 23.13 25.55 26.19 42.19 2.99 16.58 2.26 34.16-3.92 49.95-5.7 15.16-17.61 27.9-32.43 34.47-15.03 6.75-32.1 8.08-48.27 5.56-16.21-2.59-31.88-10.52-42.26-23.43-11.84-14.21-16.67-33.21-15.99-51.46.49-17.87 6.31-36.3 19.16-49.16 11.08-11.78 26.88-18.18 42.74-20.01zm248.31 4.49c19.19-3.17 38.62-5.62 58.12-5.01 16.91.7 33.73 9.19 43.15 23.48 7.3 10.5 9.92 23.57 9.45 36.2-.02 28.29 0 56.58 0 84.88-7.24-.04-14.48.14-21.71-.09-3.73-.12-8.02-1.13-10.09-4.55-2.21-3.8-3.21-8.14-4.7-12.24-15.66 17.9-42.99 24.17-64.87 14.85-7.64-3.15-13.9-9.33-17.16-16.92-5.28-12.1-6.38-26.26-2.17-38.85 5.11-13.1 16.87-22.83 30.1-27.09 8.52-2.57 17.03-5.39 25.91-6.45 7.64-.98 15.36-1.15 23.06-1.22.78-8.34-4.69-16.94-13.1-18.62-9.31-1.78-18.85.07-28.06 1.64-5.96.95-12.21 3.14-18.13.93-4.54-1.63-7.39-6.01-8.6-10.49-1.71-6.67-1.67-13.63-1.2-20.45zm-153.88-2.59c13.91.02 27.82-.01 41.73.01-.03 16.93.05 33.86-.05 50.78 14.75.22 29.5 0 44.25.12.17-16.97.02-33.94.07-50.91 13.93.02 27.86-.02 41.79.02v140.72c-13.93.07-27.86-.01-41.79.04-.01-19.54.01-39.08-.01-58.63-14.75 0-29.51 0-44.26.01.02 19.51-.06 39.03.04 58.55-13.92.14-27.84 0-41.77.07V298.73z"/><path fill="#df212f" d="M358.53 328.67c7.97-2.04 16.96-1.69 24.19 2.53 5.9 3.65 9.42 10.15 11.33 16.64 2.63 10.13 2.82 20.74 2.01 31.12-.87 9.51-3.37 19.7-10.78 26.29-7.38 6.01-17.81 6.64-26.73 4.4-6.27-1.58-11.52-5.98-14.52-11.66-4.89-8.76-5.24-19.16-4.85-28.94.14-10.17.79-20.9 5.97-29.93 2.85-5.1 7.73-8.94 13.38-10.45zm299.88-.02c8.45-2.14 18.16-1.62 25.49 3.49 6.95 5.31 10.08 14.09 11.37 22.46 1.38 9.86 1.4 19.97-.12 29.82-1.38 8.28-4.62 16.98-11.71 22.03-7.58 5.03-17.49 5.39-26.02 2.89-6.81-1.99-11.94-7.67-14.47-14.14-4.13-10.21-4.16-21.47-3.85-32.31.53-9.12 1.89-18.81 7.54-26.31 2.83-3.93 7.11-6.68 11.77-7.93zm-166.8 13.17c5.28-6.1 12.18-11.24 20.34-12.47 6.9-1.15 15.22-1.02 20.29 4.54 7.61 7.97 8.52 19.73 8.86 30.18.17 12.89-.51 26.94-8.28 37.81-4.61 6.6-13.02 9.48-20.84 8.87-7.58-.23-15.45-3.43-20.21-9.4-.27-19.84.09-39.69-.16-59.53zm447.23 39.85c11.29-3.81 23.3-4.45 35.05-5.95-.03 7.22.14 14.45-.07 21.67-3.84 2.2-6.38 6.04-10.27 8.16-5.62 3.17-12.2 4.13-18.56 4.34-5.33-.07-11.69-1.4-14.47-6.48-3.91-7.76-.13-18.83 8.32-21.74z"/></svg></svg>