<?xml version="1.0" encoding="utf-8"?><svg viewBox="0 0 800 800" xmlns="http://www.w3.org/2000/svg" xmlns:xlink="http://www.w3.org/1999/xlink"><style>:root>svg{display:none}:root>svg:target{display:block}</style><svg viewBox="0 0 20 20" id="email" xmlns="http://www.w3.org/2000/svg"><path d="M10 .4C4.698.4.4 4.698.4 10s4.298 9.6 9.6 9.6 9.6-4.298 9.6-9.6S15.302.4 10 .4zM6.231 7h7.52c.399 0 .193.512-.024.643-.217.13-3.22 1.947-3.333 2.014s-.257.1-.403.1a.793.793 0 01-.402-.1L6.255 7.643C6.038 7.512 5.833 7 6.231 7zM14 12.5c0 .21-.252.5-.444.5H6.444C6.252 13 6 12.71 6 12.5V8.853c0-.092-.002-.211.172-.11l3.417 2.015a.69.69 0 00.402.1.69.69 0 00.403-.1l3.434-2.014c.174-.102.172.018.172.11V12.5z"/></svg><svg viewBox="0 0 26 26" id="instagram" xmlns="http://www.w3.org/2000/svg"><path d="M13 8.834A4.174 4.174 0 008.834 13 4.174 4.174 0 0013 17.166 4.174 4.174 0 0017.166 13 4.174 4.174 0 0013 8.834zM25.494 13c0-1.725.015-3.434-.082-5.156-.096-2-.553-3.775-2.015-5.238C21.93 1.141 20.159.687 18.159.591 16.434.494 14.725.509 13.003.509c-1.725 0-3.434-.015-5.156.082-2 .096-3.775.553-5.238 2.015C1.144 4.072.691 5.844.594 7.844.497 9.569.512 11.278.512 13c0 1.722-.015 3.434.082 5.156.097 2 .553 3.775 2.015 5.238 1.466 1.465 3.238 1.919 5.238 2.015 1.725.097 3.434.082 5.156.082 1.725 0 3.434.015 5.156-.082 2-.096 3.775-.553 5.238-2.015 1.465-1.466 1.919-3.238 2.015-5.238.1-1.722.082-3.431.082-5.156zM13 19.41A6.4 6.4 0 016.59 13 6.4 6.4 0 0113 6.59 6.4 6.4 0 0119.41 13 6.4 6.4 0 0113 19.41zm6.672-11.585a1.495 1.495 0 01-1.497-1.497c0-.828.669-1.497 1.497-1.497a1.495 1.495 0 011.383 2.07 1.495 1.495 0 01-1.383.924z"/></svg><svg viewBox="0 0 26 26" id="telegram" xmlns="http://www.w3.org/2000/svg"><path fill-rule="evenodd" clip-rule="evenodd" d="M26 13c0 7.18-5.82 13-13 13S0 20.18 0 13 5.82 0 13 0s13 5.82 13 13zM13.466 9.597c-1.264.526-3.792 1.614-7.581 3.265-.616.245-.938.485-.968.719-.05.396.447.552 1.12.763l.285.091c.664.216 1.557.468 2.02.478.422.009.892-.165 1.411-.52 3.54-2.39 5.368-3.599 5.483-3.625.081-.018.194-.042.27.026.076.067.068.195.06.23-.05.21-1.993 2.017-3 2.953a30.38 30.38 0 00-.582.546c-.102.105-.206.206-.306.302-.617.594-1.079 1.04.026 1.768.531.35.956.64 1.38.928.462.315.924.63 1.521 1.021.152.1.297.203.44.304.538.384 1.022.729 1.62.675.347-.033.706-.359.888-1.333.43-2.303 1.277-7.29 1.474-9.347a2.29 2.29 0 00-.022-.511.548.548 0 00-.186-.352c-.155-.127-.396-.154-.504-.152-.489.009-1.238.27-4.85 1.771z"/></svg><svg viewBox="0 0 26 26" id="whatsap" xmlns="http://www.w3.org/2000/svg"><path d="M23.88 6.12C20.04.2 12.2-1.56 6.12 2.12.2 5.8-1.72 13.8 2.12 19.72l.32.48L1.16 25l4.8-1.28.48.32c2.08 1.12 4.32 1.76 6.56 1.76 2.4 0 4.8-.64 6.88-1.92 5.92-3.84 7.68-11.68 4-17.76zm-3.36 12.32c-.64.96-1.44 1.6-2.56 1.76-.64 0-1.44.32-4.64-.96-2.72-1.28-4.96-3.36-6.56-5.76-.96-1.12-1.44-2.56-1.6-4 0-1.28.48-2.4 1.28-3.2.32-.32.64-.48.96-.48h.8c.32 0 .64 0 .8.64.32.8 1.12 2.72 1.12 2.88.16.16.16.48 0 .64.16.32 0 .64-.16.8-.16.16-.32.48-.48.64-.32.16-.48.48-.32.8.64.96 1.44 1.92 2.24 2.72.96.8 1.92 1.44 3.04 1.92.32.16.64.16.8-.16.16-.32.96-1.12 1.28-1.44.32-.32.48-.32.8-.16l2.56 1.28c.32.16.64.32.8.48.16.48.16 1.12-.16 1.6z"/></svg></svg>