<?xml version="1.0" ?><!DOCTYPE svg  PUBLIC '-//W3C//DTD SVG 1.1//EN'  'http://www.w3.org/Graphics/SVG/1.1/DTD/svg11.dtd'><svg enable-background="new 0 0 128 128" id="Слой_1" version="1.1" viewBox="0 0 128 128" xml:space="preserve" xmlns="http://www.w3.org/2000/svg" xmlns:xlink="http://www.w3.org/1999/xlink"><line fill="#E5E3E3" x1="11.5" x2="91.5" y1="54" y2="54"/><line fill="#E5E3E3" x1="11.5" x2="26.9" y1="44" y2="44"/><line fill="#E5E3E3" x1="12.7" x2="26.9" y1="34" y2="34"/><polyline fill="#A5A4AA" points="23.5,17.6 23.5,4 29.5,4 29.5,9.4 "/><path d="M94.5,4h-40c-22.1,0-40,17.9-40,40v10c0,5.5,4.5,10,10,10h80c5.5,0,10-4.5,10-10V24C114.5,13,105.5,4,94.5,4  z M104.5,34h-45V24c0-5.5,4.5-10,10-10h25c5.5,0,10,4.5,10,10V34z" fill="#9FD9DA"/><g opacity="0.1"><path d="M24.5,54V44c0-22.1,17.9-40,40-40h-10c-22.1,0-40,17.9-40,40v10c0,5.5,4.5,10,10,10h10C29,64,24.5,59.5,24.5,54z"/></g><line fill="#E5E3E3" x1="31.5" x2="31.5" y1="64.7" y2="104"/><line fill="#E5E3E3" x1="21.5" x2="21.5" y1="84" y2="124"/><line fill="#E5E3E3" x1="41.5" x2="41.5" y1="84" y2="124"/><path d="M94,1.5H54c-7.8,0-15.2,2.1-21.5,5.9V4c0-1.4-1.1-2.5-2.5-2.5h-6c-1.4,0-2.5,1.1-2.5,2.5v12.7  c-4,4.8-7.1,10.5-8.7,16.8c0,0,0,0.1,0,0.1c-0.9,3.3-1.3,6.9-1.3,10.5l0,0c0,0,0,0,0,0s0,0,0,0v10c0,6.9,5.6,12.5,12.5,12.5h7.5  l0,15H22c-4.1,0-7.5,3.4-7.5,7.5l0,30c0,4.1,3.4,7.5,7.5,7.5h12h12c4.1,0,7.5-3.4,7.5-7.5l0-30c0-4.1-3.4-7.5-7.5-7.5h-9.5l0-15H104  c6.9,0,12.5-5.6,12.5-12.5V24C116.5,11.6,106.4,1.5,94,1.5z M19.5,119l0-30c0-1.2,0.9-2.2,2-2.4v34.9  C20.4,121.2,19.5,120.2,19.5,119z M48.5,89l0,30c0,1.2-0.9,2.2-2,2.4V86.6C47.6,86.8,48.5,87.8,48.5,89z M41.5,86.5v35H34h-7.5v-35  h5l0,17.5c0,1.4,1.1,2.5,2.5,2.5c1.4,0,2.5-1.1,2.5-2.5l0-17.5H41.5z M27.5,6.5v2.9c0,0.4-0.6,1.9-1,2.3V6.5H27.5z M111.5,54  c0,4.1-3.4,7.5-7.5,7.5H24c-3.3,0-6-2.1-7.1-5H94c1.4,0,2.5-1.1,2.5-2.5s-1.1-2.5-2.5-2.5H16.5v-5h12.9c1.4,0,2.5-1.1,2.5-2.5  s-1.1-2.5-2.5-2.5H16.6c0.1-1.7,0.3-3.4,0.7-5l12.1,0c0,0,0,0,0,0c1.4,0,2.5-1.1,2.5-2.5c0-1.4-1.1-2.5-2.5-2.5l-10.7,0  C23.8,17,37.7,6.5,54,6.5h40c9.6,0,17.5,7.9,17.5,17.5V54z" fill="#62355C"/><path d="M94,11.5H69c-6.9,0-12.5,5.6-12.5,12.5v10c0,1.4,1.1,2.5,2.5,2.5h45c1.4,0,2.5-1.1,2.5-2.5V24  C106.5,17.1,100.9,11.5,94,11.5z M101.5,31.5h-40V24c0-4.1,3.4-7.5,7.5-7.5h25c4.1,0,7.5,3.4,7.5,7.5V31.5z" fill="#62355C"/></svg>