<?xml version="1.0" encoding="UTF-8" standalone="no"?>
<!-- Created with Inkscape (http://www.inkscape.org/) -->

<svg
   xmlns:dc="http://purl.org/dc/elements/1.1/"
   xmlns:cc="http://creativecommons.org/ns#"
   xmlns:rdf="http://www.w3.org/1999/02/22-rdf-syntax-ns#"
   xmlns:svg="http://www.w3.org/2000/svg"
   xmlns="http://www.w3.org/2000/svg"
   xmlns:sodipodi="http://sodipodi.sourceforge.net/DTD/sodipodi-0.dtd"
   xmlns:inkscape="http://www.inkscape.org/namespaces/inkscape"
   width="71.808784mm"
   height="44.687317mm"
   viewBox="0 0 254.44057 158.34088"
   id="svg2"
   version="1.1"
   inkscape:version="0.91 r13725"
   sodipodi:docname="on sale.svg">
  <defs
     id="defs4" />
  <sodipodi:namedview
     id="base"
     pagecolor="#ffffff"
     bordercolor="#666666"
     borderopacity="1.0"
     inkscape:pageopacity="0.0"
     inkscape:pageshadow="2"
     inkscape:zoom="1.8173077"
     inkscape:cx="148.64734"
     inkscape:cy="57.572259"
     inkscape:document-units="px"
     inkscape:current-layer="layer1"
     showgrid="false"
     fit-margin-top="0"
     fit-margin-left="0"
     fit-margin-right="0"
     fit-margin-bottom="0"
     inkscape:window-width="1366"
     inkscape:window-height="705"
     inkscape:window-x="-8"
     inkscape:window-y="-8"
     inkscape:window-maximized="1" />
  <metadata
     id="metadata7">
    <rdf:RDF>
      <cc:Work
         rdf:about="">
        <dc:format>image/svg+xml</dc:format>
        <dc:type
           rdf:resource="http://purl.org/dc/dcmitype/StillImage" />
        <dc:title></dc:title>
      </cc:Work>
    </rdf:RDF>
  </metadata>
  <g
     inkscape:label="Layer 1"
     inkscape:groupmode="layer"
     id="layer1"
     transform="translate(-259.92409,-308.73644)">
    <path
       style="fill:#eeffaa;fill-rule:evenodd;stroke:#000000;stroke-width:1px;stroke-linecap:butt;stroke-linejoin:miter;stroke-opacity:1"
       d="m 293.29101,465.22993 -5.50265,-49.52381 -19.25926,-64.38095 3.85185,-5.50265 100.14815,-19.80952 78.68783,-12.65609 49.52381,-2.75132 0.55027,26.96296 1.65079,24.21164 9.3545,53.92593 -67.13228,13.75661 L 329.60847,455.32517 312,460.27755 Z"
       id="path4167"
       inkscape:connector-curvature="0" />
    <path
       style="fill:#000000"
       d="m 228.08398,-1.3378906 c -6.37938,-0.0548 -17.2532,0.57341997 -29.99218,1.81249998 -6.325,0.61521002 -13.3,1.20169442 -15.5,1.30273442 -4.8904,0.2245899 -23.14406,3.0370712 -32.56836,5.0195312 -3.81058,0.80158 -9.51611,1.7339525 -12.67969,2.0703125 -3.16358,0.33637 -5.99937,0.7620256 -6.30078,0.9472656 -0.48695,0.2992499 -15.39128,2.9757659 -21.95117,3.9414059 -6.83774,1.00655 -11.693263,1.808379 -13.500003,2.230469 -1.1,0.25699 -3.575,0.629715 -5.5,0.828125 -1.925,0.19841 -8.9,1.762863 -15.5,3.476563 -14.27229,3.70584 -16.67905,4.239257 -31,6.873046 -16.43936,3.023391 -22.386316,4.171849 -28.916016,5.580079 -3.25329,0.70162 -7.8653697,1.22095 -10.2499998,1.15625 -2.3846399,-0.0647 -4.33635745,0.246446 -4.33593745,0.691406 4.3e-4,0.44496 -0.56054687,0.480155 -1.24804685,0.07813 -0.6875,-0.402 -0.4304044,0.206832 0.5722656,1.351562 1.77184,2.02289 1.76482,2.098802 -0.25,2.738282 -1.14017,0.36188 -2.0722656,1.265712 -2.0722656,2.007812 0,0.74211 -0.5625,1.576106 -1.25,1.853516 -0.6875,0.27741 -0.050694,0.540584 1.4160156,0.583984 1.97076,0.0583 2.89964,0.780971 3.5625,2.769531 0.8404,2.52122 0.5890956,2.84302 -3.9902344,5.125 l -4.8867187,2.435547 6.9335937,6.625 c 3.81356,3.64312 7.2744063,7.748047 7.6914063,9.123047 0.41701,1.375 1.4061056,3.239778 2.1972656,4.142578 0.79117,0.9028 3.255329,8.1028 5.474609,16 2.99036,10.641034 4.247062,17.334834 4.857422,25.857424 1.26681,17.68855 4.177015,38.74659 5.708985,41.31835 0.26806,0.45 1.227875,0.53071 2.134765,0.17969 0.90685,-0.35103 3.000391,-0.90372 4.650391,-1.22852 1.65,-0.3248 4.050887,-1.27047 5.335937,-2.10156 2.13964,-1.38379 4.649503,-2.002 15.414063,-3.80273 2.0625,-0.34503 3.75,-0.9902 3.75,-1.4336 0,-0.4434 0.7875,-0.78074 1.75,-0.74804 3.11306,0.10571 16.467949,-2.34993 20.480469,-3.76563 2.14545,-0.75696 7.357814,-1.64087 11.583984,-1.96484 4.22617,-0.32397 10.38555,-1.47978 13.68555,-2.56836 3.3,-1.08858 11.85,-3.02495 19,-4.30469 7.15,-1.27974 18.4,-3.6861 25,-5.3457 30.70257,-7.72027 50.79651,-11.22695 55.59765,-9.70313 3.27982,1.04098 6.40795,1.6022 14.25,2.55274 4.3165,0.52321 9.60785,1.34505 11.75782,1.82812 4.37248,0.98243 4.17654,1.27752 5.40039,-8.16211 0.41236,-3.18027 1.09141,-4.75 2.05468,-4.75 1.80695,0 1.63157,0.0441 6.15235,-1.51953 3.43727,-1.18891 3.76088,-1.60851 3.51562,-4.55664 -0.14859,-1.78606 -1.19269,-6.860897 -2.32031,-11.277337 -1.12762,-4.416441 -2.23658,-9.406131 -2.46484,-11.087891 -0.2282,-1.68176 -0.65432,-4.183594 -0.94727,-5.558594 -0.29295,-1.375 -1.44855,-8.575 -2.56836,-16 -1.11981,-7.425 -2.26279,-14.85 -2.53906,-16.5 -0.27627,-1.65 -0.67743,-12.225 -0.89258,-23.5 -0.21515,-11.275 -0.41641,-21.07073113 -0.44531,-21.76953112 -0.0223,-0.53907998 -2.23097,-0.81869248 -6.0586,-0.85156248 z m 1.5293,2.9257812 c 1.1749,-0.0511 1.40421,3.6851925 1.9375,22.1953124 0.31691,11 0.97046,22.7 1.45313,26 0.48264,3.3 1.41141,10.05 2.06445,15 0.65304,4.95 1.43444,9.675 1.73633,10.5 0.30189,0.825 0.70153,2.625 0.88672,4 0.18515,1.375 1.43697,7.675 2.7832,14 1.34623,6.325 2.14747,11.762497 1.78125,12.082027 -2.03365,1.77436 -40.13002,9.6233 -58.00391,11.95118 -4.58593,0.59727 -11.11093,1.93092 -14.5,2.96289 -3.38907,1.03197 -8.95421,2.37127 -12.36914,2.97656 -3.41493,0.60528 -10.61493,2.43908 -16,4.07422 -5.38507,1.63514 -12.71601,3.2462 -16.29101,3.58008 -3.575,0.33388 -10.325,1.72183 -15,3.08398 -4.675,1.36214 -13.900003,3.33389 -20.500003,4.38281 -21.28999,3.38353 -24.87288,4.01159 -32.5,5.68946 -4.125,0.90744 -12.318591,3.30884 -18.207031,5.33789 -7.84682,2.70385 -10.948059,3.38179 -11.611328,2.53515 -1.537571,-1.96264 -3.946042,-17.85422 -5.175782,-34.15625 -0.51784,-6.86474 -2.161607,-17.13526 -3.841797,-23.999997 -1.6154,-6.6 -3.252241,-14.21932 -3.638671,-16.931641 -0.38642,-2.71233 -2.222689,-9.472717 -4.080079,-15.023437 -1.9623396,-5.86438 -3.1332215,-11.024709 -2.7949215,-12.318359 0.40147,-1.53523 0.1384438,-2.226563 -0.8476563,-2.226563 -0.78649,0 -2.0376768,-1.545447 -2.7792968,-3.435547 -1.65289,-4.21258 -1.5645744,-4.871624 0.6972656,-5.183594 0.97762,-0.134839 4.2542969,-0.732975 7.279297,-1.328124 3.025,-0.59515 7.975,-1.505358 11,-2.023438 16.7882,-2.87521 27.77155,-5.128534 38.5,-7.896484 16.43493,-4.24023 18.69323,-4.758782 29,-6.669922 4.95,-0.91786 9.900003,-1.850043 11.000003,-2.070313 1.1,-0.22028 4.58482,-0.615909 7.74414,-0.880859 3.15932,-0.26495 9.00932,-1.189365 13,-2.052734 3.99068,-0.86337 10.18086,-2.008452 13.75586,-2.544922 3.575,-0.53647 13.025,-2.285772 21,-3.8886722 16.7286,-3.36228 37.0339,-5.5310676 60.19922,-6.4296876 5.88512,-0.2282999 11.17654,-0.7091193 11.75781,-1.0683593 0.21011,-0.12985 0.39661,-0.2153663 0.56445,-0.2226563 z"
       transform="translate(267.98073,310.07763)"
       id="path4147"
       inkscape:connector-curvature="0" />
  </g>
</svg>
