<?xml version="1.0" ?><!DOCTYPE svg  PUBLIC '-//W3C//DTD SVG 1.1//EN'  'http://www.w3.org/Graphics/SVG/1.1/DTD/svg11.dtd'><svg enable-background="new 0 0 64 64" height="64px" version="1.1" viewBox="0 0 64 64" width="64px" xml:space="preserve" xmlns="http://www.w3.org/2000/svg" xmlns:xlink="http://www.w3.org/1999/xlink"><g id="thermometer"><g id="XMLID_626_"><g id="XMLID_982_"><circle cx="32" cy="32" fill="#ECEFF1" id="XMLID_983_" r="24"/></g></g><path d="M46.057,6.13L27.988,24.199c-2.305,2.305-4.082,5.082-5.209,8.14l-2.328,6.32   c-0.601,1.629-1.547,3.109-2.775,4.337L5.751,54.92c-0.781,0.781-0.781,2.047,0,2.828l0,0c0.781,0.781,2.048,0.781,2.829,0   l11.925-11.925c1.228-1.228,2.707-2.174,4.337-2.775l6.319-2.328c3.059-1.127,5.836-2.904,8.141-5.208L57.37,17.444   c1.952-1.953,1.952-5.119,0-7.071L53.127,6.13C51.175,4.177,48.009,4.177,46.057,6.13z" fill="#ECEFF1" id="XMLID_981_"/><path d="M57.37,10.373L56.31,9.312c1.952,1.953,1.952,5.118,0,7.071L38.241,34.452   c-2.305,2.305-5.082,4.082-8.141,5.208l-6.319,2.328c-1.63,0.6-3.109,1.547-4.337,2.775L7.519,56.688   c-0.593,0.593-1.465,0.733-2.192,0.425c0.097,0.231,0.237,0.448,0.425,0.635c0.781,0.781,2.048,0.781,2.829,0l11.925-11.925   c1.228-1.228,2.707-2.174,4.337-2.775l6.319-2.328c3.059-1.127,5.836-2.904,8.141-5.208L57.37,17.444   C59.322,15.491,59.322,12.325,57.37,10.373z" fill="#CFD8DC" id="XMLID_985_"/><path d="M6.812,55.981l11.925-11.925c1.229-1.228,2.175-2.708,2.775-4.337l2.328-6.32   c1.127-3.058,2.904-5.835,5.209-8.14L47.117,7.19c1.952-1.953,5.118-1.953,7.071,0L53.127,6.13c-1.952-1.953-5.118-1.953-7.07,0   L27.988,24.199c-2.305,2.305-4.082,5.082-5.209,8.14l-2.328,6.32c-0.601,1.629-1.547,3.109-2.775,4.337L5.751,54.92   c-0.781,0.781-0.781,2.047,0,2.828c0.188,0.188,0.405,0.328,0.636,0.426C6.078,57.446,6.219,56.574,6.812,55.981z" fill="#FFFFFF" id="XMLID_984_"/><path d="M7.165,58.834c-0.667,0-1.295-0.26-1.768-0.732c-0.473-0.472-0.732-1.1-0.732-1.768s0.26-1.296,0.732-1.768   l11.925-11.925c1.185-1.185,2.08-2.583,2.66-4.156l2.328-6.32c1.144-3.104,2.984-5.981,5.324-8.321L45.703,5.776   c1.038-1.039,2.42-1.611,3.889-1.611s2.851,0.572,3.889,1.611l4.243,4.243c2.144,2.145,2.144,5.634,0,7.778L39.655,35.866   c-2.339,2.339-5.217,4.18-8.321,5.324l-6.319,2.328c-1.551,0.571-2.988,1.491-4.156,2.659L8.934,58.102   C8.461,58.574,7.833,58.834,7.165,58.834z M49.592,5.166c-1.202,0-2.332,0.468-3.182,1.318L28.342,24.552   c-2.238,2.238-3.999,4.991-5.094,7.959l-2.328,6.32c-0.63,1.71-1.603,3.23-2.891,4.518L6.104,55.274   c-0.283,0.283-0.439,0.66-0.439,1.061s0.156,0.777,0.439,1.061c0.567,0.567,1.557,0.566,2.122,0L20.151,45.47   c1.27-1.27,2.832-2.27,4.518-2.891l6.319-2.328c2.97-1.094,5.723-2.855,7.96-5.093L57.017,17.09c1.754-1.754,1.754-4.61,0-6.364   l-4.243-4.243C51.924,5.633,50.794,5.166,49.592,5.166z" fill="#37474F"/><g><path d="M33.328,33L30.5,30.171c-0.391-0.39-0.391-1.023,0-1.414l7.778-7.778    c0.391-0.39,1.023-0.39,1.414,0l2.828,2.829c0.391,0.391,0.391,1.023,0,1.414L34.742,33C34.353,33.391,33.719,33.391,33.328,33z" fill="#B2FF59" id="XMLID_120_"/><path d="M34.035,33.793c-0.4,0-0.777-0.156-1.061-0.439l-2.828-2.829c-0.283-0.283-0.439-0.66-0.439-1.061    c0-0.4,0.156-0.777,0.439-1.061l7.778-7.778c0.566-0.566,1.555-0.566,2.121,0l2.828,2.829c0.283,0.283,0.439,0.66,0.439,1.061    s-0.156,0.777-0.439,1.061l-7.778,7.778C34.813,33.637,34.437,33.793,34.035,33.793z M38.985,21.187    c-0.134,0-0.259,0.052-0.354,0.146l-7.778,7.778c-0.095,0.095-0.146,0.22-0.146,0.354c0,0.134,0.052,0.259,0.146,0.353    l2.828,2.829c0.189,0.188,0.518,0.189,0.707,0l7.778-7.779c0.095-0.095,0.146-0.22,0.146-0.354s-0.052-0.259-0.146-0.354    l-2.828-2.829C39.244,21.238,39.119,21.187,38.985,21.187z" fill="#37474F"/></g><g><circle cx="44.996" cy="18.504" fill="#CFD8DC" id="XMLID_119_" r="2.5"/><path d="M44.996,21.504c-0.802,0-1.556-0.312-2.122-0.879c-1.169-1.169-1.169-3.073,0-4.243    c1.132-1.132,3.109-1.133,4.243,0c0.566,0.567,0.879,1.32,0.879,2.122s-0.313,1.555-0.879,2.121    C46.551,21.192,45.797,21.504,44.996,21.504z M44.996,16.504c-0.535,0-1.037,0.208-1.415,0.585c-0.779,0.78-0.779,2.049,0,2.829    c0.755,0.755,2.072,0.756,2.829,0c0.378-0.378,0.586-0.88,0.586-1.414s-0.208-1.037-0.586-1.415    C46.032,16.712,45.53,16.504,44.996,16.504z" fill="#37474F"/></g><path d="M57.37,10.373L53.127,6.13c-1.952-1.953-5.118-1.953-7.07,0l-1.414,1.414l11.313,11.314   l1.414-1.414C59.322,15.491,59.322,12.325,57.37,10.373z" fill="#84FFFF" id="XMLID_986_"/><path d="M57.37,10.373L56.31,9.312c1.952,1.953,1.952,5.118,0,7.071l-1.414,1.415l1.061,1.061   l1.414-1.414C59.322,15.491,59.322,12.325,57.37,10.373z" fill="#18FFFF" id="XMLID_987_"/><path d="M47.117,7.19c1.952-1.953,5.118-1.953,7.071,0L53.127,6.13   c-1.952-1.953-5.118-1.953-7.07,0l-1.414,1.414l1.061,1.061L47.117,7.19z" fill="#FFFFFF" id="XMLID_989_"/><path d="M55.956,19.565L43.936,7.544l1.768-1.768c1.038-1.039,2.42-1.611,3.889-1.611s2.851,0.572,3.889,1.611   l4.243,4.243c2.144,2.145,2.144,5.634,0,7.778L55.956,19.565z M45.35,7.544l10.606,10.607l1.061-1.061   c1.754-1.754,1.754-4.61,0-6.364l-4.243-4.243c-0.85-0.85-1.979-1.318-3.182-1.318S47.26,5.633,46.41,6.483L45.35,7.544z" fill="#37474F"/><path d="M9.287,51.385L5.751,54.92c-0.781,0.781-0.781,2.047,0,2.828   c0.781,0.781,2.048,0.781,2.829,0l3.535-3.535L9.287,51.385z" fill="#84FFFF" id="XMLID_990_"/><path d="M11.055,53.152l-3.536,3.536c-0.593,0.593-1.465,0.733-2.192,0.425   c0.097,0.231,0.237,0.448,0.425,0.635c0.781,0.781,2.048,0.781,2.829,0l3.535-3.535L11.055,53.152z" fill="#18FFFF" id="XMLID_991_"/><path d="M6.812,55.981l3.536-3.536l-1.061-1.061L5.751,54.92c-0.781,0.781-0.781,2.047,0,2.828   c0.188,0.188,0.405,0.328,0.636,0.426C6.078,57.446,6.219,56.574,6.812,55.981z" fill="#FFFFFF" id="XMLID_992_"/><path d="M7.166,58.834c-0.668,0-1.296-0.26-1.769-0.732c-0.473-0.472-0.732-1.1-0.732-1.768s0.26-1.296,0.732-1.768   l3.89-3.889l3.535,3.536l-3.889,3.889C8.461,58.574,7.833,58.834,7.166,58.834z M9.287,52.092l-3.183,3.182   c-0.283,0.283-0.439,0.66-0.439,1.061s0.156,0.777,0.439,1.061c0.565,0.565,1.555,0.567,2.122,0l3.182-3.182L9.287,52.092z" fill="#37474F"/></g></svg>